{"asset":{"version":"2.0","generator":"Blockbench 4.6.5 glTF exporter"},"scenes":[{"nodes":[6],"name":"blockbench_export"}],"scene":0,"nodes":[{"name":"cube","mesh":0},{"rotation":[0,-0.4422886902190013,0,0.8968727415326883],"name":"sphere","mesh":1},{"rotation":[-0.0023749183589675603,0.10884096748385488,-0.021685224736196707,0.993819779732778],"name":"sphere","mesh":2},{"rotation":[-0.011316978985776473,-0.5186498041734119,0.018649804173411916,0.8547084247986623],"name":"sphere","mesh":3},{"rotation":[-0.0023749183589675603,0.10884096748385488,-0.021685224736196707,0.993819779732778],"name":"sphere","mesh":4},{"translation":[0,0.375,0],"name":"Ring","children":[1,2,3,4]},{"children":[0,5]}],"bufferViews":[{"buffer":0,"byteOffset":0,"byteLength":288,"target":34962,"byteStride":12},{"buffer":0,"byteOffset":288,"byteLength":288,"target":34962,"byteStride":12},{"buffer":0,"byteOffset":576,"byteLength":192,"target":34962,"byteStride":8},{"buffer":0,"byteOffset":768,"byteLength":72,"target":34963},{"buffer":0,"byteOffset":840,"byteLength":49680,"target":34962,"byteStride":12},{"buffer":0,"byteOffset":50520,"byteLength":49680,"target":34962,"byteStride":12},{"buffer":0,"byteOffset":100200,"byteLength":33120,"target":34962,"byteStride":8},{"buffer":0,"byteOffset":133320,"byteLength":11040,"target":34963},{"buffer":0,"byteOffset":144360,"byteLength":49680,"target":34962,"byteStride":12},{"buffer":0,"byteOffset":194040,"byteLength":49680,"target":34962,"byteStride":12},{"buffer":0,"byteOffset":243720,"byteLength":33120,"target":34962,"byteStride":8},{"buffer":0,"byteOffset":276840,"byteLength":11040,"target":34963},{"buffer":0,"byteOffset":287880,"byteLength":49680,"target":34962,"byteStride":12},{"buffer":0,"byteOffset":337560,"byteLength":49680,"target":34962,"byteStride":12},{"buffer":0,"byteOffset":387240,"byteLength":33120,"target":34962,"byteStride":8},{"buffer":0,"byteOffset":420360,"byteLength":11040,"target":34963},{"buffer":0,"byteOffset":431400,"byteLength":49680,"target":34962,"byteStride":12},{"buffer":0,"byteOffset":481080,"byteLength":49680,"target":34962,"byteStride":12},{"buffer":0,"byteOffset":530760,"byteLength":33120,"target":34962,"byteStride":8},{"buffer":0,"byteOffset":563880,"byteLength":11040,"target":34963},{"buffer":0,"byteOffset":574920,"byteLength":20},{"buffer":0,"byteOffset":574940,"byteLength":80}],"buffers":[{"byteLength":575020,"uri":"data:application/octet-stream;base64,"}],"accessors":[{"bufferView":0,"componentType":5126,"count":24,"max":[0.078125,0.25312501192092896,0.09375],"min":[-0.078125,0,-0.0625],"type":"VEC3"},{"bufferView":1,"componentType":5126,"count":24,"max":[1,1,1],"min":[-1,-1,-1],"type":"VEC3"},{"bufferView":2,"componentType":5126,"count":24,"max":[0.187255859375,0.921630859375],"min":[0.062744140625,0.828369140625],"type":"VEC2"},{"bufferView":3,"componentType":5123,"count":36,"max":[23],"min":[0],"type":"SCALAR"},{"bufferView":4,"componentType":5126,"count":4140,"max":[0.46875,0.0990309938788414,0.4672205150127411],"min":[-0.46875,-0.034035976976156235,-0.4479950964450836],"type":"VEC3"},{"bufferView":5,"componentType":5126,"count":4140,"max":[0.9510565400123596,0.9999619126319885,1],"min":[-0.9510565400123596,-0.9999619126319885,-1],"type":"VEC3"},{"bufferView":6,"componentType":5126,"count":4140,"max":[0.828125,1],"min":[0,0.171875],"type":"VEC2"},{"bufferView":7,"componentType":5123,"count":5520,"max":[4139],"min":[0],"type":"SCALAR"},{"bufferView":8,"componentType":5126,"count":4140,"max":[0.46875,0.1146559938788414,0.4672205150127411],"min":[-0.46875,-0.018410978838801384,-0.4479950964450836],"type":"VEC3"},{"bufferView":9,"componentType":5126,"count":4140,"max":[0.9510565400123596,0.9999619126319885,1],"min":[-0.9510565400123596,-0.9999619126319885,-1],"type":"VEC3"},{"bufferView":10,"componentType":5126,"count":4140,"max":[0.828125,1],"min":[0,0.171875],"type":"VEC2"},{"bufferView":11,"componentType":5123,"count":5520,"max":[4139],"min":[0],"type":"SCALAR"},{"bufferView":12,"componentType":5126,"count":4140,"max":[0.46875,0.130281001329422,0.4672205150127411],"min":[-0.46875,-0.002785978140309453,-0.4479950964450836],"type":"VEC3"},{"bufferView":13,"componentType":5126,"count":4140,"max":[0.9510565400123596,0.9999619126319885,1],"min":[-0.9510565400123596,-0.9999619126319885,-1],"type":"VEC3"},{"bufferView":14,"componentType":5126,"count":4140,"max":[0.004828124772757292,1],"min":[0,0.9951719045639038],"type":"VEC2"},{"bufferView":15,"componentType":5123,"count":5520,"max":[4139],"min":[0],"type":"SCALAR"},{"bufferView":16,"componentType":5126,"count":4140,"max":[0.359375,0.0990309938788414,0.3265955150127411],"min":[-0.328125,-0.002785978140309453,-0.3073700964450836],"type":"VEC3"},{"bufferView":17,"componentType":5126,"count":4140,"max":[0.9464365243911743,0.99995356798172,1],"min":[-0.9464365243911743,-0.99995356798172,-1],"type":"VEC3"},{"bufferView":18,"componentType":5126,"count":4140,"max":[0.921875,1],"min":[0,0.078125],"type":"VEC2"},{"bufferView":19,"componentType":5123,"count":5520,"max":[4139],"min":[0],"type":"SCALAR"},{"bufferView":20,"componentType":5126,"count":5,"max":[3],"min":[0],"type":"SCALAR"},{"bufferView":21,"componentType":5126,"count":5,"max":[0,0.7071067690849304,0,0.7071067690849304],"min":[0,-1,0,-1],"type":"VEC4"}],"materials":[{"pbrMetallicRoughness":{"metallicFactor":0,"roughnessFactor":1,"baseColorTexture":{"index":0}},"alphaMode":"MASK","alphaCutoff":0.05,"doubleSided":true},{"pbrMetallicRoughness":{"metallicFactor":0,"roughnessFactor":1,"baseColorTexture":{"index":1}},"alphaMode":"MASK","alphaCutoff":0.05,"doubleSided":true},{"pbrMetallicRoughness":{"metallicFactor":0,"roughnessFactor":1},"alphaMode":"MASK","alphaCutoff":0.05,"doubleSided":true}],"textures":[{"sampler":0,"source":0,"name":"Tower.png"},{"sampler":1,"source":1,"name":"AsteroidSt.png"}],"samplers":[{"magFilter":9728,"minFilter":9728,"wrapS":33071,"wrapT":33071},{"magFilter":9728,"minFilter":9728,"wrapS":33071,"wrapT":33071}],"images":[{"mimeType":"image/png","uri":"data:image/png;base64,"},{"mimeType":"image/png","uri":"data:image/png;base64,"}],"meshes":[{"primitives":[{"mode":4,"attributes":{"POSITION":0,"NORMAL":1,"TEXCOORD_0":2},"indices":3,"material":0}]},{"primitives":[{"mode":4,"attributes":{"POSITION":4,"NORMAL":5,"TEXCOORD_0":6},"indices":7,"material":1}]},{"primitives":[{"mode":4,"attributes":{"POSITION":8,"NORMAL":9,"TEXCOORD_0":10},"indices":11,"material":1}]},{"primitives":[{"mode":4,"attributes":{"POSITION":12,"NORMAL":13,"TEXCOORD_0":14},"indices":15,"material":2}]},{"primitives":[{"mode":4,"attributes":{"POSITION":16,"NORMAL":17,"TEXCOORD_0":18},"indices":19,"material":1}]}],"animations":[{"name":"Planet_Ring","samplers":[{"input":20,"output":21,"interpolation":"LINEAR"}],"channels":[{"sampler":0,"target":{"node":5,"path":"rotation"}}]}]}