{"asset":{"version":"2.0","generator":"Blockbench 4.6.5 glTF exporter"},"scenes":[{"nodes":[18],"name":"blockbench_export"}],"scene":0,"nodes":[{"name":"cube","mesh":0},{"name":"Platform","mesh":1},{"rotation":[0,0,-2.1431029821212823e-17,1],"translation":[-0.015625,0.06921655002642613,0.014285818913039566],"name":"sphere","mesh":2},{"translation":[0,0.625,0],"name":"Planet","children":[2]},{"translation":[0,0.078125,-0.015625],"name":"torus2","mesh":3},{"translation":[0,-0.171875,-0.015625],"name":"torus","mesh":4},{"translation":[0,0.625,0.015625],"name":"Ring","children":[4,5]},{"name":"cube","mesh":5},{"name":"Up","children":[7]},{"rotation":[-0.6915130557822694,0,0,0.7223639620597556],"name":"cube","mesh":6},{"name":"Across","children":[9]},{"translation":[0,-0.015625000000000003,0.0125],"name":"Fence","children":[8,10]},{"translation":[0,-0.125,0],"name":"torus2","mesh":7},{"translation":[0,0.703125,0],"name":"Avatar1","children":[12]},{"translation":[0,-0.125,0],"name":"torus2","mesh":8},{"translation":[0,0.703125,0],"name":"Avatar2","children":[14]},{"translation":[-1.2266347333466992e-17,-0.078125,-0.015625],"name":"torus2","mesh":9},{"translation":[0,0.703125,0.015625],"name":"Avatar3","children":[16]},{"children":[0,1,3,6,11,13,15,17]}],"bufferViews":[{"buffer":0,"byteOffset":0,"byteLength":288,"target":34962,"byteStride":12},{"buffer":0,"byteOffset":288,"byteLength":288,"target":34962,"byteStride":12},{"buffer":0,"byteOffset":576,"byteLength":192,"target":34962,"byteStride":8},{"buffer":0,"byteOffset":768,"byteLength":72,"target":34963},{"buffer":0,"byteOffset":840,"byteLength":288,"target":34962,"byteStride":12},{"buffer":0,"byteOffset":1128,"byteLength":288,"target":34962,"byteStride":12},{"buffer":0,"byteOffset":1416,"byteLength":192,"target":34962,"byteStride":8},{"buffer":0,"byteOffset":1608,"byteLength":72,"target":34963},{"buffer":0,"byteOffset":1680,"byteLength":3168,"target":34962,"byteStride":12},{"buffer":0,"byteOffset":4848,"byteLength":3168,"target":34962,"byteStride":12},{"buffer":0,"byteOffset":8016,"byteLength":2112,"target":34962,"byteStride":8},{"buffer":0,"byteOffset":10128,"byteLength":720,"target":34963},{"buffer":0,"byteOffset":10848,"byteLength":3456,"target":34962,"byteStride":12},{"buffer":0,"byteOffset":14304,"byteLength":3456,"target":34962,"byteStride":12},{"buffer":0,"byteOffset":17760,"byteLength":2304,"target":34962,"byteStride":8},{"buffer":0,"byteOffset":20064,"byteLength":864,"target":34963},{"buffer":0,"byteOffset":20928,"byteLength":4608,"target":34962,"byteStride":12},{"buffer":0,"byteOffset":25536,"byteLength":4608,"target":34962,"byteStride":12},{"buffer":0,"byteOffset":30144,"byteLength":3072,"target":34962,"byteStride":8},{"buffer":0,"byteOffset":33216,"byteLength":1152,"target":34963},{"buffer":0,"byteOffset":34368,"byteLength":1152,"target":34962,"byteStride":12},{"buffer":0,"byteOffset":35520,"byteLength":1152,"target":34962,"byteStride":12},{"buffer":0,"byteOffset":36672,"byteLength":768,"target":34962,"byteStride":8},{"buffer":0,"byteOffset":37440,"byteLength":288,"target":34963},{"buffer":0,"byteOffset":37728,"byteLength":1152,"target":34962,"byteStride":12},{"buffer":0,"byteOffset":38880,"byteLength":1152,"target":34962,"byteStride":12},{"buffer":0,"byteOffset":40032,"byteLength":768,"target":34962,"byteStride":8},{"buffer":0,"byteOffset":40800,"byteLength":288,"target":34963},{"buffer":0,"byteOffset":41088,"byteLength":3456,"target":34962,"byteStride":12},{"buffer":0,"byteOffset":44544,"byteLength":3456,"target":34962,"byteStride":12},{"buffer":0,"byteOffset":48000,"byteLength":2304,"target":34962,"byteStride":8},{"buffer":0,"byteOffset":50304,"byteLength":864,"target":34963},{"buffer":0,"byteOffset":51168,"byteLength":3456,"target":34962,"byteStride":12},{"buffer":0,"byteOffset":54624,"byteLength":3456,"target":34962,"byteStride":12},{"buffer":0,"byteOffset":58080,"byteLength":2304,"target":34962,"byteStride":8},{"buffer":0,"byteOffset":60384,"byteLength":864,"target":34963},{"buffer":0,"byteOffset":61248,"byteLength":3456,"target":34962,"byteStride":12},{"buffer":0,"byteOffset":64704,"byteLength":3456,"target":34962,"byteStride":12},{"buffer":0,"byteOffset":68160,"byteLength":2304,"target":34962,"byteStride":8},{"buffer":0,"byteOffset":70464,"byteLength":864,"target":34963},{"buffer":0,"byteOffset":71328,"byteLength":20},{"buffer":0,"byteOffset":71348,"byteLength":80},{"buffer":0,"byteOffset":71428,"byteLength":4},{"buffer":0,"byteOffset":71432,"byteLength":12},{"buffer":0,"byteOffset":71444,"byteLength":20},{"buffer":0,"byteOffset":71464,"byteLength":80},{"buffer":0,"byteOffset":71544,"byteLength":20},{"buffer":0,"byteOffset":71564,"byteLength":80},{"buffer":0,"byteOffset":71644,"byteLength":20},{"buffer":0,"byteOffset":71664,"byteLength":80},{"buffer":0,"byteOffset":71744,"byteLength":16},{"buffer":0,"byteOffset":71760,"byteLength":64}],"buffers":[{"byteLength":71824,"uri":"data:application/octet-stream;base64,"}],"accessors":[{"bufferView":0,"componentType":5126,"count":24,"max":[0.078125,0.14374999701976776,0.09375],"min":[-0.078125,0,-0.0625],"type":"VEC3"},{"bufferView":1,"componentType":5126,"count":24,"max":[1,1,1],"min":[-1,-1,-1],"type":"VEC3"},{"bufferView":2,"componentType":5126,"count":24,"max":[0.7490234375,0.8115234375],"min":[0.2509765625,0.5634765625],"type":"VEC2"},{"bufferView":3,"componentType":5123,"count":36,"max":[23],"min":[0],"type":"SCALAR"},{"bufferView":4,"componentType":5126,"count":24,"max":[0.125,0.03125,0.13750000298023224],"min":[-0.125,0,-0.11249999701976776],"type":"VEC3"},{"bufferView":5,"componentType":5126,"count":24,"max":[1,1,1],"min":[-1,-1,-1],"type":"VEC3"},{"bufferView":6,"componentType":5126,"count":24,"max":[0.9990234375,0.9990234375],"min":[0.0009765625,0.7490234375],"type":"VEC2"},{"bufferView":7,"componentType":5123,"count":36,"max":[23],"min":[0],"type":"SCALAR"},{"bufferView":8,"componentType":5126,"count":264,"max":[0.140625,0.125,0.125],"min":[-0.109375,-0.125,-0.125],"type":"VEC3"},{"bufferView":9,"componentType":5126,"count":264,"max":[0.9659258127212524,0.9659258127212524,0.9659258127212524],"min":[-0.9659258127212524,-0.9659258127212524,-0.9659258127212524],"type":"VEC3"},{"bufferView":10,"componentType":5126,"count":264,"max":[0.6918314695358276,1],"min":[0,0.25],"type":"VEC2"},{"bufferView":11,"componentType":5123,"count":360,"max":[263],"min":[0],"type":"SCALAR"},{"bufferView":12,"componentType":5126,"count":288,"max":[0.7301883101463318,0.016727380454540253,0.7301883101463318],"min":[-0.7301883101463318,-0.016727380454540253,-0.6989383101463318],"type":"VEC3"},{"bufferView":13,"componentType":5126,"count":288,"max":[1,0.9898301959037781,1],"min":[-1,-0.9898301959037781,-1],"type":"VEC3"},{"bufferView":14,"componentType":5126,"count":288,"max":[0.59375,1],"min":[0,0.46875],"type":"VEC2"},{"bufferView":15,"componentType":5123,"count":432,"max":[287],"min":[0],"type":"SCALAR"},{"bufferView":16,"componentType":5126,"count":384,"max":[0.4375,0.270034521818161,0.453125],"min":[-0.4375,0.229965478181839,-0.421875],"type":"VEC3"},{"bufferView":17,"componentType":5126,"count":384,"max":[0.48378077149391174,0.995532751083374,0.48378077149391174],"min":[-0.48378077149391174,-0.995532751083374,-0.48378077149391174],"type":"VEC3"},{"bufferView":18,"componentType":5126,"count":384,"max":[0.33493751287460327,1],"min":[0,0.901437520980835],"type":"VEC2"},{"bufferView":19,"componentType":5123,"count":576,"max":[383],"min":[0],"type":"SCALAR"},{"bufferView":20,"componentType":5126,"count":96,"max":[0.125,0.16249999403953552,0.125],"min":[-0.125,0.03125,-0.125],"type":"VEC3"},{"bufferView":21,"componentType":5126,"count":96,"max":[1,1,1],"min":[-1,-1,-1],"type":"VEC3"},{"bufferView":22,"componentType":5126,"count":96,"max":[0,1],"min":[0,0.875],"type":"VEC2"},{"bufferView":23,"componentType":5123,"count":144,"max":[95],"min":[0],"type":"SCALAR"},{"bufferView":24,"componentType":5126,"count":96,"max":[0.125,0.125,0.15625],"min":[-0.125,-0.125,0.125],"type":"VEC3"},{"bufferView":25,"componentType":5126,"count":96,"max":[1,1,1],"min":[-1,-1,-1],"type":"VEC3"},{"bufferView":26,"componentType":5126,"count":96,"max":[0,1],"min":[0,0.8125],"type":"VEC2"},{"bufferView":27,"componentType":5123,"count":144,"max":[95],"min":[0],"type":"SCALAR"},{"bufferView":28,"componentType":5126,"count":288,"max":[0.2301882952451706,0.14172738790512085,0.2458132952451706],"min":[-0.2301882952451706,0.10827261954545975,-0.2145632952451706],"type":"VEC3"},{"bufferView":29,"componentType":5126,"count":288,"max":[1,0.9099069237709045,1],"min":[-1,-0.9099069237709045,-1],"type":"VEC3"},{"bufferView":30,"componentType":5126,"count":288,"max":[0.59375,1],"min":[0,0.46875],"type":"VEC2"},{"bufferView":31,"componentType":5123,"count":432,"max":[287],"min":[0],"type":"SCALAR"},{"bufferView":32,"componentType":5126,"count":288,"max":[0.5583133101463318,0.14172738790512085,0.5583133101463318],"min":[-0.5583133101463318,0.10827261954545975,-0.5270633101463318],"type":"VEC3"},{"bufferView":33,"componentType":5126,"count":288,"max":[1,0.9827905893325806,1],"min":[-1,-0.9827905893325806,-1],"type":"VEC3"},{"bufferView":34,"componentType":5126,"count":288,"max":[0.59375,1],"min":[0,0.46875],"type":"VEC2"},{"bufferView":35,"componentType":5123,"count":432,"max":[287],"min":[0],"type":"SCALAR"},{"bufferView":36,"componentType":5126,"count":288,"max":[0.8551883101463318,0.016727380454540253,0.8551883101463318],"min":[-0.8551883101463318,-0.016727380454540253,-0.8239383101463318],"type":"VEC3"},{"bufferView":37,"componentType":5126,"count":288,"max":[1,0.9925552010536194,1],"min":[-1,-0.9925552010536194,-1],"type":"VEC3"},{"bufferView":38,"componentType":5126,"count":288,"max":[0.59375,1],"min":[0,0.46875],"type":"VEC2"},{"bufferView":39,"componentType":5123,"count":432,"max":[287],"min":[0],"type":"SCALAR"},{"bufferView":40,"componentType":5126,"count":5,"max":[2],"min":[0],"type":"SCALAR"},{"bufferView":41,"componentType":5126,"count":5,"max":[0,0.8191520571708679,0,0.5735764503479004],"min":[0,-0.9848077297210693,0,-0.9848077297210693],"type":"VEC4"},{"bufferView":42,"componentType":5126,"count":1,"max":[0.5416666865348816],"min":[0.5416666865348816],"type":"SCALAR"},{"bufferView":43,"componentType":5126,"count":1,"max":[0,0.625,0.015625],"min":[0,0.625,0.015625],"type":"VEC3"},{"bufferView":44,"componentType":5126,"count":5,"max":[2],"min":[0],"type":"SCALAR"},{"bufferView":45,"componentType":5126,"count":5,"max":[0,0.7071067690849304,0,0.7071067690849304],"min":[0,-1,0,-1],"type":"VEC4"},{"bufferView":46,"componentType":5126,"count":5,"max":[2],"min":[0],"type":"SCALAR"},{"bufferView":47,"componentType":5126,"count":5,"max":[1,0.5,0.5,1],"min":[0,-0.5,-0.5,3.7493993930529855e-33],"type":"VEC4"},{"bufferView":48,"componentType":5126,"count":5,"max":[2],"min":[0],"type":"SCALAR"},{"bufferView":49,"componentType":5126,"count":5,"max":[0.5,0,0.5,1],"min":[-0.5,-1,-0.5,3.7493993930529855e-33],"type":"VEC4"},{"bufferView":50,"componentType":5126,"count":4,"max":[2],"min":[0.5],"type":"SCALAR"},{"bufferView":51,"componentType":5126,"count":4,"max":[6.123234262925839e-17,5.551115123125783e-17,0.7071067690849304,1],"min":[-0.7071067690849304,-0.7071067690849304,-6.123234262925839e-17,-1],"type":"VEC4"}],"materials":[{"pbrMetallicRoughness":{"metallicFactor":0,"roughnessFactor":1,"baseColorTexture":{"index":0}},"alphaMode":"MASK","alphaCutoff":0.05,"doubleSided":true},{"pbrMetallicRoughness":{"metallicFactor":0,"roughnessFactor":1,"baseColorTexture":{"index":1}},"alphaMode":"MASK","alphaCutoff":0.05,"doubleSided":true},{"pbrMetallicRoughness":{"metallicFactor":0,"roughnessFactor":1,"baseColorTexture":{"index":2}},"alphaMode":"MASK","alphaCutoff":0.05,"doubleSided":true},{"pbrMetallicRoughness":{"metallicFactor":0,"roughnessFactor":1,"baseColorTexture":{"index":3}},"alphaMode":"MASK","alphaCutoff":0.05,"doubleSided":true},{"pbrMetallicRoughness":{"metallicFactor":0,"roughnessFactor":1},"alphaMode":"MASK","alphaCutoff":0.05,"doubleSided":true}],"textures":[{"sampler":0,"source":0,"name":"Tower.png"},{"sampler":1,"source":1,"name":"Saturn.png"},{"sampler":2,"source":2,"name":"RingAv.png"},{"sampler":3,"source":3,"name":"Ring2Av.png"}],"samplers":[{"magFilter":9728,"minFilter":9728,"wrapS":33071,"wrapT":33071},{"magFilter":9728,"minFilter":9728,"wrapS":33071,"wrapT":33071},{"magFilter":9728,"minFilter":9728,"wrapS":33071,"wrapT":33071},{"magFilter":9728,"minFilter":9728,"wrapS":33071,"wrapT":33071}],"images":[{"mimeType":"image/png","uri":"data:image/png;base64,"},{"mimeType":"image/png","uri":"data:image/png;base64,"},{"mimeType":"image/png","uri":"data:image/png;base64,"},{"mimeType":"image/png","uri":"data:image/png;base64,"}],"meshes":[{"primitives":[{"mode":4,"attributes":{"POSITION":0,"NORMAL":1,"TEXCOORD_0":2},"indices":3,"material":0}]},{"primitives":[{"mode":4,"attributes":{"POSITION":4,"NORMAL":5,"TEXCOORD_0":6},"indices":7,"material":0}]},{"primitives":[{"mode":4,"attributes":{"POSITION":8,"NORMAL":9,"TEXCOORD_0":10},"indices":11,"material":1}]},{"primitives":[{"mode":4,"attributes":{"POSITION":12,"NORMAL":13,"TEXCOORD_0":14},"indices":15,"material":2}]},{"primitives":[{"mode":4,"attributes":{"POSITION":16,"NORMAL":17,"TEXCOORD_0":18},"indices":19,"material":2}]},{"primitives":[{"mode":4,"attributes":{"POSITION":20,"NORMAL":21,"TEXCOORD_0":22},"indices":23,"material":0}]},{"primitives":[{"mode":4,"attributes":{"POSITION":24,"NORMAL":25,"TEXCOORD_0":26},"indices":27,"material":0}]},{"primitives":[{"mode":4,"attributes":{"POSITION":28,"NORMAL":29,"TEXCOORD_0":30},"indices":31,"material":3}]},{"primitives":[{"mode":4,"attributes":{"POSITION":32,"NORMAL":33,"TEXCOORD_0":34},"indices":35,"material":3}]},{"primitives":[{"mode":4,"attributes":{"POSITION":36,"NORMAL":37,"TEXCOORD_0":38},"indices":39,"material":4}]}],"animations":[{"name":"Planet_Ring","samplers":[{"input":40,"output":41,"interpolation":"LINEAR"},{"input":42,"output":43,"interpolation":"LINEAR"},{"input":44,"output":45,"interpolation":"LINEAR"},{"input":46,"output":47,"interpolation":"LINEAR"},{"input":48,"output":49,"interpolation":"LINEAR"},{"input":50,"output":51,"interpolation":"LINEAR"}],"channels":[{"sampler":0,"target":{"node":3,"path":"rotation"}},{"sampler":1,"target":{"node":3,"path":"translation"}},{"sampler":2,"target":{"node":6,"path":"rotation"}},{"sampler":3,"target":{"node":13,"path":"rotation"}},{"sampler":4,"target":{"node":15,"path":"rotation"}},{"sampler":5,"target":{"node":17,"path":"rotation"}}]}]}