{"asset":{"version":"2.0","generator":"Blockbench 4.7.0 glTF exporter"},"scenes":[{"nodes":[17],"name":"blockbench_export"}],"scene":0,"nodes":[{"name":"Platform","mesh":0},{"name":"cube","mesh":1},{"name":"Platform","mesh":2},{"translation":[0,0,-0.015625],"name":"cube","mesh":3},{"name":"Up","children":[3]},{"rotation":[-0.7071067811865475,0,0,0.7071067811865476],"translation":[0,0,-0.015625],"name":"cube","mesh":4},{"name":"Across","children":[5]},{"translation":[0,-0.015625000000000003,0.0125],"name":"Fence","children":[4,6]},{"rotation":[0,0,-1,6.123233995736766e-17],"name":"cube","mesh":5},{"name":"cube","mesh":6},{"translation":[0,1.1102230246251565e-16,0],"name":"F1","children":[8,9]},{"rotation":[3.907892884921763e-17,-0.7040147244559691,3.840275642561867e-17,0.7101853756232847],"name":"cube","mesh":7},{"rotation":[-0.7040147244559782,-2.7390302487890534e-16,0.7101853756232757,3.5412798013220566e-16],"name":"cube","mesh":8},{"translation":[0,1.1102230246251565e-16,0],"name":"F2","children":[11,12]},{"translation":[0,0.6406249999999999,0],"name":"Flare","children":[10,13]},{"rotation":[0,0,-2.1431029821212823e-17,1],"translation":[-0.0017060960927902102,0.043749999999999845,-0.012553764771962642],"name":"sphere","mesh":9},{"translation":[0,0.6129665500264264,0.014285818913039566],"name":"Star","children":[15]},{"children":[0,1,2,7,14,16]}],"bufferViews":[{"buffer":0,"byteOffset":0,"byteLength":288,"target":34962,"byteStride":12},{"buffer":0,"byteOffset":288,"byteLength":288,"target":34962,"byteStride":12},{"buffer":0,"byteOffset":576,"byteLength":192,"target":34962,"byteStride":8},{"buffer":0,"byteOffset":768,"byteLength":72,"target":34963},{"buffer":0,"byteOffset":840,"byteLength":288,"target":34962,"byteStride":12},{"buffer":0,"byteOffset":1128,"byteLength":288,"target":34962,"byteStride":12},{"buffer":0,"byteOffset":1416,"byteLength":192,"target":34962,"byteStride":8},{"buffer":0,"byteOffset":1608,"byteLength":72,"target":34963},{"buffer":0,"byteOffset":1680,"byteLength":288,"target":34962,"byteStride":12},{"buffer":0,"byteOffset":1968,"byteLength":288,"target":34962,"byteStride":12},{"buffer":0,"byteOffset":2256,"byteLength":192,"target":34962,"byteStride":8},{"buffer":0,"byteOffset":2448,"byteLength":72,"target":34963},{"buffer":0,"byteOffset":2520,"byteLength":1152,"target":34962,"byteStride":12},{"buffer":0,"byteOffset":3672,"byteLength":1152,"target":34962,"byteStride":12},{"buffer":0,"byteOffset":4824,"byteLength":768,"target":34962,"byteStride":8},{"buffer":0,"byteOffset":5592,"byteLength":288,"target":34963},{"buffer":0,"byteOffset":5880,"byteLength":1152,"target":34962,"byteStride":12},{"buffer":0,"byteOffset":7032,"byteLength":1152,"target":34962,"byteStride":12},{"buffer":0,"byteOffset":8184,"byteLength":768,"target":34962,"byteStride":8},{"buffer":0,"byteOffset":8952,"byteLength":288,"target":34963},{"buffer":0,"byteOffset":9240,"byteLength":864,"target":34962,"byteStride":12},{"buffer":0,"byteOffset":10104,"byteLength":864,"target":34962,"byteStride":12},{"buffer":0,"byteOffset":10968,"byteLength":576,"target":34962,"byteStride":8},{"buffer":0,"byteOffset":11544,"byteLength":216,"target":34963},{"buffer":0,"byteOffset":11760,"byteLength":864,"target":34962,"byteStride":12},{"buffer":0,"byteOffset":12624,"byteLength":864,"target":34962,"byteStride":12},{"buffer":0,"byteOffset":13488,"byteLength":576,"target":34962,"byteStride":8},{"buffer":0,"byteOffset":14064,"byteLength":216,"target":34963},{"buffer":0,"byteOffset":14280,"byteLength":864,"target":34962,"byteStride":12},{"buffer":0,"byteOffset":15144,"byteLength":864,"target":34962,"byteStride":12},{"buffer":0,"byteOffset":16008,"byteLength":576,"target":34962,"byteStride":8},{"buffer":0,"byteOffset":16584,"byteLength":216,"target":34963},{"buffer":0,"byteOffset":16800,"byteLength":864,"target":34962,"byteStride":12},{"buffer":0,"byteOffset":17664,"byteLength":864,"target":34962,"byteStride":12},{"buffer":0,"byteOffset":18528,"byteLength":576,"target":34962,"byteStride":8},{"buffer":0,"byteOffset":19104,"byteLength":216,"target":34963},{"buffer":0,"byteOffset":19320,"byteLength":3168,"target":34962,"byteStride":12},{"buffer":0,"byteOffset":22488,"byteLength":3168,"target":34962,"byteStride":12},{"buffer":0,"byteOffset":25656,"byteLength":2112,"target":34962,"byteStride":8},{"buffer":0,"byteOffset":27768,"byteLength":720,"target":34963},{"buffer":0,"byteOffset":28488,"byteLength":20},{"buffer":0,"byteOffset":28508,"byteLength":80},{"buffer":0,"byteOffset":28588,"byteLength":20},{"buffer":0,"byteOffset":28608,"byteLength":80},{"buffer":0,"byteOffset":28688,"byteLength":20},{"buffer":0,"byteOffset":28708,"byteLength":60},{"buffer":0,"byteOffset":28768,"byteLength":20},{"buffer":0,"byteOffset":28788,"byteLength":80},{"buffer":0,"byteOffset":28868,"byteLength":20},{"buffer":0,"byteOffset":28888,"byteLength":60},{"buffer":0,"byteOffset":28948,"byteLength":20},{"buffer":0,"byteOffset":28968,"byteLength":80}],"buffers":[{"byteLength":29048,"uri":"data:application/octet-stream;base64,"}],"accessors":[{"bufferView":0,"componentType":5126,"count":24,"max":[0.125,0.03125,0.12187500298023224],"min":[-0.125,0,-0.12812499701976776],"type":"VEC3"},{"bufferView":1,"componentType":5126,"count":24,"max":[1,1,1],"min":[-1,-1,-1],"type":"VEC3"},{"bufferView":2,"componentType":5126,"count":24,"max":[0.7490234375,0.3759765625],"min":[-0.2490234375,0.1259765625],"type":"VEC2"},{"bufferView":3,"componentType":5123,"count":36,"max":[23],"min":[0],"type":"SCALAR"},{"bufferView":4,"componentType":5126,"count":24,"max":[0.078125,0.30000001192092896,0.078125],"min":[-0.078125,0.03125,-0.078125],"type":"VEC3"},{"bufferView":5,"componentType":5126,"count":24,"max":[1,1,1],"min":[-1,-1,-1],"type":"VEC3"},{"bufferView":6,"componentType":5126,"count":24,"max":[0.4990234375,0.3740234375],"min":[0.0009765625,0.0009765625],"type":"VEC2"},{"bufferView":7,"componentType":5123,"count":36,"max":[23],"min":[0],"type":"SCALAR"},{"bufferView":8,"componentType":5126,"count":24,"max":[0.125,0.328125,0.12187500298023224],"min":[-0.125,0.296875,-0.12812499701976776],"type":"VEC3"},{"bufferView":9,"componentType":5126,"count":24,"max":[1,1,1],"min":[-1,-1,-1],"type":"VEC3"},{"bufferView":10,"componentType":5126,"count":24,"max":[0.7490234375,0.3759765625],"min":[-0.2490234375,0.1259765625],"type":"VEC2"},{"bufferView":11,"componentType":5123,"count":36,"max":[23],"min":[0],"type":"SCALAR"},{"bufferView":12,"componentType":5126,"count":96,"max":[0.125,0.16249999403953552,0.125],"min":[-0.125,0.03125,-0.125],"type":"VEC3"},{"bufferView":13,"componentType":5126,"count":96,"max":[1,1,1],"min":[-1,-1,-1],"type":"VEC3"},{"bufferView":14,"componentType":5126,"count":96,"max":[0.40625,0.3515625],"min":[0,0],"type":"VEC2"},{"bufferView":15,"componentType":5123,"count":144,"max":[95],"min":[0],"type":"SCALAR"},{"bufferView":16,"componentType":5126,"count":96,"max":[0.125,0.125,0.15625],"min":[-0.125,-0.125,0.125],"type":"VEC3"},{"bufferView":17,"componentType":5126,"count":96,"max":[1,1,1],"min":[-1,-1,-1],"type":"VEC3"},{"bufferView":18,"componentType":5126,"count":96,"max":[0,0.3671875],"min":[0,0],"type":"VEC2"},{"bufferView":19,"componentType":5123,"count":144,"max":[95],"min":[0],"type":"SCALAR"},{"bufferView":20,"componentType":5126,"count":72,"max":[0.3812499940395355,-0.00937500037252903,0.14475157856941223],"min":[0.21391561627388,-0.015625,-0.14475157856941223],"type":"VEC3"},{"bufferView":21,"componentType":5126,"count":72,"max":[0.8358001112937927,1,0.801564633846283],"min":[-0.8970411419868469,-1,-0.801564633846283],"type":"VEC3"},{"bufferView":22,"componentType":5126,"count":72,"max":[0.5869125127792358,0.625],"min":[0,0],"type":"VEC2"},{"bufferView":23,"componentType":5123,"count":108,"max":[71],"min":[0],"type":"SCALAR"},{"bufferView":24,"componentType":5126,"count":72,"max":[0.3812499940395355,0.0062500000931322575,0.14475157856941223],"min":[0.21391561627388,0,-0.14475157856941223],"type":"VEC3"},{"bufferView":25,"componentType":5126,"count":72,"max":[0.8358001112937927,1,0.801564633846283],"min":[-0.8970411419868469,-1,-0.801564633846283],"type":"VEC3"},{"bufferView":26,"componentType":5126,"count":72,"max":[0.5869125127792358,0.625],"min":[0,0],"type":"VEC2"},{"bufferView":27,"componentType":5123,"count":108,"max":[71],"min":[0],"type":"SCALAR"},{"bufferView":28,"componentType":5126,"count":72,"max":[0.3812499940395355,0.0062500000931322575,0.14475157856941223],"min":[0.21391561627388,0,-0.14475157856941223],"type":"VEC3"},{"bufferView":29,"componentType":5126,"count":72,"max":[0.8358001112937927,1,0.801564633846283],"min":[-0.8970411419868469,-1,-0.801564633846283],"type":"VEC3"},{"bufferView":30,"componentType":5126,"count":72,"max":[0.5869125127792358,0.625],"min":[0,0],"type":"VEC2"},{"bufferView":31,"componentType":5123,"count":108,"max":[71],"min":[0],"type":"SCALAR"},{"bufferView":32,"componentType":5126,"count":72,"max":[0.3812499940395355,-0.00937500037252903,0.14475157856941223],"min":[0.21391561627388,-0.015625,-0.14475157856941223],"type":"VEC3"},{"bufferView":33,"componentType":5126,"count":72,"max":[0.8358001112937927,1,0.801564633846283],"min":[-0.8970411419868469,-1,-0.801564633846283],"type":"VEC3"},{"bufferView":34,"componentType":5126,"count":72,"max":[0.5869125127792358,0.625],"min":[0,0],"type":"VEC2"},{"bufferView":35,"componentType":5123,"count":108,"max":[71],"min":[0],"type":"SCALAR"},{"bufferView":36,"componentType":5126,"count":264,"max":[0.25312501192092896,0.24375000596046448,0.25],"min":[-0.25312501192092896,-0.26249998807907104,-0.2562499940395355],"type":"VEC3"},{"bufferView":37,"componentType":5126,"count":264,"max":[0.9659258127212524,0.9659258127212524,0.9659258127212524],"min":[-0.9659258127212524,-0.9659258127212524,-0.9659258127212524],"type":"VEC3"},{"bufferView":38,"componentType":5126,"count":264,"max":[1.125,1.1875],"min":[0,0],"type":"VEC2"},{"bufferView":39,"componentType":5123,"count":360,"max":[263],"min":[0],"type":"SCALAR"},{"bufferView":40,"componentType":5126,"count":5,"max":[2],"min":[0],"type":"SCALAR"},{"bufferView":41,"componentType":5126,"count":5,"max":[0,0.8191520571708679,0,0.5735764503479004],"min":[0,-0.9848077297210693,0,-0.9848077297210693],"type":"VEC4"},{"bufferView":42,"componentType":5126,"count":5,"max":[2],"min":[0],"type":"SCALAR"},{"bufferView":43,"componentType":5126,"count":5,"max":[0,0.7071067690849304,8.659560603426554e-17,0.7071067690849304],"min":[-0.7071067690849304,-0.7071067690849304,-0.7071067690849304,-0.7071067690849304],"type":"VEC4"},{"bufferView":44,"componentType":5126,"count":5,"max":[2],"min":[0],"type":"SCALAR"},{"bufferView":45,"componentType":5126,"count":5,"max":[1.5,1.5,1.5],"min":[0,0,0],"type":"VEC3"},{"bufferView":46,"componentType":5126,"count":5,"max":[2],"min":[0],"type":"SCALAR"},{"bufferView":47,"componentType":5126,"count":5,"max":[0,0.7071067690849304,0.7071067690849304,0.7071067690849304],"min":[-0.7071067690849304,-0.7071067690849304,-8.659560603426554e-17,-0.7071067690849304],"type":"VEC4"},{"bufferView":48,"componentType":5126,"count":5,"max":[2],"min":[0],"type":"SCALAR"},{"bufferView":49,"componentType":5126,"count":5,"max":[1.5,1.5,1.5],"min":[0,0,0],"type":"VEC3"},{"bufferView":50,"componentType":5126,"count":5,"max":[2],"min":[0],"type":"SCALAR"},{"bufferView":51,"componentType":5126,"count":5,"max":[0,0.8191520571708679,0,0.5735764503479004],"min":[0,-0.9848077297210693,0,-0.9848077297210693],"type":"VEC4"}],"materials":[{"pbrMetallicRoughness":{"metallicFactor":0,"roughnessFactor":1,"baseColorTexture":{"index":0}},"alphaMode":"MASK","alphaCutoff":0.05,"doubleSided":true},{"pbrMetallicRoughness":{"metallicFactor":0,"roughnessFactor":1,"baseColorTexture":{"index":1}},"alphaMode":"MASK","alphaCutoff":0.05,"doubleSided":true},{"pbrMetallicRoughness":{"metallicFactor":0,"roughnessFactor":1,"baseColorTexture":{"index":2}},"alphaMode":"MASK","alphaCutoff":0.05,"doubleSided":true}],"textures":[{"sampler":0,"source":0,"name":"Solar.png"},{"sampler":1,"source":1,"name":"Boomerang2.png"},{"sampler":2,"source":2,"name":"RedSG.png"}],"samplers":[{"magFilter":9728,"minFilter":9728,"wrapS":33071,"wrapT":33071},{"magFilter":9728,"minFilter":9728,"wrapS":33071,"wrapT":33071},{"magFilter":9728,"minFilter":9728,"wrapS":33071,"wrapT":33071}],"images":[{"mimeType":"image/png","uri":"data:image/png;base64,"},{"mimeType":"image/png","uri":"data:image/png;base64,"},{"mimeType":"image/png","uri":"data:image/png;base64,"}],"meshes":[{"primitives":[{"mode":4,"attributes":{"POSITION":0,"NORMAL":1,"TEXCOORD_0":2},"indices":3,"material":0}]},{"primitives":[{"mode":4,"attributes":{"POSITION":4,"NORMAL":5,"TEXCOORD_0":6},"indices":7,"material":0}]},{"primitives":[{"mode":4,"attributes":{"POSITION":8,"NORMAL":9,"TEXCOORD_0":10},"indices":11,"material":0}]},{"primitives":[{"mode":4,"attributes":{"POSITION":12,"NORMAL":13,"TEXCOORD_0":14},"indices":15,"material":0}]},{"primitives":[{"mode":4,"attributes":{"POSITION":16,"NORMAL":17,"TEXCOORD_0":18},"indices":19,"material":0}]},{"primitives":[{"mode":4,"attributes":{"POSITION":20,"NORMAL":21,"TEXCOORD_0":22},"indices":23,"material":1}]},{"primitives":[{"mode":4,"attributes":{"POSITION":24,"NORMAL":25,"TEXCOORD_0":26},"indices":27,"material":1}]},{"primitives":[{"mode":4,"attributes":{"POSITION":28,"NORMAL":29,"TEXCOORD_0":30},"indices":31,"material":1}]},{"primitives":[{"mode":4,"attributes":{"POSITION":32,"NORMAL":33,"TEXCOORD_0":34},"indices":35,"material":1}]},{"primitives":[{"mode":4,"attributes":{"POSITION":36,"NORMAL":37,"TEXCOORD_0":38},"indices":39,"material":2}]}],"animations":[{"name":"Star","samplers":[{"input":40,"output":41,"interpolation":"LINEAR"}],"channels":[{"sampler":0,"target":{"node":16,"path":"rotation"}}]},{"name":"Flares","samplers":[{"input":42,"output":43,"interpolation":"LINEAR"},{"input":44,"output":45,"interpolation":"LINEAR"},{"input":46,"output":47,"interpolation":"LINEAR"},{"input":48,"output":49,"interpolation":"LINEAR"},{"input":50,"output":51,"interpolation":"LINEAR"}],"channels":[{"sampler":0,"target":{"node":10,"path":"rotation"}},{"sampler":1,"target":{"node":10,"path":"scale"}},{"sampler":2,"target":{"node":13,"path":"rotation"}},{"sampler":3,"target":{"node":13,"path":"scale"}},{"sampler":4,"target":{"node":16,"path":"rotation"}}]}]}