{"asset":{"version":"2.0","generator":"Blockbench 4.6.5 glTF exporter"},"scenes":[{"nodes":[19],"name":"blockbench_export"}],"scene":0,"nodes":[{"name":"cube","mesh":0},{"name":"Platform","mesh":1},{"rotation":[0,0,-2.1431029821212823e-17,1],"translation":[0.017660324662813004,0.12780307664684476,0.07083353619545213],"name":"sphere","mesh":2},{"rotation":[-0.21643961393810288,0,0,0.9762960071199334],"translation":[0,0.375,0],"name":"Planet","children":[2]},{"translation":[0,0.125,0],"name":"torus2","mesh":3},{"name":"torus","mesh":4},{"translation":[0,0.125,0],"name":"torus2","mesh":5},{"translation":[0,0.375,0],"name":"Ring","children":[4,5,6]},{"name":"cube","mesh":6},{"translation":[0,0,0.24999999999999994],"name":"cube","mesh":7},{"name":"cube","mesh":8},{"name":"cube","mesh":9},{"name":"Up","children":[8,9,10,11]},{"rotation":[-0.7071067811865475,0,0,0.7071067811865476],"name":"cube","mesh":10},{"rotation":[-0.7071067811865475,0,0,0.7071067811865476],"name":"cube","mesh":11},{"rotation":[-0.5000000000000022,-0.4999999999999976,-0.5000000000000023,0.4999999999999977],"name":"cube","mesh":12},{"rotation":[-0.5000000000000022,-0.4999999999999976,-0.5000000000000023,0.4999999999999977],"name":"cube","mesh":13},{"name":"Across","children":[13,14,15,16]},{"translation":[0,-3.469446951953614e-18,0.0125],"name":"Fence","children":[12,17]},{"children":[0,1,3,7,18]}],"bufferViews":[{"buffer":0,"byteOffset":0,"byteLength":288,"target":34962,"byteStride":12},{"buffer":0,"byteOffset":288,"byteLength":288,"target":34962,"byteStride":12},{"buffer":0,"byteOffset":576,"byteLength":192,"target":34962,"byteStride":8},{"buffer":0,"byteOffset":768,"byteLength":72,"target":34963},{"buffer":0,"byteOffset":840,"byteLength":288,"target":34962,"byteStride":12},{"buffer":0,"byteOffset":1128,"byteLength":288,"target":34962,"byteStride":12},{"buffer":0,"byteOffset":1416,"byteLength":192,"target":34962,"byteStride":8},{"buffer":0,"byteOffset":1608,"byteLength":72,"target":34963},{"buffer":0,"byteOffset":1680,"byteLength":3168,"target":34962,"byteStride":12},{"buffer":0,"byteOffset":4848,"byteLength":3168,"target":34962,"byteStride":12},{"buffer":0,"byteOffset":8016,"byteLength":2112,"target":34962,"byteStride":8},{"buffer":0,"byteOffset":10128,"byteLength":720,"target":34963},{"buffer":0,"byteOffset":10848,"byteLength":3456,"target":34962,"byteStride":12},{"buffer":0,"byteOffset":14304,"byteLength":3456,"target":34962,"byteStride":12},{"buffer":0,"byteOffset":17760,"byteLength":2304,"target":34962,"byteStride":8},{"buffer":0,"byteOffset":20064,"byteLength":864,"target":34963},{"buffer":0,"byteOffset":20928,"byteLength":4608,"target":34962,"byteStride":12},{"buffer":0,"byteOffset":25536,"byteLength":4608,"target":34962,"byteStride":12},{"buffer":0,"byteOffset":30144,"byteLength":3072,"target":34962,"byteStride":8},{"buffer":0,"byteOffset":33216,"byteLength":1152,"target":34963},{"buffer":0,"byteOffset":34368,"byteLength":3456,"target":34962,"byteStride":12},{"buffer":0,"byteOffset":37824,"byteLength":3456,"target":34962,"byteStride":12},{"buffer":0,"byteOffset":41280,"byteLength":2304,"target":34962,"byteStride":8},{"buffer":0,"byteOffset":43584,"byteLength":864,"target":34963},{"buffer":0,"byteOffset":44448,"byteLength":288,"target":34962,"byteStride":12},{"buffer":0,"byteOffset":44736,"byteLength":288,"target":34962,"byteStride":12},{"buffer":0,"byteOffset":45024,"byteLength":192,"target":34962,"byteStride":8},{"buffer":0,"byteOffset":45216,"byteLength":72,"target":34963},{"buffer":0,"byteOffset":45288,"byteLength":288,"target":34962,"byteStride":12},{"buffer":0,"byteOffset":45576,"byteLength":288,"target":34962,"byteStride":12},{"buffer":0,"byteOffset":45864,"byteLength":192,"target":34962,"byteStride":8},{"buffer":0,"byteOffset":46056,"byteLength":72,"target":34963},{"buffer":0,"byteOffset":46128,"byteLength":288,"target":34962,"byteStride":12},{"buffer":0,"byteOffset":46416,"byteLength":288,"target":34962,"byteStride":12},{"buffer":0,"byteOffset":46704,"byteLength":192,"target":34962,"byteStride":8},{"buffer":0,"byteOffset":46896,"byteLength":72,"target":34963},{"buffer":0,"byteOffset":46968,"byteLength":288,"target":34962,"byteStride":12},{"buffer":0,"byteOffset":47256,"byteLength":288,"target":34962,"byteStride":12},{"buffer":0,"byteOffset":47544,"byteLength":192,"target":34962,"byteStride":8},{"buffer":0,"byteOffset":47736,"byteLength":72,"target":34963},{"buffer":0,"byteOffset":47808,"byteLength":288,"target":34962,"byteStride":12},{"buffer":0,"byteOffset":48096,"byteLength":288,"target":34962,"byteStride":12},{"buffer":0,"byteOffset":48384,"byteLength":192,"target":34962,"byteStride":8},{"buffer":0,"byteOffset":48576,"byteLength":72,"target":34963},{"buffer":0,"byteOffset":48648,"byteLength":288,"target":34962,"byteStride":12},{"buffer":0,"byteOffset":48936,"byteLength":288,"target":34962,"byteStride":12},{"buffer":0,"byteOffset":49224,"byteLength":192,"target":34962,"byteStride":8},{"buffer":0,"byteOffset":49416,"byteLength":72,"target":34963},{"buffer":0,"byteOffset":49488,"byteLength":288,"target":34962,"byteStride":12},{"buffer":0,"byteOffset":49776,"byteLength":288,"target":34962,"byteStride":12},{"buffer":0,"byteOffset":50064,"byteLength":192,"target":34962,"byteStride":8},{"buffer":0,"byteOffset":50256,"byteLength":72,"target":34963},{"buffer":0,"byteOffset":50328,"byteLength":288,"target":34962,"byteStride":12},{"buffer":0,"byteOffset":50616,"byteLength":288,"target":34962,"byteStride":12},{"buffer":0,"byteOffset":50904,"byteLength":192,"target":34962,"byteStride":8},{"buffer":0,"byteOffset":51096,"byteLength":72,"target":34963},{"buffer":0,"byteOffset":51168,"byteLength":24},{"buffer":0,"byteOffset":51192,"byteLength":96},{"buffer":0,"byteOffset":51288,"byteLength":28},{"buffer":0,"byteOffset":51316,"byteLength":112}],"buffers":[{"byteLength":51428,"uri":"data:application/octet-stream;base64,"}],"accessors":[{"bufferView":0,"componentType":5126,"count":24,"max":[0.078125,0.37812501192092896,0.09375],"min":[-0.078125,0,-0.0625],"type":"VEC3"},{"bufferView":1,"componentType":5126,"count":24,"max":[1,1,1],"min":[-1,-1,-1],"type":"VEC3"},{"bufferView":2,"componentType":5126,"count":24,"max":[0.7490234375,0.6865234375],"min":[0.2509765625,0.1884765625],"type":"VEC2"},{"bufferView":3,"componentType":5123,"count":36,"max":[23],"min":[0],"type":"SCALAR"},{"bufferView":4,"componentType":5126,"count":24,"max":[0.125,0.03125,0.13750000298023224],"min":[-0.125,0,-0.11249999701976776],"type":"VEC3"},{"bufferView":5,"componentType":5126,"count":24,"max":[1,1,1],"min":[-1,-1,-1],"type":"VEC3"},{"bufferView":6,"componentType":5126,"count":24,"max":[0.9990234375,0.9990234375],"min":[0.0009765625,0.7490234375],"type":"VEC2"},{"bufferView":7,"componentType":5123,"count":36,"max":[23],"min":[0],"type":"SCALAR"},{"bufferView":8,"componentType":5126,"count":264,"max":[0.109375,0.125,0.125],"min":[-0.140625,-0.125,-0.125],"type":"VEC3"},{"bufferView":9,"componentType":5126,"count":264,"max":[0.9659258127212524,0.9659258127212524,0.9659258127212524],"min":[-0.9659258127212524,-0.9659258127212524,-0.9659258127212524],"type":"VEC3"},{"bufferView":10,"componentType":5126,"count":264,"max":[0.6918314695358276,1],"min":[0,0.25],"type":"VEC2"},{"bufferView":11,"componentType":5123,"count":360,"max":[263],"min":[0],"type":"SCALAR"},{"bufferView":12,"componentType":5126,"count":288,"max":[0.2458132952451706,0.016727380454540253,0.2614382803440094],"min":[-0.2458132952451706,-0.016727380454540253,-0.2301882952451706],"type":"VEC3"},{"bufferView":13,"componentType":5126,"count":288,"max":[1,0.9196985363960266,1],"min":[-1,-0.9196985363960266,-1],"type":"VEC3"},{"bufferView":14,"componentType":5126,"count":288,"max":[0.59375,1],"min":[0,0.46875],"type":"VEC2"},{"bufferView":15,"componentType":5123,"count":432,"max":[287],"min":[0],"type":"SCALAR"},{"bufferView":16,"componentType":5126,"count":384,"max":[0.46875,0.145034521818161,0.46875],"min":[-0.46875,0.10496547818183899,-0.4375],"type":"VEC3"},{"bufferView":17,"componentType":5126,"count":384,"max":[0.4584971070289612,0.9961051344871521,0.47084805369377136],"min":[-0.4584971070289612,-0.9961051344871521,-0.47084805369377136],"type":"VEC3"},{"bufferView":18,"componentType":5126,"count":384,"max":[0.33493751287460327,1],"min":[0,0.901437520980835],"type":"VEC2"},{"bufferView":19,"componentType":5123,"count":576,"max":[383],"min":[0],"type":"SCALAR"},{"bufferView":20,"componentType":5126,"count":288,"max":[0.6051883101463318,0.016727380454540253,0.6051883101463318],"min":[-0.6051883101463318,-0.016727380454540253,-0.5739383101463318],"type":"VEC3"},{"bufferView":21,"componentType":5126,"count":288,"max":[1,0.9852970838546753,1],"min":[-1,-0.9852970838546753,-1],"type":"VEC3"},{"bufferView":22,"componentType":5126,"count":288,"max":[0.59375,1],"min":[0,0.46875],"type":"VEC2"},{"bufferView":23,"componentType":5123,"count":432,"max":[287],"min":[0],"type":"SCALAR"},{"bufferView":24,"componentType":5126,"count":24,"max":[-0.09375,0.16249999403953552,-0.09375],"min":[-0.125,0.03125,-0.125],"type":"VEC3"},{"bufferView":25,"componentType":5126,"count":24,"max":[1,1,1],"min":[-1,-1,-1],"type":"VEC3"},{"bufferView":26,"componentType":5126,"count":24,"max":[0.0009765625,1.0009765625],"min":[-0.0009765625,0.8759765625],"type":"VEC2"},{"bufferView":27,"componentType":5123,"count":36,"max":[23],"min":[0],"type":"SCALAR"},{"bufferView":28,"componentType":5126,"count":24,"max":[-0.09375,0.16249999403953552,-0.125],"min":[-0.125,0.03125,-0.15625],"type":"VEC3"},{"bufferView":29,"componentType":5126,"count":24,"max":[1,1,1],"min":[-1,-1,-1],"type":"VEC3"},{"bufferView":30,"componentType":5126,"count":24,"max":[0.0009765625,1.0009765625],"min":[-0.0009765625,0.8759765625],"type":"VEC2"},{"bufferView":31,"componentType":5123,"count":36,"max":[23],"min":[0],"type":"SCALAR"},{"bufferView":32,"componentType":5126,"count":24,"max":[0.125,0.16249999403953552,0.125],"min":[0.09375,0.03125,0.09375],"type":"VEC3"},{"bufferView":33,"componentType":5126,"count":24,"max":[1,1,1],"min":[-1,-1,-1],"type":"VEC3"},{"bufferView":34,"componentType":5126,"count":24,"max":[0.0009765625,1.0009765625],"min":[-0.0009765625,0.8759765625],"type":"VEC2"},{"bufferView":35,"componentType":5123,"count":36,"max":[23],"min":[0],"type":"SCALAR"},{"bufferView":36,"componentType":5126,"count":24,"max":[0.125,0.16249999403953552,-0.09375],"min":[0.09375,0.03125,-0.125],"type":"VEC3"},{"bufferView":37,"componentType":5126,"count":24,"max":[1,1,1],"min":[-1,-1,-1],"type":"VEC3"},{"bufferView":38,"componentType":5126,"count":24,"max":[0.0009765625,1.0009765625],"min":[-0.0009765625,0.8759765625],"type":"VEC2"},{"bufferView":39,"componentType":5123,"count":36,"max":[23],"min":[0],"type":"SCALAR"},{"bufferView":40,"componentType":5126,"count":24,"max":[-0.09375,0.10000000149011612,0.15625],"min":[-0.125,-0.09375,0.125],"type":"VEC3"},{"bufferView":41,"componentType":5126,"count":24,"max":[1,1,1],"min":[-1,-1,-1],"type":"VEC3"},{"bufferView":42,"componentType":5126,"count":24,"max":[0.0009765625,1.0009765625],"min":[-0.0009765625,0.8134765625],"type":"VEC2"},{"bufferView":43,"componentType":5123,"count":36,"max":[23],"min":[0],"type":"SCALAR"},{"bufferView":44,"componentType":5126,"count":24,"max":[0.125,0.10000000149011612,0.15625],"min":[0.09375,-0.09375,0.125],"type":"VEC3"},{"bufferView":45,"componentType":5126,"count":24,"max":[1,1,1],"min":[-1,-1,-1],"type":"VEC3"},{"bufferView":46,"componentType":5126,"count":24,"max":[0.0009765625,1.0009765625],"min":[-0.0009765625,0.8134765625],"type":"VEC2"},{"bufferView":47,"componentType":5123,"count":36,"max":[23],"min":[0],"type":"SCALAR"},{"bufferView":48,"componentType":5126,"count":24,"max":[-0.09375,0.10000000149011612,0.15625],"min":[-0.125,-0.09375,0.125],"type":"VEC3"},{"bufferView":49,"componentType":5126,"count":24,"max":[1,1,1],"min":[-1,-1,-1],"type":"VEC3"},{"bufferView":50,"componentType":5126,"count":24,"max":[0.0009765625,1.0009765625],"min":[-0.0009765625,0.8134765625],"type":"VEC2"},{"bufferView":51,"componentType":5123,"count":36,"max":[23],"min":[0],"type":"SCALAR"},{"bufferView":52,"componentType":5126,"count":24,"max":[0.125,0.10000000149011612,0.15625],"min":[0.09375,-0.09375,0.125],"type":"VEC3"},{"bufferView":53,"componentType":5126,"count":24,"max":[1,1,1],"min":[-1,-1,-1],"type":"VEC3"},{"bufferView":54,"componentType":5126,"count":24,"max":[0.0009765625,1.0009765625],"min":[-0.0009765625,0.8134765625],"type":"VEC2"},{"bufferView":55,"componentType":5123,"count":36,"max":[23],"min":[0],"type":"SCALAR"},{"bufferView":56,"componentType":5126,"count":6,"max":[2.5],"min":[0],"type":"SCALAR"},{"bufferView":57,"componentType":5126,"count":6,"max":[0.21315141022205353,0.9614638686180115,0.21315141022205353,0.5599803924560547],"min":[-0.12414466589689255,-0.9614638686180115,-0.21315141022205353,-0.9614638686180115],"type":"VEC4"},{"bufferView":58,"componentType":5126,"count":7,"max":[2.5],"min":[0],"type":"SCALAR"},{"bufferView":59,"componentType":5126,"count":7,"max":[0,1,0,0.7071067690849304],"min":[0,-1,0,-1],"type":"VEC4"}],"materials":[{"pbrMetallicRoughness":{"metallicFactor":0,"roughnessFactor":1,"baseColorTexture":{"index":0}},"alphaMode":"MASK","alphaCutoff":0.05,"doubleSided":true},{"pbrMetallicRoughness":{"metallicFactor":0,"roughnessFactor":1,"baseColorTexture":{"index":1}},"alphaMode":"MASK","alphaCutoff":0.05,"doubleSided":true},{"pbrMetallicRoughness":{"metallicFactor":0,"roughnessFactor":1,"baseColorTexture":{"index":2}},"alphaMode":"MASK","alphaCutoff":0.05,"doubleSided":true},{"pbrMetallicRoughness":{"metallicFactor":0,"roughnessFactor":1,"baseColorTexture":{"index":3}},"alphaMode":"MASK","alphaCutoff":0.05,"doubleSided":true},{"pbrMetallicRoughness":{"metallicFactor":0,"roughnessFactor":1,"baseColorTexture":{"index":4}},"alphaMode":"MASK","alphaCutoff":0.05,"doubleSided":true}],"textures":[{"sampler":0,"source":0,"name":"TowerUpg.png"},{"sampler":1,"source":1,"name":"Saturn.png"},{"sampler":2,"source":2,"name":"Ring2.png"},{"sampler":3,"source":3,"name":"Ring.png"},{"sampler":4,"source":4,"name":"Fence.png"}],"samplers":[{"magFilter":9728,"minFilter":9728,"wrapS":33071,"wrapT":33071},{"magFilter":9728,"minFilter":9728,"wrapS":33071,"wrapT":33071},{"magFilter":9728,"minFilter":9728,"wrapS":33071,"wrapT":33071},{"magFilter":9728,"minFilter":9728,"wrapS":33071,"wrapT":33071},{"magFilter":9728,"minFilter":9728,"wrapS":33071,"wrapT":33071}],"images":[{"mimeType":"image/png","uri":"data:image/png;base64,"},{"mimeType":"image/png","uri":"data:image/png;base64,"},{"mimeType":"image/png","uri":"data:image/png;base64,"},{"mimeType":"image/png","uri":"data:image/png;base64,"},{"mimeType":"image/png","uri":"data:image/png;base64,"}],"meshes":[{"primitives":[{"mode":4,"attributes":{"POSITION":0,"NORMAL":1,"TEXCOORD_0":2},"indices":3,"material":0}]},{"primitives":[{"mode":4,"attributes":{"POSITION":4,"NORMAL":5,"TEXCOORD_0":6},"indices":7,"material":0}]},{"primitives":[{"mode":4,"attributes":{"POSITION":8,"NORMAL":9,"TEXCOORD_0":10},"indices":11,"material":1}]},{"primitives":[{"mode":4,"attributes":{"POSITION":12,"NORMAL":13,"TEXCOORD_0":14},"indices":15,"material":2}]},{"primitives":[{"mode":4,"attributes":{"POSITION":16,"NORMAL":17,"TEXCOORD_0":18},"indices":19,"material":3}]},{"primitives":[{"mode":4,"attributes":{"POSITION":20,"NORMAL":21,"TEXCOORD_0":22},"indices":23,"material":2}]},{"primitives":[{"mode":4,"attributes":{"POSITION":24,"NORMAL":25,"TEXCOORD_0":26},"indices":27,"material":4}]},{"primitives":[{"mode":4,"attributes":{"POSITION":28,"NORMAL":29,"TEXCOORD_0":30},"indices":31,"material":4}]},{"primitives":[{"mode":4,"attributes":{"POSITION":32,"NORMAL":33,"TEXCOORD_0":34},"indices":35,"material":4}]},{"primitives":[{"mode":4,"attributes":{"POSITION":36,"NORMAL":37,"TEXCOORD_0":38},"indices":39,"material":4}]},{"primitives":[{"mode":4,"attributes":{"POSITION":40,"NORMAL":41,"TEXCOORD_0":42},"indices":43,"material":4}]},{"primitives":[{"mode":4,"attributes":{"POSITION":44,"NORMAL":45,"TEXCOORD_0":46},"indices":47,"material":4}]},{"primitives":[{"mode":4,"attributes":{"POSITION":48,"NORMAL":49,"TEXCOORD_0":50},"indices":51,"material":4}]},{"primitives":[{"mode":4,"attributes":{"POSITION":52,"NORMAL":53,"TEXCOORD_0":54},"indices":55,"material":4}]}],"animations":[{"name":"Planet_Ring","samplers":[{"input":56,"output":57,"interpolation":"LINEAR"},{"input":58,"output":59,"interpolation":"LINEAR"}],"channels":[{"sampler":0,"target":{"node":3,"path":"rotation"}},{"sampler":1,"target":{"node":7,"path":"rotation"}}]}]}