{"asset":{"version":"2.0","generator":"Blockbench 4.6.5 glTF exporter"},"scenes":[{"nodes":[5],"name":"blockbench_export"}],"scene":0,"nodes":[{"name":"cube","mesh":0},{"name":"cube","mesh":1},{"name":"torus","mesh":2},{"rotation":[0,-0.9600498543859286,0,0.2798290140309922],"name":"cube","mesh":3},{"rotation":[0,0.27982901403099203,0,0.9600498543859287],"name":"cube","mesh":4},{"children":[0,1,2,3,4]}],"bufferViews":[{"buffer":0,"byteOffset":0,"byteLength":1440,"target":34962,"byteStride":12},{"buffer":0,"byteOffset":1440,"byteLength":1440,"target":34962,"byteStride":12},{"buffer":0,"byteOffset":2880,"byteLength":960,"target":34962,"byteStride":8},{"buffer":0,"byteOffset":3840,"byteLength":360,"target":34963},{"buffer":0,"byteOffset":4200,"byteLength":480,"target":34962,"byteStride":12},{"buffer":0,"byteOffset":4680,"byteLength":480,"target":34962,"byteStride":12},{"buffer":0,"byteOffset":5160,"byteLength":320,"target":34962,"byteStride":8},{"buffer":0,"byteOffset":5480,"byteLength":120,"target":34963},{"buffer":0,"byteOffset":5600,"byteLength":1512,"target":34962,"byteStride":12},{"buffer":0,"byteOffset":7112,"byteLength":1512,"target":34962,"byteStride":12},{"buffer":0,"byteOffset":8624,"byteLength":1008,"target":34962,"byteStride":8},{"buffer":0,"byteOffset":9632,"byteLength":372,"target":34963},{"buffer":0,"byteOffset":10004,"byteLength":480,"target":34962,"byteStride":12},{"buffer":0,"byteOffset":10484,"byteLength":480,"target":34962,"byteStride":12},{"buffer":0,"byteOffset":10964,"byteLength":320,"target":34962,"byteStride":8},{"buffer":0,"byteOffset":11284,"byteLength":120,"target":34963},{"buffer":0,"byteOffset":11404,"byteLength":480,"target":34962,"byteStride":12},{"buffer":0,"byteOffset":11884,"byteLength":480,"target":34962,"byteStride":12},{"buffer":0,"byteOffset":12364,"byteLength":320,"target":34962,"byteStride":8},{"buffer":0,"byteOffset":12684,"byteLength":120,"target":34963}],"buffers":[{"byteLength":12804,"uri":"data:application/octet-stream;base64,"}],"accessors":[{"bufferView":0,"componentType":5126,"count":120,"max":[0.59375,0.125,0.59375],"min":[-0.59375,0,-0.59375],"type":"VEC3"},{"bufferView":1,"componentType":5126,"count":120,"max":[1,1,1],"min":[-1,-1,-1],"type":"VEC3"},{"bufferView":2,"componentType":5126,"count":120,"max":[1.3125,1],"min":[0,-0.3125],"type":"VEC2"},{"bufferView":3,"componentType":5123,"count":180,"max":[119],"min":[0],"type":"SCALAR"},{"bufferView":4,"componentType":5126,"count":40,"max":[0.21875,0.1875,0.28125],"min":[-0.21875,0.0625,-0.15625],"type":"VEC3"},{"bufferView":5,"componentType":5126,"count":40,"max":[1,1,0.6804510951042175],"min":[-1,-1,-0.9079594016075134],"type":"VEC3"},{"bufferView":6,"componentType":5126,"count":40,"max":[0.8125,1],"min":[0,0.1875],"type":"VEC2"},{"bufferView":7,"componentType":5123,"count":60,"max":[39],"min":[0],"type":"SCALAR"},{"bufferView":8,"componentType":5126,"count":126,"max":[0.5186898708343506,0.22205714881420135,0.5186898708343506],"min":[-0.5186898708343506,0.10772142559289932,-0.5186898708343506],"type":"VEC3"},{"bufferView":9,"componentType":5126,"count":126,"max":[0.7675744891166687,0.6461697816848755,0.8541682958602905],"min":[-0.7675744891166687,-1,-0.8541682958602905],"type":"VEC3"},{"bufferView":10,"componentType":5126,"count":126,"max":[0.27796250581741333,1],"min":[0,0.833299994468689],"type":"VEC2"},{"bufferView":11,"componentType":5123,"count":186,"max":[125],"min":[0],"type":"SCALAR"},{"bufferView":12,"componentType":5126,"count":40,"max":[0.578125,0.21875,0.21875],"min":[0.265625,0.09375,-0.03125],"type":"VEC3"},{"bufferView":13,"componentType":5126,"count":40,"max":[0.9014191031455994,1,0.7052960395812988],"min":[-0.9014191031455994,-1,-0.5019491910934448],"type":"VEC3"},{"bufferView":14,"componentType":5126,"count":40,"max":[0.8125,1],"min":[0,0.1875],"type":"VEC2"},{"bufferView":15,"componentType":5123,"count":60,"max":[39],"min":[0],"type":"SCALAR"},{"bufferView":16,"componentType":5126,"count":40,"max":[0.578125,0.21875,0.21875],"min":[0.265625,0.09375,-0.03125],"type":"VEC3"},{"bufferView":17,"componentType":5126,"count":40,"max":[0.9014191031455994,1,0.7052960395812988],"min":[-0.9014191031455994,-1,-0.5019491910934448],"type":"VEC3"},{"bufferView":18,"componentType":5126,"count":40,"max":[0.8125,1],"min":[0,0.1875],"type":"VEC2"},{"bufferView":19,"componentType":5123,"count":60,"max":[39],"min":[0],"type":"SCALAR"}],"materials":[{"pbrMetallicRoughness":{"metallicFactor":0,"roughnessFactor":1},"alphaMode":"MASK","alphaCutoff":0.05,"doubleSided":true}],"meshes":[{"primitives":[{"mode":4,"attributes":{"POSITION":0,"NORMAL":1,"TEXCOORD_0":2},"indices":3,"material":0}]},{"primitives":[{"mode":4,"attributes":{"POSITION":4,"NORMAL":5,"TEXCOORD_0":6},"indices":7,"material":0}]},{"primitives":[{"mode":4,"attributes":{"POSITION":8,"NORMAL":9,"TEXCOORD_0":10},"indices":11,"material":0}]},{"primitives":[{"mode":4,"attributes":{"POSITION":12,"NORMAL":13,"TEXCOORD_0":14},"indices":15,"material":0}]},{"primitives":[{"mode":4,"attributes":{"POSITION":16,"NORMAL":17,"TEXCOORD_0":18},"indices":19,"material":0}]}]}