{"asset":{"version":"2.0","generator":"Blockbench 4.6.5 glTF exporter"},"scenes":[{"nodes":[2],"name":"blockbench_export"}],"scene":0,"nodes":[{"name":"cube","mesh":0},{"name":"plane","mesh":1},{"children":[0,1]}],"bufferViews":[{"buffer":0,"byteOffset":0,"byteLength":3936,"target":34962,"byteStride":12},{"buffer":0,"byteOffset":3936,"byteLength":3936,"target":34962,"byteStride":12},{"buffer":0,"byteOffset":7872,"byteLength":2624,"target":34962,"byteStride":8},{"buffer":0,"byteOffset":10496,"byteLength":984,"target":34963},{"buffer":0,"byteOffset":11480,"byteLength":48,"target":34962,"byteStride":12},{"buffer":0,"byteOffset":11528,"byteLength":48,"target":34962,"byteStride":12},{"buffer":0,"byteOffset":11576,"byteLength":32,"target":34962,"byteStride":8},{"buffer":0,"byteOffset":11608,"byteLength":12,"target":34963}],"buffers":[{"byteLength":11620,"uri":"data:application/octet-stream;base64,"}],"accessors":[{"bufferView":0,"componentType":5126,"count":328,"max":[0.640625,0.125,0.640625],"min":[-0.640625,0,-0.640625],"type":"VEC3"},{"bufferView":1,"componentType":5126,"count":328,"max":[0.936329185962677,1,0.936329185962677],"min":[-0.936329185962677,-1,-0.936329185962677],"type":"VEC3"},{"bufferView":2,"componentType":5126,"count":328,"max":[1.3125,1],"min":[0,-0.3125],"type":"VEC2"},{"bufferView":3,"componentType":5123,"count":492,"max":[327],"min":[0],"type":"SCALAR"},{"bufferView":4,"componentType":5126,"count":4,"max":[0.4375,0.078125,0.4375],"min":[-0.4375,0.078125,-0.4375],"type":"VEC3"},{"bufferView":5,"componentType":5126,"count":4,"max":[0,1,0],"min":[0,1,0],"type":"VEC3"},{"bufferView":6,"componentType":5126,"count":4,"max":[0.875,1],"min":[0,0.125],"type":"VEC2"},{"bufferView":7,"componentType":5123,"count":6,"max":[3],"min":[0],"type":"SCALAR"}],"materials":[{"pbrMetallicRoughness":{"metallicFactor":0,"roughnessFactor":1},"alphaMode":"MASK","alphaCutoff":0.05,"doubleSided":true}],"meshes":[{"primitives":[{"mode":4,"attributes":{"POSITION":0,"NORMAL":1,"TEXCOORD_0":2},"indices":3,"material":0}]},{"primitives":[{"mode":4,"attributes":{"POSITION":4,"NORMAL":5,"TEXCOORD_0":6},"indices":7,"material":0}]}]}