# Exported from Figuro at https://www.figuro.io

mtllib newscene.mtl
o cylinder12
v 48.50756460689244 14.332809335479595 117.10762035164885
v 48.50756460689244 -12.332809335479311 117.10762035164885
v 7.105427357601002e-15 -12.332809335479311 126.75637486342754
v 7.105427357601002e-15 14.332809335479595 126.75637486342754
v 89.63029222455364 14.332809335479595 89.63029222455364
v 89.63029222455364 -12.332809335479311 89.63029222455364
v 117.10762035164885 14.332809335479595 48.50756460689244
v 117.10762035164885 -12.332809335479311 48.50756460689244
v 48.50756460689245 14.332809335479595 -117.10762035164885
v 48.50756460689245 -12.332809335479311 -117.10762035164885
v 89.63029222455364 -12.332809335479311 -89.63029222455361
v 89.63029222455364 14.332809335479595 -89.63029222455361
v -117.10762035164879 14.332809335479595 -48.50756460689251
v -117.10762035164879 -12.332809335479311 -48.50756460689251
v -89.63029222455361 -12.332809335479311 -89.63029222455367
v -89.63029222455361 14.332809335479595 -89.63029222455367
v -89.63029222455367 14.332809335479595 89.63029222455361
v -89.63029222455367 -12.332809335479311 89.63029222455361
v -117.10762035164879 -12.332809335479311 48.507564606892466
v -117.10762035164879 14.332809335479595 48.507564606892466
v -48.50756460689251 14.332809335479595 117.10762035164882
v -48.50756460689251 -12.332809335479311 117.10762035164882
v 126.75637486342754 14.332809335479595 2.1316282072803006e-14
v 126.75637486342754 -12.332809335479311 2.1316282072803006e-14
v 117.10762035164885 14.332809335479595 -48.50756460689242
v 117.10762035164885 -12.332809335479311 -48.50756460689242
v -48.507564606892394 14.332809335479595 -117.10762035164885
v -48.507564606892394 -12.332809335479311 -117.10762035164885
v 2.1316282072803006e-14 -12.332809335479311 -126.75637486342754
v 2.1316282072803006e-14 14.332809335479595 -126.75637486342754
v -126.75637486342754 14.332809335479595 -2.1316282072803006e-14
v -126.75637486342754 -12.332809335479311 -2.1316282072803006e-14
v 95.60397561365231 -12.332809335479311 -32.45317668632463
v 95.60397561365231 14.332809335479595 -32.4531766863246
v 99.02205992737316 14.332809335479595 19.696712362964206
v 99.02205992737316 -12.332809335479311 19.696712362964213
v 75.90726325068813 14.332809335479595 66.5688832410487
v 75.90726325068816 -12.332809335479311 66.56888324104865
v 32.453176686324625 14.332809335479595 95.60397561365231
v 32.453176686324596 -12.332809335479311 95.60397561365232
v -19.696712362964224 14.332809335479595 99.02205992737322
v -19.69671236296419 -12.332809335479311 99.0220599273732
v -66.56888324104867 14.332809335479595 75.90726325068816
v -66.56888324104867 -12.332809335479311 75.90726325068815
v -95.6039756136524 14.332809335479595 32.45317668632448
v -95.6039756136524 -12.332809335479311 32.453176686324475
v -99.02205992737318 14.332809335479595 -19.69671236296423
v -99.02205992737316 -12.332809335479311 -19.696712362964234
v -75.90726325068815 14.332809335479595 -66.56888324104864
v -75.90726325068812 -12.332809335479311 -66.56888324104865
v -32.453176686324596 14.332809335479595 -95.60397561365232
v -32.45317668632457 -12.332809335479311 -95.60397561365234
v 19.6967123629642 14.332809335479595 -99.02205992737322
v 19.69671236296424 -12.332809335479311 -99.02205992737322
v 66.56888324104864 14.332809335479595 -75.90726325068817
v 66.5688832410486 -12.332809335479311 -75.9072632506882
# 56 vertices
vt 0.18948267424567358 1.0559875364667173
vt 0.18948267424567358 0.9518249635332839
vt 2.7755575615628914e-17 0.9518249635332839
vt 2.7755575615628914e-17 1.0559875364667173
vt 0.35011832900216266 1.0559875364667173
vt 0.35011832900216266 0.9518249635332839
vt 0.18948267424567358 0.9518249635332839
vt 0.18948267424567358 1.0559875364667173
vt -0.18948267424567358 1.0559875364667173
vt -0.18948267424567358 0.9518249635332839
vt -0.35011832900216266 0.9518249635332839
vt -0.35011832900216266 1.0559875364667173
vt -0.18948267424567364 1.0559875364667173
vt -0.18948267424567364 0.9518249635332839
vt -0.35011832900216266 0.9518249635332839
vt -0.35011832900216266 1.0559875364667173
vt -0.18948267424567386 1.0559875364667173
vt -0.18948267424567386 0.9518249635332839
vt -0.3501183290021628 0.9518249635332839
vt -0.3501183290021628 1.0559875364667173
vt 0.35011832900216255 1.0559875364667173
vt 0.35011832900216255 0.9518249635332839
vt 0.1894826742456737 0.9518249635332839
vt 0.1894826742456737 1.0559875364667173
vt -0.18948267424567386 1.0559875364667173
vt -0.18948267424567386 0.9518249635332839
vt -0.3501183290021628 0.9518249635332839
vt -0.3501183290021628 1.0559875364667173
vt 2.7755575615628914e-17 1.0559875364667173
vt 2.7755575615628914e-17 0.9518249635332839
vt -0.18948267424567386 0.9518249635332839
vt -0.18948267424567386 1.0559875364667173
vt -8.326672684688674e-17 1.0559875364667173
vt -8.326672684688674e-17 0.9518249635332839
vt -0.18948267424567358 0.9518249635332839
vt -0.18948267424567358 1.0559875364667173
vt 0.18948267424567353 1.0559875364667173
vt 0.18948267424567353 0.9518249635332839
vt -8.326672684688674e-17 0.9518249635332839
vt -8.326672684688674e-17 1.0559875364667173
vt 0.18948267424567342 1.0559875364667173
vt 0.18948267424567342 0.9518249635332839
vt -8.326672684688674e-17 0.9518249635332839
vt -8.326672684688674e-17 1.0559875364667173
vt 0.35011832900216255 1.0559875364667173
vt 0.35011832900216255 0.9518249635332839
vt 0.18948267424567342 0.9518249635332839
vt 0.18948267424567342 1.0559875364667173
vt -8.326672684688674e-17 1.0559875364667173
vt -8.326672684688674e-17 0.9518249635332839
vt -0.18948267424567386 0.9518249635332839
vt -0.18948267424567386 1.0559875364667173
vt 0.1894826742456737 1.0559875364667173
vt 0.1894826742456737 0.9518249635332839
vt -8.326672684688674e-17 0.9518249635332839
vt -8.326672684688674e-17 1.0559875364667173
vt -0.1267702214309556 0.9518249635332839
vt -0.12677022143095548 1.0559875364667173
vt 0.07694028266782893 1.0559875364667173
vt 0.07694028266782896 0.9518249635332839
vt 0.07694028266782896 0.9518249635332839
vt 0.07694028266782893 1.0559875364667173
vt 0.26003470016034647 1.0559875364667173
vt 0.2600347001603463 0.9518249635332839
vt -0.2965127470730006 0.9518249635332839
vt -0.2965127470730005 1.0559875364667173
vt -0.12677022143095557 1.0559875364667173
vt -0.12677022143095545 0.9518249635332839
vt -0.12677022143095545 0.9518249635332839
vt -0.12677022143095557 1.0559875364667173
vt 0.076940282667829 1.0559875364667173
vt 0.07694028266782886 0.9518249635332839
vt 0.07694028266782886 0.9518249635332839
vt 0.076940282667829 1.0559875364667173
vt 0.26003470016034635 1.0559875364667173
vt 0.26003470016034635 0.9518249635332839
vt -0.29651274707300057 0.9518249635332839
vt -0.2965127470730006 1.0559875364667173
vt -0.126770221430955 1.0559875364667173
vt -0.12677022143095498 0.9518249635332839
vt -0.12677022143095498 0.9518249635332839
vt -0.126770221430955 1.0559875364667173
vt 0.07694028266782903 1.0559875364667173
vt 0.07694028266782904 0.9518249635332839
vt 0.07694028266782904 0.9518249635332839
vt 0.07694028266782903 1.0559875364667173
vt 0.26003470016034624 1.0559875364667173
vt 0.2600347001603463 0.9518249635332839
vt -0.29651274707300046 0.9518249635332839
vt -0.29651274707300057 1.0559875364667173
vt -0.12677022143095545 1.0559875364667173
vt -0.12677022143095534 0.9518249635332839
vt -0.12677022143095534 0.9518249635332839
vt -0.12677022143095545 1.0559875364667173
vt 0.0769402826678289 1.0559875364667173
vt 0.07694028266782907 0.9518249635332839
vt 0.07694028266782907 0.9518249635332839
vt 0.0769402826678289 1.0559875364667173
vt 0.26003470016034624 1.0559875364667173
vt 0.2600347001603461 0.9518249635332839
vt -8.326672684688674e-17 1.0559875364667173
vt -8.326672684688674e-17 0.9518249635332839
vt -0.18948267424567364 0.9518249635332839
vt -0.18948267424567364 1.0559875364667173
vt -0.2965127470730008 0.9518249635332839
vt -0.2965127470730007 1.0559875364667173
vt -0.12677022143095548 1.0559875364667173
vt -0.1267702214309556 0.9518249635332839
vt 0.35011832900216255 1.0559875364667173
vt 0.35011832900216255 0.9518249635332839
vt 0.18948267424567353 0.9518249635332839
vt 0.18948267424567353 1.0559875364667173
vt -0.07694028266782886 1.3868049215913016
vt -0.26003470016034635 1.2965127470730007
vt -0.18948267424567386 1.4574516419986283
vt 2.7755575615628914e-17 1.4951420893102638
vt -0.26003470016034635 0.7034872529269993
vt -0.076940282667829 0.6131950784086984
vt -0.18948267424567386 0.5425483580013718
vt -0.3501183290021628 0.6498816709978374
vt -0.37345302974082967 0.873229778569045
vt -0.26003470016034635 0.7034872529269993
vt -0.3501183290021628 0.6498816709978374
vt -0.4574516419986281 0.8105173257543263
vt -0.4951420893102638 1
vt -0.3868049215913015 1.076940282667829
vt -0.37345302974082967 0.873229778569045
vt -0.4951420893102638 1
vt -0.4574516419986281 1.1894826742456739
vt -0.29651274707300057 1.2600347001603462
vt -0.3868049215913015 1.076940282667829
vt -0.4574516419986281 1.1894826742456739
vt -0.35011832900216255 1.3501183290021628
vt -0.12677022143095545 1.3734530297408294
vt -0.29651274707300057 1.2600347001603462
vt -0.35011832900216255 1.3501183290021628
vt -0.18948267424567342 1.4574516419986283
vt 8.326672684688674e-17 1.4951420893102638
vt 0.0769402826678289 1.3868049215913016
vt -0.12677022143095545 1.3734530297408294
vt 8.326672684688674e-17 1.4951420893102638
vt 0.18948267424567364 1.4574516419986283
vt 0.26003470016034624 1.2965127470730007
vt 0.0769402826678289 1.3868049215913016
vt 0.18948267424567364 1.4574516419986283
vt 0.35011832900216266 1.3501183290021626
vt 0.37345302974082933 1.1267702214309554
vt 0.26003470016034624 1.2965127470730007
vt 0.35011832900216266 1.3501183290021626
vt 0.4574516419986283 1.1894826742456734
vt 0.4951420893102638 0.9999999999999999
vt 0.3868049215913014 0.9230597173321711
vt 0.37345302974082933 1.1267702214309554
vt 0.4951420893102638 0.9999999999999999
vt 0.4574516419986283 0.8105173257543264
vt 0.2965127470730005 0.7399652998396535
vt 0.3868049215913014 0.9230597173321711
vt 0.4574516419986283 0.8105173257543264
vt 0.35011832900216266 0.6498816709978373
vt 0.12677022143095557 0.6265469702591706
vt 0.2965127470730005 0.7399652998396535
vt 0.35011832900216266 0.6498816709978373
vt 0.18948267424567358 0.5425483580013717
vt 2.7755575615628914e-17 0.5048579106897362
vt 2.7755575615628914e-17 0.5048579106897362
vt -0.18948267424567386 0.5425483580013718
vt -0.076940282667829 0.6131950784086984
vt 0.12677022143095557 0.6265469702591706
vt 0.12677022143095545 1.3734530297408294
vt -0.07694028266782886 1.3868049215913016
vt 2.7755575615628914e-17 1.4951420893102638
vt 0.18948267424567358 1.4574516419986283
vt 0.2965127470730006 1.2600347001603462
vt 0.12677022143095545 1.3734530297408294
vt 0.18948267424567358 1.4574516419986283
vt 0.35011832900216266 1.3501183290021626
vt 0.4574516419986283 1.1894826742456737
vt 0.3868049215913014 1.076940282667829
vt 0.2965127470730006 1.2600347001603462
vt 0.4574516419986283 1.1894826742456737
vt 0.4951420893102638 1
vt 0.37345302974082933 0.8732297785690444
vt 0.3868049215913014 1.076940282667829
vt 0.4951420893102638 1
vt 0.4574516419986283 0.8105173257543264
vt 0.2600347001603461 0.7034872529269992
vt 0.37345302974082933 0.8732297785690444
vt 0.4574516419986283 0.8105173257543264
vt 0.35011832900216266 0.6498816709978374
vt 0.18948267424567364 0.5425483580013717
vt 0.07694028266782907 0.6131950784086984
vt 0.2600347001603461 0.7034872529269992
vt 0.18948267424567364 0.5425483580013717
vt 8.326672684688674e-17 0.5048579106897362
vt -0.12677022143095534 0.6265469702591706
vt 0.07694028266782907 0.6131950784086984
vt 8.326672684688674e-17 0.5048579106897362
vt -0.18948267424567342 0.5425483580013717
vt -0.29651274707300046 0.7399652998396538
vt -0.12677022143095534 0.6265469702591706
vt -0.18948267424567342 0.5425483580013717
vt -0.35011832900216255 0.6498816709978372
vt -0.4574516419986281 0.8105173257543261
vt -0.3868049215913014 0.923059717332171
vt -0.29651274707300046 0.7399652998396538
vt -0.4574516419986281 0.8105173257543261
vt -0.4951420893102638 0.9999999999999999
vt -0.37345302974082967 1.126770221430955
vt -0.3868049215913014 0.923059717332171
vt -0.4951420893102638 0.9999999999999999
vt -0.4574516419986281 1.1894826742456737
vt -0.4574516419986281 1.1894826742456737
vt -0.3501183290021628 1.3501183290021626
vt -0.18948267424567386 1.4574516419986283
vt -0.26003470016034635 1.2965127470730007
vt -0.37345302974082967 1.126770221430955
# 216 uvs
vn 0.2502201850119102 0.3333333333333333 0.6040849642352585
vn 0.18766513875893265 -0.5 0.4530637231764439
vn -8.326672684688674e-17 -0.5 0.4903926402016152
vn -8.326672684688674e-17 0.5 0.4903926402016152
vn 0.3467599613305369 0.5 0.3467599613305369
vn 0.4623466151073825 -0.3333333333333333 0.4623466151073825
vn 0.45306372317644394 0.5 0.1876651387589327
vn 0.45306372317644394 -0.5 0.18766513875893268
vn 0.18766513875893284 0.5 -0.45306372317644383
vn 0.18766513875893284 -0.5 -0.45306372317644383
vn 0.46234661510738273 -0.3333333333333333 -0.46234661510738234
vn 0.34675996133053705 0.5 -0.34675996133053677
vn -0.45306372317644383 0.5 -0.18766513875893287
vn -0.45306372317644383 -0.5 -0.18766513875893287
vn -0.46234661510738234 -0.3333333333333333 -0.46234661510738256
vn -0.34675996133053677 0.5 -0.34675996133053694
vn -0.3467599613305371 0.5 0.34675996133053666
vn -0.4623466151073828 -0.3333333333333333 0.46234661510738223
vn -0.45306372317644394 -0.5 0.18766513875893273
vn -0.6040849642352586 0.3333333333333333 0.2502201850119103
vn -0.18766513875893287 0.5 0.4530637231764439
vn -0.18766513875893287 -0.5 0.4530637231764439
vn 0.4903926402016152 0.5 3.2287322859157697e-18
vn 0.4903926402016152 -0.5 1.3919728572473256e-17
vn 0.6040849642352585 0.3333333333333333 -0.2502201850119103
vn 0.4530637231764439 -0.5 -0.1876651387589327
vn -0.25022018501191 0.3333333333333333 -0.6040849642352587
vn -0.1876651387589325 -0.5 -0.453063723176444
vn -6.938893903907228e-18 -0.5 -0.4903926402016152
vn -6.938893903907228e-18 0.5 -0.4903926402016152
vn -0.4903926402016151 0.5 1.5884966081328838e-17
vn -0.4903926402016151 -0.5 1.758794942580593e-17
vn -0.4573321338852874 -0.4999999999999999 0.15524334056243608
vn -0.4573321338852874 0.5 0.15524334056243608
vn -0.473682916192823 0.4999999999999999 -0.09422139024721449
vn -0.473682916192823 -0.5000000000000001 -0.09422139024721447
vn -0.3631107436380724 0.5 -0.31843957563038666
vn -0.3631107436380724 -0.5 -0.31843957563038666
vn -0.15524334056243624 0.5000000000000001 -0.4573321338852874
vn -0.15524334056243624 -0.4999999999999999 -0.4573321338852873
vn 0.09422139024721443 0.5000000000000002 -0.4736829161928229
vn 0.09422139024721443 -0.4999999999999998 -0.4736829161928229
vn 0.3184395756303869 0.5000000000000002 -0.3631107436380723
vn 0.3184395756303869 -0.4999999999999998 -0.3631107436380723
vn 0.45733213388528743 0.5000000000000002 -0.15524334056243566
vn 0.45733213388528743 -0.4999999999999997 -0.15524334056243566
vn 0.473682916192823 0.5000000000000004 0.09422139024721501
vn 0.473682916192823 -0.49999999999999956 0.09422139024721501
vn 0.3631107436380724 0.5000000000000002 0.31843957563038683
vn 0.3631107436380724 -0.4999999999999998 0.31843957563038683
vn 0.1552433405624363 0.5 0.45733213388528726
vn 0.1552433405624363 -0.5 0.4573321338852873
vn -0.09422139024721439 0.49999999999999983 0.4736829161928229
vn -0.09422139024721439 -0.5000000000000002 0.4736829161928229
vn -0.31843957563038683 0.5 0.3631107436380724
vn -0.31843957563038683 -0.5 0.3631107436380724
# 56 normals
usemtl ffffff
f 4/4/4 3/3/3 2/2/2 1/1/1 
f 1/8/1 2/7/2 6/6/6 5/5/5 
f 5/12/5 6/11/6 8/10/8 7/9/7 
f 12/16/12 11/15/11 10/14/10 9/13/9 
f 16/20/16 15/19/15 14/18/14 13/17/13 
f 20/24/20 19/23/19 18/22/18 17/21/17 
f 17/28/17 18/27/18 22/26/22 21/25/21 
f 21/32/21 22/31/22 3/30/3 4/29/4 
f 7/36/7 8/35/8 24/34/24 23/33/23 
f 23/40/23 24/39/24 26/38/26 25/37/25 
f 30/44/30 29/43/29 28/42/28 27/41/27 
f 27/48/27 28/47/28 15/46/15 16/45/16 
f 13/52/13 14/51/14 32/50/32 31/49/31 
f 31/56/31 32/55/32 19/54/19 20/53/20 
f 36/60/36 35/59/35 34/58/34 33/57/33 
f 38/64/38 37/63/37 35/62/35 36/61/36 
f 40/68/40 39/67/39 37/66/37 38/65/38 
f 42/72/42 41/71/41 39/70/39 40/69/40 
f 44/76/44 43/75/43 41/74/41 42/73/42 
f 46/80/46 45/79/45 43/78/43 44/77/44 
f 48/84/48 47/83/47 45/82/45 46/81/46 
f 50/88/50 49/87/49 47/86/47 48/85/48 
f 52/92/52 51/91/51 49/90/49 50/89/50 
f 54/96/54 53/95/53 51/94/51 52/93/52 
f 56/100/56 55/99/55 53/98/53 54/97/54 
f 9/104/9 10/103/10 29/102/29 30/101/30 
f 33/108/33 34/107/34 55/106/55 56/105/56 
f 25/112/25 26/111/26 11/110/11 12/109/12 
f 3/116/3 22/115/22 44/114/44 42/113/42 
f 17/120/17 21/119/21 41/118/41 43/117/43 
f 31/125/31 20/124/20 17/123/17 43/122/43 45/121/45 
f 13/129/13 31/128/31 45/127/45 47/126/47 
f 16/133/16 13/132/13 47/131/47 49/130/49 
f 30/138/30 27/137/27 16/136/16 49/135/49 51/134/51 
f 9/142/9 30/141/30 51/140/51 53/139/53 
f 12/146/12 9/145/9 53/144/53 55/143/55 
f 23/151/23 25/150/25 12/149/12 55/148/55 34/147/34 
f 7/155/7 23/154/23 34/153/34 35/152/35 
f 5/159/5 7/158/7 35/157/35 37/156/37 
f 4/164/4 1/163/1 5/162/5 37/161/37 39/160/39 
f 39/168/39 41/167/41 21/166/21 4/165/4 
f 2/172/2 3/171/3 42/170/42 40/169/40 
f 8/177/8 6/176/6 2/175/2 40/174/40 38/173/38 
f 24/181/24 8/180/8 38/179/38 36/178/36 
f 26/185/26 24/184/24 36/183/36 33/182/33 
f 10/190/10 11/189/11 26/188/26 33/187/33 56/186/56 
f 29/194/29 10/193/10 56/192/56 54/191/54 
f 28/198/28 29/197/29 54/196/54 52/195/52 
f 14/203/14 15/202/15 28/201/28 52/200/52 50/199/50 
f 32/207/32 14/206/14 50/205/50 48/204/48 
f 19/211/19 32/210/32 48/209/48 46/208/46 
f 46/216/46 44/215/44 22/214/22 18/213/18 19/212/19 
# 52 polygons