{"asset":{"version":"2.0","generator":"Blockbench 4.7.2 glTF exporter"},"scenes":[{"nodes":[3],"name":"blockbench_export"}],"scene":0,"nodes":[{"name":"cube","mesh":0},{"translation":[-0.25,0.078125,-0.25],"name":"circle","mesh":1},{"translation":[0.25,0.0625,-0.25],"name":"cone","mesh":2},{"children":[0,1,2]}],"bufferViews":[{"buffer":0,"byteOffset":0,"byteLength":288,"target":34962,"byteStride":12},{"buffer":0,"byteOffset":288,"byteLength":288,"target":34962,"byteStride":12},{"buffer":0,"byteOffset":576,"byteLength":192,"target":34962,"byteStride":8},{"buffer":0,"byteOffset":768,"byteLength":72,"target":34963},{"buffer":0,"byteOffset":840,"byteLength":1728,"target":34962,"byteStride":12},{"buffer":0,"byteOffset":2568,"byteLength":1728,"target":34962,"byteStride":12},{"buffer":0,"byteOffset":4296,"byteLength":1152,"target":34962,"byteStride":8},{"buffer":0,"byteOffset":5448,"byteLength":288,"target":34963},{"buffer":0,"byteOffset":5736,"byteLength":1728,"target":34962,"byteStride":12},{"buffer":0,"byteOffset":7464,"byteLength":1728,"target":34962,"byteStride":12},{"buffer":0,"byteOffset":9192,"byteLength":1152,"target":34962,"byteStride":8},{"buffer":0,"byteOffset":10344,"byteLength":288,"target":34963}],"buffers":[{"byteLength":10632,"uri":"data:application/octet-stream;base64,"}],"accessors":[{"bufferView":0,"componentType":5126,"count":24,"max":[0.5,0.0625,0.5],"min":[-0.5,0,-0.5],"type":"VEC3"},{"bufferView":1,"componentType":5126,"count":24,"max":[1,1,1],"min":[-1,-1,-1],"type":"VEC3"},{"bufferView":2,"componentType":5126,"count":24,"max":[1,1],"min":[0,0],"type":"VEC2"},{"bufferView":3,"componentType":5123,"count":36,"max":[23],"min":[0],"type":"SCALAR"},{"bufferView":4,"componentType":5126,"count":144,"max":[0.6875,0,0.6875],"min":[-0.1875,0,-0.1875],"type":"VEC3"},{"bufferView":5,"componentType":5126,"count":144,"max":[0,1,0],"min":[0,1,0],"type":"VEC3"},{"bufferView":6,"componentType":5126,"count":144,"max":[0.19411848485469818,0.19411849975585938],"min":[0,0],"type":"VEC2"},{"bufferView":7,"componentType":5123,"count":144,"max":[143],"min":[0],"type":"SCALAR"},{"bufferView":8,"componentType":5126,"count":144,"max":[0.18042196333408356,0.75,0.65625],"min":[-0.6804219484329224,0,-0.15625],"type":"VEC3"},{"bufferView":9,"componentType":5126,"count":144,"max":[0.8478218913078308,0.20395424962043762,0.9789804220199585],"min":[-0.8478218913078308,-1,-0.9789804220199585],"type":"VEC3"},{"bufferView":10,"componentType":5126,"count":144,"max":[0.1804250031709671,0.7661062479019165],"min":[0,0],"type":"VEC2"},{"bufferView":11,"componentType":5123,"count":144,"max":[143],"min":[0],"type":"SCALAR"}],"materials":[{"pbrMetallicRoughness":{"metallicFactor":0,"roughnessFactor":1},"alphaMode":"MASK","alphaCutoff":0.05,"doubleSided":true}],"meshes":[{"primitives":[{"mode":4,"attributes":{"POSITION":0,"NORMAL":1,"TEXCOORD_0":2},"indices":3,"material":0}]},{"primitives":[{"mode":4,"attributes":{"POSITION":4,"NORMAL":5,"TEXCOORD_0":6},"indices":7,"material":0}]},{"primitives":[{"mode":4,"attributes":{"POSITION":8,"NORMAL":9,"TEXCOORD_0":10},"indices":11,"material":0}]}]}