{"asset":{"version":"2.0","generator":"Blockbench 4.7.2 glTF exporter"},"scenes":[{"nodes":[4],"name":"blockbench_export"}],"scene":0,"nodes":[{"name":"cube","mesh":0},{"translation":[-0.25,0.078125,-0.25],"name":"circle","mesh":1},{"translation":[0.25,0.0625,-0.25],"name":"cone","mesh":2},{"name":"torus","mesh":3},{"children":[0,1,2,3]}],"bufferViews":[{"buffer":0,"byteOffset":0,"byteLength":1152,"target":34962,"byteStride":12},{"buffer":0,"byteOffset":1152,"byteLength":1152,"target":34962,"byteStride":12},{"buffer":0,"byteOffset":2304,"byteLength":768,"target":34962,"byteStride":8},{"buffer":0,"byteOffset":3072,"byteLength":288,"target":34963},{"buffer":0,"byteOffset":3360,"byteLength":1728,"target":34962,"byteStride":12},{"buffer":0,"byteOffset":5088,"byteLength":1728,"target":34962,"byteStride":12},{"buffer":0,"byteOffset":6816,"byteLength":1152,"target":34962,"byteStride":8},{"buffer":0,"byteOffset":7968,"byteLength":288,"target":34963},{"buffer":0,"byteOffset":8256,"byteLength":1728,"target":34962,"byteStride":12},{"buffer":0,"byteOffset":9984,"byteLength":1728,"target":34962,"byteStride":12},{"buffer":0,"byteOffset":11712,"byteLength":1152,"target":34962,"byteStride":8},{"buffer":0,"byteOffset":12864,"byteLength":288,"target":34963},{"buffer":0,"byteOffset":13152,"byteLength":10752,"target":34962,"byteStride":12},{"buffer":0,"byteOffset":23904,"byteLength":10752,"target":34962,"byteStride":12},{"buffer":0,"byteOffset":34656,"byteLength":7168,"target":34962,"byteStride":8},{"buffer":0,"byteOffset":41824,"byteLength":2688,"target":34963}],"buffers":[{"byteLength":44512,"uri":"data:application/octet-stream;base64,"}],"accessors":[{"bufferView":0,"componentType":5126,"count":96,"max":[0.5,0.15625,0.5],"min":[-0.5,0,-0.5],"type":"VEC3"},{"bufferView":1,"componentType":5126,"count":96,"max":[1,0.9813910722732544,1],"min":[-1,-1,-1],"type":"VEC3"},{"bufferView":2,"componentType":5126,"count":96,"max":[1,1],"min":[0,0],"type":"VEC2"},{"bufferView":3,"componentType":5123,"count":144,"max":[95],"min":[0],"type":"SCALAR"},{"bufferView":4,"componentType":5126,"count":144,"max":[0.6875,0.03125,0.6875],"min":[-0.1875,0,-0.1875],"type":"VEC3"},{"bufferView":5,"componentType":5126,"count":144,"max":[0.15352538228034973,1,0.2960377335548401],"min":[-0.2571865916252136,0.9518768191337585,-0.2960377335548401],"type":"VEC3"},{"bufferView":6,"componentType":5126,"count":144,"max":[0.19411848485469818,0.19411849975585938],"min":[0,0],"type":"VEC2"},{"bufferView":7,"componentType":5123,"count":144,"max":[143],"min":[0],"type":"SCALAR"},{"bufferView":8,"componentType":5126,"count":144,"max":[0.18042196333408356,0.75,0.65625],"min":[-0.6804219484329224,0,-0.15625],"type":"VEC3"},{"bufferView":9,"componentType":5126,"count":144,"max":[0.8478218913078308,0.20395424962043762,0.9789804220199585],"min":[-0.8478218913078308,-1,-0.9789804220199585],"type":"VEC3"},{"bufferView":10,"componentType":5126,"count":144,"max":[0.1804250031709671,0.7661062479019165],"min":[0,0],"type":"VEC2"},{"bufferView":11,"componentType":5123,"count":144,"max":[143],"min":[0],"type":"SCALAR"},{"bufferView":12,"componentType":5126,"count":896,"max":[0.4685165584087372,0.15968488156795502,0.453125],"min":[-0.4685165584087372,0.027815116569399834,-0.4737342894077301],"type":"VEC3"},{"bufferView":13,"componentType":5126,"count":896,"max":[0.9539231061935425,0.7770736217498779,0.9782928824424744],"min":[-0.9539231061935425,-0.7770736217498779,-0.9782928824424744],"type":"VEC3"},{"bufferView":14,"componentType":5126,"count":896,"max":[0.180587500333786,0.02617502212524414],"min":[0,0],"type":"VEC2"},{"bufferView":15,"componentType":5123,"count":1344,"max":[895],"min":[0],"type":"SCALAR"}],"materials":[{"pbrMetallicRoughness":{"metallicFactor":0,"roughnessFactor":1},"alphaMode":"MASK","alphaCutoff":0.05,"doubleSided":true},{"pbrMetallicRoughness":{"metallicFactor":0,"roughnessFactor":1},"alphaMode":"MASK","alphaCutoff":0.05,"doubleSided":true}],"meshes":[{"primitives":[{"mode":4,"attributes":{"POSITION":0,"NORMAL":1,"TEXCOORD_0":2},"indices":3,"material":0}]},{"primitives":[{"mode":4,"attributes":{"POSITION":4,"NORMAL":5,"TEXCOORD_0":6},"indices":7,"material":0}]},{"primitives":[{"mode":4,"attributes":{"POSITION":8,"NORMAL":9,"TEXCOORD_0":10},"indices":11,"material":0}]},{"primitives":[{"mode":4,"attributes":{"POSITION":12,"NORMAL":13,"TEXCOORD_0":14},"indices":15,"material":1}]}]}