{"asset":{"version":"2.0","generator":"Blockbench 4.6.5 glTF exporter"},"scenes":[{"nodes":[1],"name":"blockbench_export"}],"scene":0,"nodes":[{"name":"cube","mesh":0},{"children":[0]}],"bufferViews":[{"buffer":0,"byteOffset":0,"byteLength":3936,"target":34962,"byteStride":12},{"buffer":0,"byteOffset":3936,"byteLength":3936,"target":34962,"byteStride":12},{"buffer":0,"byteOffset":7872,"byteLength":2624,"target":34962,"byteStride":8},{"buffer":0,"byteOffset":10496,"byteLength":984,"target":34963}],"buffers":[{"byteLength":11480,"uri":"data:application/octet-stream;base64,"}],"accessors":[{"bufferView":0,"componentType":5126,"count":328,"max":[0.59375,0.1875,1.46875],"min":[-1.09375,0,-1.46875],"type":"VEC3"},{"bufferView":1,"componentType":5126,"count":328,"max":[1,1,1],"min":[-1,-1,-1],"type":"VEC3"},{"bufferView":2,"componentType":5126,"count":328,"max":[1.3125,1],"min":[0,-0.3125],"type":"VEC2"},{"bufferView":3,"componentType":5123,"count":492,"max":[327],"min":[0],"type":"SCALAR"}],"materials":[{"pbrMetallicRoughness":{"metallicFactor":0,"roughnessFactor":1},"alphaMode":"MASK","alphaCutoff":0.05,"doubleSided":true}],"meshes":[{"primitives":[{"mode":4,"attributes":{"POSITION":0,"NORMAL":1,"TEXCOORD_0":2},"indices":3,"material":0}]}]}