{"asset":{"version":"2.0","generator":"Blockbench 4.6.5 glTF exporter"},"scenes":[{"nodes":[9],"name":"blockbench_export"}],"scene":0,"nodes":[{"name":"cube","mesh":0},{"name":"cube","mesh":1},{"translation":[0.5625,-0.8125,0],"name":"cylinder","mesh":2},{"translation":[-0.5625,0.8125,0],"name":"Dial","children":[2]},{"rotation":[-0.3228681713261061,-0.23176922946872444,0.7402130987653703,0.5423317588268071],"name":"pyramid","mesh":3},{"rotation":[0.6441413528048929,0.7358098920162643,-0.16461282442057248,-0.12871805799489627],"translation":[-0.578125,0,-0.40625],"name":"pyramids","mesh":4},{"translation":[-0.28125,-0.21875,-0.34375],"name":"cylinder","mesh":5},{"rotation":[0.6235806920603139,0.685346061783619,0.23163533230347308,0.29629878318333247],"translation":[-0.578125,0,-0.40625],"name":"pyramids","mesh":6},{"translation":[0.28125,0.21875,0.34375],"name":"Props","children":[4,5,6,7]},{"children":[0,1,3,8]}],"bufferViews":[{"buffer":0,"byteOffset":0,"byteLength":1056,"target":34962,"byteStride":12},{"buffer":0,"byteOffset":1056,"byteLength":1056,"target":34962,"byteStride":12},{"buffer":0,"byteOffset":2112,"byteLength":704,"target":34962,"byteStride":8},{"buffer":0,"byteOffset":2816,"byteLength":264,"target":34963},{"buffer":0,"byteOffset":3080,"byteLength":9684,"target":34962,"byteStride":12},{"buffer":0,"byteOffset":12764,"byteLength":9684,"target":34962,"byteStride":12},{"buffer":0,"byteOffset":22448,"byteLength":6456,"target":34962,"byteStride":8},{"buffer":0,"byteOffset":28904,"byteLength":2420,"target":34963},{"buffer":0,"byteOffset":31324,"byteLength":960,"target":34962,"byteStride":12},{"buffer":0,"byteOffset":32284,"byteLength":960,"target":34962,"byteStride":12},{"buffer":0,"byteOffset":33244,"byteLength":640,"target":34962,"byteStride":8},{"buffer":0,"byteOffset":33884,"byteLength":192,"target":34963},{"buffer":0,"byteOffset":34076,"byteLength":576,"target":34962,"byteStride":12},{"buffer":0,"byteOffset":34652,"byteLength":576,"target":34962,"byteStride":12},{"buffer":0,"byteOffset":35228,"byteLength":384,"target":34962,"byteStride":8},{"buffer":0,"byteOffset":35612,"byteLength":96,"target":34963},{"buffer":0,"byteOffset":35708,"byteLength":2880,"target":34962,"byteStride":12},{"buffer":0,"byteOffset":38588,"byteLength":2880,"target":34962,"byteStride":12},{"buffer":0,"byteOffset":41468,"byteLength":1920,"target":34962,"byteStride":8},{"buffer":0,"byteOffset":43388,"byteLength":480,"target":34963},{"buffer":0,"byteOffset":43868,"byteLength":840,"target":34962,"byteStride":12},{"buffer":0,"byteOffset":44708,"byteLength":840,"target":34962,"byteStride":12},{"buffer":0,"byteOffset":45548,"byteLength":560,"target":34962,"byteStride":8},{"buffer":0,"byteOffset":46108,"byteLength":168,"target":34963},{"buffer":0,"byteOffset":46276,"byteLength":2880,"target":34962,"byteStride":12},{"buffer":0,"byteOffset":49156,"byteLength":2880,"target":34962,"byteStride":12},{"buffer":0,"byteOffset":52036,"byteLength":1920,"target":34962,"byteStride":8},{"buffer":0,"byteOffset":53956,"byteLength":480,"target":34963}],"buffers":[{"byteLength":54436,"uri":"data:application/octet-stream;base64,"}],"accessors":[{"bufferView":0,"componentType":5126,"count":88,"max":[0.4375,0.0625,0.5],"min":[-0.4375,0,-0.5],"type":"VEC3"},{"bufferView":1,"componentType":5126,"count":88,"max":[1,1,1],"min":[-1,-1,-1],"type":"VEC3"},{"bufferView":2,"componentType":5126,"count":88,"max":[1,1],"min":[0,0.40625],"type":"VEC2"},{"bufferView":3,"componentType":5123,"count":132,"max":[87],"min":[0],"type":"SCALAR"},{"bufferView":4,"componentType":5126,"count":807,"max":[0.4375,1,0.5],"min":[-0.4375,0.0625,-0.5],"type":"VEC3"},{"bufferView":5,"componentType":5126,"count":807,"max":[1,1,1],"min":[-1,-1,-1],"type":"VEC3"},{"bufferView":6,"componentType":5126,"count":807,"max":[0.65625,1],"min":[0,0.38819658756256104],"type":"VEC2"},{"bufferView":7,"componentType":5123,"count":1209,"max":[806],"min":[0],"type":"SCALAR"},{"bufferView":8,"componentType":5126,"count":80,"max":[-0.21875,1.03125,-0.046875],"min":[-0.34375,0.96875,-0.171875],"type":"VEC3"},{"bufferView":9,"componentType":5126,"count":80,"max":[1,1,1],"min":[-1,-1,-1],"type":"VEC3"},{"bufferView":10,"componentType":5126,"count":80,"max":[0.016912296414375305,1],"min":[0,0.96875],"type":"VEC2"},{"bufferView":11,"componentType":5123,"count":96,"max":[79],"min":[0],"type":"SCALAR"},{"bufferView":12,"componentType":5126,"count":48,"max":[0,0.046875,0.046875],"min":[-0.03382308408617973,-0.015625,-0.02688639611005783],"type":"VEC3"},{"bufferView":13,"componentType":5126,"count":48,"max":[0.9345917105674744,0.8718352317810059,0.9891830682754517],"min":[-0.9345917105674744,-0.8718352317810059,-0.9891830682754517],"type":"VEC3"},{"bufferView":14,"componentType":5126,"count":48,"max":[0.75,1],"min":[0,0.25],"type":"VEC2"},{"bufferView":15,"componentType":5123,"count":48,"max":[47],"min":[0],"type":"SCALAR"},{"bufferView":16,"componentType":5126,"count":240,"max":[-0.006440012715756893,0.17423541843891144,0.04941318929195404],"min":[-0.0558880940079689,-0.08486846834421158,-0.24713580310344696],"type":"VEC3"},{"bufferView":17,"componentType":5126,"count":240,"max":[0.9842464923858643,0.9934991002082825,0.9891830682754517],"min":[-0.9842464923858643,-0.9934991002082825,-0.9891830682754517],"type":"VEC3"},{"bufferView":18,"componentType":5126,"count":240,"max":[0.75,1],"min":[0,0.25],"type":"VEC2"},{"bufferView":19,"componentType":5123,"count":240,"max":[239],"min":[0],"type":"SCALAR"},{"bufferView":20,"componentType":5126,"count":70,"max":[0.3020055294036865,0.1875,0.375],"min":[0.16674448549747467,0.0625,0.24313023686408997],"type":"VEC3"},{"bufferView":21,"componentType":5126,"count":70,"max":[0.9749279022216797,1,1],"min":[-0.9749279022216797,-1,-0.9009688496589661],"type":"VEC3"},{"bufferView":22,"componentType":5126,"count":70,"max":[0.7637414932250977,1],"min":[0,0.14153064787387848],"type":"VEC2"},{"bufferView":23,"componentType":5123,"count":84,"max":[69],"min":[0],"type":"SCALAR"},{"bufferView":24,"componentType":5126,"count":240,"max":[-0.006440012715756893,0.18986041843891144,0.14316318929195404],"min":[-0.0558880940079689,-0.06924346834421158,-0.15338580310344696],"type":"VEC3"},{"bufferView":25,"componentType":5126,"count":240,"max":[0.9842464923858643,0.9934991002082825,0.9891830682754517],"min":[-0.9842464923858643,-0.9934991002082825,-0.9891830682754517],"type":"VEC3"},{"bufferView":26,"componentType":5126,"count":240,"max":[0.75,1],"min":[0,0.25],"type":"VEC2"},{"bufferView":27,"componentType":5123,"count":240,"max":[239],"min":[0],"type":"SCALAR"}],"materials":[{"pbrMetallicRoughness":{"metallicFactor":0,"roughnessFactor":1,"baseColorTexture":{"index":0}},"alphaMode":"MASK","alphaCutoff":0.05,"doubleSided":true},{"pbrMetallicRoughness":{"metallicFactor":0,"roughnessFactor":1,"baseColorTexture":{"index":1}},"alphaMode":"MASK","alphaCutoff":0.05,"doubleSided":true},{"pbrMetallicRoughness":{"metallicFactor":0,"roughnessFactor":1},"alphaMode":"MASK","alphaCutoff":0.05,"doubleSided":true},{"pbrMetallicRoughness":{"metallicFactor":0,"roughnessFactor":1,"baseColorTexture":{"index":2}},"alphaMode":"MASK","alphaCutoff":0.05,"doubleSided":true},{"pbrMetallicRoughness":{"metallicFactor":0,"roughnessFactor":1,"baseColorTexture":{"index":3}},"alphaMode":"MASK","alphaCutoff":0.05,"doubleSided":true}],"textures":[{"sampler":0,"source":0,"name":"Floor.png"},{"sampler":1,"source":1,"name":"Forge.png"},{"sampler":2,"source":2,"name":"Stardust.png"},{"sampler":3,"source":3,"name":"PropCyl.png"}],"samplers":[{"magFilter":9728,"minFilter":9728,"wrapS":33071,"wrapT":33071},{"magFilter":9728,"minFilter":9728,"wrapS":33071,"wrapT":33071},{"magFilter":9728,"minFilter":9728,"wrapS":33071,"wrapT":33071},{"magFilter":9728,"minFilter":9728,"wrapS":33071,"wrapT":33071}],"images":[{"mimeType":"image/png","uri":"data:image/png;base64,"},{"mimeType":"image/png","uri":"data:image/png;base64,"},{"mimeType":"image/png","uri":"data:image/png;base64,"},{"mimeType":"image/png","uri":"data:image/png;base64,"}],"meshes":[{"primitives":[{"mode":4,"attributes":{"POSITION":0,"NORMAL":1,"TEXCOORD_0":2},"indices":3,"material":0}]},{"primitives":[{"mode":4,"attributes":{"POSITION":4,"NORMAL":5,"TEXCOORD_0":6},"indices":7,"material":1}]},{"primitives":[{"mode":4,"attributes":{"POSITION":8,"NORMAL":9,"TEXCOORD_0":10},"indices":11,"material":2}]},{"primitives":[{"mode":4,"attributes":{"POSITION":12,"NORMAL":13,"TEXCOORD_0":14},"indices":15,"material":3}]},{"primitives":[{"mode":4,"attributes":{"POSITION":16,"NORMAL":17,"TEXCOORD_0":18},"indices":19,"material":3}]},{"primitives":[{"mode":4,"attributes":{"POSITION":20,"NORMAL":21,"TEXCOORD_0":22},"indices":23,"material":4}]},{"primitives":[{"mode":4,"attributes":{"POSITION":24,"NORMAL":25,"TEXCOORD_0":26},"indices":27,"material":3}]}]}