{"asset":{"version":"2.0","generator":"Blockbench 4.6.5 glTF exporter"},"scenes":[{"nodes":[6],"name":"blockbench_export"}],"scene":0,"nodes":[{"name":"cube","mesh":0},{"rotation":[0,0,-2.1431029821212823e-17,1],"translation":[0.017660324662813004,0.014514603267263504,0.01800625347786469],"name":"sphere","mesh":1},{"rotation":[-0.21643961393810288,0,0,0.9762960071199334],"translation":[0,0.375,0],"name":"Planet","children":[1]},{"translation":[0,0,-0.015625],"name":"torus","mesh":2},{"name":"torus","mesh":3},{"translation":[0,0.375,0],"name":"Ring","children":[3,4]},{"children":[0,2,5]}],"bufferViews":[{"buffer":0,"byteOffset":0,"byteLength":288,"target":34962,"byteStride":12},{"buffer":0,"byteOffset":288,"byteLength":288,"target":34962,"byteStride":12},{"buffer":0,"byteOffset":576,"byteLength":192,"target":34962,"byteStride":8},{"buffer":0,"byteOffset":768,"byteLength":72,"target":34963},{"buffer":0,"byteOffset":840,"byteLength":3168,"target":34962,"byteStride":12},{"buffer":0,"byteOffset":4008,"byteLength":3168,"target":34962,"byteStride":12},{"buffer":0,"byteOffset":7176,"byteLength":2112,"target":34962,"byteStride":8},{"buffer":0,"byteOffset":9288,"byteLength":720,"target":34963},{"buffer":0,"byteOffset":10008,"byteLength":3456,"target":34962,"byteStride":12},{"buffer":0,"byteOffset":13464,"byteLength":3456,"target":34962,"byteStride":12},{"buffer":0,"byteOffset":16920,"byteLength":2304,"target":34962,"byteStride":8},{"buffer":0,"byteOffset":19224,"byteLength":864,"target":34963},{"buffer":0,"byteOffset":20088,"byteLength":4608,"target":34962,"byteStride":12},{"buffer":0,"byteOffset":24696,"byteLength":4608,"target":34962,"byteStride":12},{"buffer":0,"byteOffset":29304,"byteLength":3072,"target":34962,"byteStride":8},{"buffer":0,"byteOffset":32376,"byteLength":1152,"target":34963},{"buffer":0,"byteOffset":33528,"byteLength":20},{"buffer":0,"byteOffset":33548,"byteLength":80},{"buffer":0,"byteOffset":33628,"byteLength":20},{"buffer":0,"byteOffset":33648,"byteLength":80}],"buffers":[{"byteLength":33728,"uri":"data:application/octet-stream;base64,"}],"accessors":[{"bufferView":0,"componentType":5126,"count":24,"max":[0.078125,0.25312501192092896,0.09375],"min":[-0.078125,0,-0.0625],"type":"VEC3"},{"bufferView":1,"componentType":5126,"count":24,"max":[1,1,1],"min":[-1,-1,-1],"type":"VEC3"},{"bufferView":2,"componentType":5126,"count":24,"max":[0.7490234375,0.6865234375],"min":[0.2509765625,0.3134765625],"type":"VEC2"},{"bufferView":3,"componentType":5123,"count":36,"max":[23],"min":[0],"type":"SCALAR"},{"bufferView":4,"componentType":5126,"count":264,"max":[0.109375,0.125,0.125],"min":[-0.140625,-0.125,-0.125],"type":"VEC3"},{"bufferView":5,"componentType":5126,"count":264,"max":[0.9659258127212524,0.9659258127212524,0.9659258127212524],"min":[-0.9659258127212524,-0.9659258127212524,-0.9659258127212524],"type":"VEC3"},{"bufferView":6,"componentType":5126,"count":264,"max":[0.6918314695358276,1],"min":[0,0.25],"type":"VEC2"},{"bufferView":7,"componentType":5123,"count":360,"max":[263],"min":[0],"type":"SCALAR"},{"bufferView":8,"componentType":5126,"count":288,"max":[0.4333132803440094,0.016727380454540253,0.4176882803440094],"min":[-0.4333132803440094,-0.016727380454540253,-0.3864382803440094],"type":"VEC3"},{"bufferView":9,"componentType":5126,"count":288,"max":[1,0.9719046950340271,1],"min":[-1,-0.9719046950340271,-1],"type":"VEC3"},{"bufferView":10,"componentType":5126,"count":288,"max":[0.18197500705718994,1],"min":[0,0.9676499962806702],"type":"VEC2"},{"bufferView":11,"componentType":5123,"count":432,"max":[287],"min":[0],"type":"SCALAR"},{"bufferView":12,"componentType":5126,"count":384,"max":[0.46875,0.02003452181816101,0.453125],"min":[-0.46875,-0.02003452181816101,-0.453125],"type":"VEC3"},{"bufferView":13,"componentType":5126,"count":384,"max":[0.4584971070289612,0.9961051344871521,0.47084805369377136],"min":[-0.4584971070289612,-0.9961051344871521,-0.47084805369377136],"type":"VEC3"},{"bufferView":14,"componentType":5126,"count":384,"max":[0.33493751287460327,1],"min":[0,0.901437520980835],"type":"VEC2"},{"bufferView":15,"componentType":5123,"count":576,"max":[383],"min":[0],"type":"SCALAR"},{"bufferView":16,"componentType":5126,"count":5,"max":[2],"min":[0],"type":"SCALAR"},{"bufferView":17,"componentType":5126,"count":5,"max":[0.21315141022205353,0.799734890460968,0.1772969514131546,0.5599803924560547],"min":[-0.12414466589689255,-0.9614638686180115,-0.21315141022205353,-0.9614638686180115],"type":"VEC4"},{"bufferView":18,"componentType":5126,"count":5,"max":[2],"min":[0],"type":"SCALAR"},{"bufferView":19,"componentType":5126,"count":5,"max":[0,0.7071067690849304,0,0.7071067690849304],"min":[0,-1,0,-1],"type":"VEC4"}],"materials":[{"pbrMetallicRoughness":{"metallicFactor":0,"roughnessFactor":1,"baseColorTexture":{"index":0}},"alphaMode":"MASK","alphaCutoff":0.05,"doubleSided":true},{"pbrMetallicRoughness":{"metallicFactor":0,"roughnessFactor":1,"baseColorTexture":{"index":1}},"alphaMode":"MASK","alphaCutoff":0.05,"doubleSided":true},{"pbrMetallicRoughness":{"metallicFactor":0,"roughnessFactor":1,"baseColorTexture":{"index":2}},"alphaMode":"MASK","alphaCutoff":0.05,"doubleSided":true}],"textures":[{"sampler":0,"source":0,"name":"Tower.png"},{"sampler":1,"source":1,"name":"Saturn.png"},{"sampler":2,"source":2,"name":"Ring.png"}],"samplers":[{"magFilter":9728,"minFilter":9728,"wrapS":33071,"wrapT":33071},{"magFilter":9728,"minFilter":9728,"wrapS":33071,"wrapT":33071},{"magFilter":9728,"minFilter":9728,"wrapS":33071,"wrapT":33071}],"images":[{"mimeType":"image/png","uri":"data:image/png;base64,"},{"mimeType":"image/png","uri":"data:image/png;base64,"},{"mimeType":"image/png","uri":"data:image/png;base64,"}],"meshes":[{"primitives":[{"mode":4,"attributes":{"POSITION":0,"NORMAL":1,"TEXCOORD_0":2},"indices":3,"material":0}]},{"primitives":[{"mode":4,"attributes":{"POSITION":4,"NORMAL":5,"TEXCOORD_0":6},"indices":7,"material":1}]},{"primitives":[{"mode":4,"attributes":{"POSITION":8,"NORMAL":9,"TEXCOORD_0":10},"indices":11,"material":2}]},{"primitives":[{"mode":4,"attributes":{"POSITION":12,"NORMAL":13,"TEXCOORD_0":14},"indices":15,"material":2}]}],"animations":[{"name":"Planet_Ring","samplers":[{"input":16,"output":17,"interpolation":"LINEAR"},{"input":18,"output":19,"interpolation":"LINEAR"}],"channels":[{"sampler":0,"target":{"node":2,"path":"rotation"}},{"sampler":1,"target":{"node":5,"path":"rotation"}}]}]}