{"asset":{"version":"2.0","generator":"Blockbench 4.6.5 glTF exporter"},"scenes":[{"nodes":[16],"name":"blockbench_export"}],"scene":0,"nodes":[{"name":"cube","mesh":0},{"name":"Platform","mesh":1},{"rotation":[9.671845881648028e-17,-9.671845881648027e-17,0.7071067811865475,0.7071067811865476],"name":"sphere","mesh":2},{"translation":[0,0.1875,0],"name":"bone4","children":[2]},{"translation":[0,-0.1875,0],"name":"sphere","mesh":3},{"translation":[0,0.1875,0],"name":"bone3","children":[4]},{"rotation":[1.2396528319028266e-16,5.780596089698193e-17,-0.42261826174069944,0.9063077870366499],"name":"sphere","mesh":4},{"translation":[0,0.1875,0],"name":"bone","children":[6]},{"rotation":[1.2396528319028266e-16,-5.780596089698193e-17,0.42261826174069944,0.9063077870366499],"name":"sphere","mesh":5},{"translation":[0,0.1875,0],"name":"bone2","children":[8]},{"translation":[0,0.40625,0],"name":"Ring","children":[3,5,7,9]},{"name":"cube","mesh":6},{"name":"Up2","children":[11]},{"rotation":[-0.7071067811865475,0,0,0.7071067811865476],"name":"cube","mesh":7},{"name":"Across2","children":[13]},{"translation":[0,-0.015625000000000003,0.0125],"name":"Fence2","children":[12,14]},{"children":[0,1,10,15]}],"bufferViews":[{"buffer":0,"byteOffset":0,"byteLength":288,"target":34962,"byteStride":12},{"buffer":0,"byteOffset":288,"byteLength":288,"target":34962,"byteStride":12},{"buffer":0,"byteOffset":576,"byteLength":192,"target":34962,"byteStride":8},{"buffer":0,"byteOffset":768,"byteLength":72,"target":34963},{"buffer":0,"byteOffset":840,"byteLength":288,"target":34962,"byteStride":12},{"buffer":0,"byteOffset":1128,"byteLength":288,"target":34962,"byteStride":12},{"buffer":0,"byteOffset":1416,"byteLength":192,"target":34962,"byteStride":8},{"buffer":0,"byteOffset":1608,"byteLength":72,"target":34963},{"buffer":0,"byteOffset":1680,"byteLength":49680,"target":34962,"byteStride":12},{"buffer":0,"byteOffset":51360,"byteLength":49680,"target":34962,"byteStride":12},{"buffer":0,"byteOffset":101040,"byteLength":33120,"target":34962,"byteStride":8},{"buffer":0,"byteOffset":134160,"byteLength":11040,"target":34963},{"buffer":0,"byteOffset":145200,"byteLength":49680,"target":34962,"byteStride":12},{"buffer":0,"byteOffset":194880,"byteLength":49680,"target":34962,"byteStride":12},{"buffer":0,"byteOffset":244560,"byteLength":33120,"target":34962,"byteStride":8},{"buffer":0,"byteOffset":277680,"byteLength":11040,"target":34963},{"buffer":0,"byteOffset":288720,"byteLength":49680,"target":34962,"byteStride":12},{"buffer":0,"byteOffset":338400,"byteLength":49680,"target":34962,"byteStride":12},{"buffer":0,"byteOffset":388080,"byteLength":33120,"target":34962,"byteStride":8},{"buffer":0,"byteOffset":421200,"byteLength":11040,"target":34963},{"buffer":0,"byteOffset":432240,"byteLength":49680,"target":34962,"byteStride":12},{"buffer":0,"byteOffset":481920,"byteLength":49680,"target":34962,"byteStride":12},{"buffer":0,"byteOffset":531600,"byteLength":33120,"target":34962,"byteStride":8},{"buffer":0,"byteOffset":564720,"byteLength":11040,"target":34963},{"buffer":0,"byteOffset":575760,"byteLength":1152,"target":34962,"byteStride":12},{"buffer":0,"byteOffset":576912,"byteLength":1152,"target":34962,"byteStride":12},{"buffer":0,"byteOffset":578064,"byteLength":768,"target":34962,"byteStride":8},{"buffer":0,"byteOffset":578832,"byteLength":288,"target":34963},{"buffer":0,"byteOffset":579120,"byteLength":1152,"target":34962,"byteStride":12},{"buffer":0,"byteOffset":580272,"byteLength":1152,"target":34962,"byteStride":12},{"buffer":0,"byteOffset":581424,"byteLength":768,"target":34962,"byteStride":8},{"buffer":0,"byteOffset":582192,"byteLength":288,"target":34963},{"buffer":0,"byteOffset":582480,"byteLength":20},{"buffer":0,"byteOffset":582500,"byteLength":80},{"buffer":0,"byteOffset":582580,"byteLength":20},{"buffer":0,"byteOffset":582600,"byteLength":80},{"buffer":0,"byteOffset":582680,"byteLength":20},{"buffer":0,"byteOffset":582700,"byteLength":80},{"buffer":0,"byteOffset":582780,"byteLength":20},{"buffer":0,"byteOffset":582800,"byteLength":80},{"buffer":0,"byteOffset":582880,"byteLength":20},{"buffer":0,"byteOffset":582900,"byteLength":80}],"buffers":[{"byteLength":582980,"uri":"data:application/octet-stream;base64,"}],"accessors":[{"bufferView":0,"componentType":5126,"count":24,"max":[0.078125,0.14374999701976776,0.09375],"min":[-0.078125,0,-0.0625],"type":"VEC3"},{"bufferView":1,"componentType":5126,"count":24,"max":[1,1,1],"min":[-1,-1,-1],"type":"VEC3"},{"bufferView":2,"componentType":5126,"count":24,"max":[0.187255859375,0.921630859375],"min":[0.062744140625,0.859619140625],"type":"VEC2"},{"bufferView":3,"componentType":5123,"count":36,"max":[23],"min":[0],"type":"SCALAR"},{"bufferView":4,"componentType":5126,"count":24,"max":[0.125,0.03125,0.13750000298023224],"min":[-0.125,0,-0.11249999701976776],"type":"VEC3"},{"bufferView":5,"componentType":5126,"count":24,"max":[1,1,1],"min":[-1,-1,-1],"type":"VEC3"},{"bufferView":6,"componentType":5126,"count":24,"max":[0.249755859375,0.999755859375],"min":[0.000244140625,0.937255859375],"type":"VEC2"},{"bufferView":7,"componentType":5123,"count":36,"max":[23],"min":[0],"type":"SCALAR"},{"bufferView":8,"componentType":5126,"count":4140,"max":[0.53125,0.0677809938788414,0.4672205150127411],"min":[-0.40625,-0.06528598070144653,-0.4479950964450836],"type":"VEC3"},{"bufferView":9,"componentType":5126,"count":4140,"max":[0.9510565400123596,0.9999619126319885,1],"min":[-0.9510565400123596,-0.9999619126319885,-1],"type":"VEC3"},{"bufferView":10,"componentType":5126,"count":4140,"max":[0.828125,1],"min":[0,0.171875],"type":"VEC2"},{"bufferView":11,"componentType":5123,"count":5520,"max":[4139],"min":[0],"type":"SCALAR"},{"bufferView":12,"componentType":5126,"count":4140,"max":[0.46875,0.270906001329422,0.4672205150127411],"min":[-0.46875,0.13783901929855347,-0.4479950964450836],"type":"VEC3"},{"bufferView":13,"componentType":5126,"count":4140,"max":[0.9510565400123596,0.9999619126319885,1],"min":[-0.9510565400123596,-0.9999619126319885,-1],"type":"VEC3"},{"bufferView":14,"componentType":5126,"count":4140,"max":[0.828125,1],"min":[0,0.171875],"type":"VEC2"},{"bufferView":15,"componentType":5123,"count":5520,"max":[4139],"min":[0],"type":"SCALAR"},{"bufferView":16,"componentType":5126,"count":4140,"max":[0.46875,0.0990309938788414,0.4672205150127411],"min":[-0.46875,-0.034035976976156235,-0.4479950964450836],"type":"VEC3"},{"bufferView":17,"componentType":5126,"count":4140,"max":[0.9510565400123596,0.9999619126319885,1],"min":[-0.9510565400123596,-0.9999619126319885,-1],"type":"VEC3"},{"bufferView":18,"componentType":5126,"count":4140,"max":[0.828125,1],"min":[0,0.171875],"type":"VEC2"},{"bufferView":19,"componentType":5123,"count":5520,"max":[4139],"min":[0],"type":"SCALAR"},{"bufferView":20,"componentType":5126,"count":4140,"max":[0.46875,0.0990309938788414,0.4672205150127411],"min":[-0.46875,-0.034035976976156235,-0.4479950964450836],"type":"VEC3"},{"bufferView":21,"componentType":5126,"count":4140,"max":[0.9510565400123596,0.9999619126319885,1],"min":[-0.9510565400123596,-0.9999619126319885,-1],"type":"VEC3"},{"bufferView":22,"componentType":5126,"count":4140,"max":[0.828125,1],"min":[0,0.171875],"type":"VEC2"},{"bufferView":23,"componentType":5123,"count":5520,"max":[4139],"min":[0],"type":"SCALAR"},{"bufferView":24,"componentType":5126,"count":96,"max":[0.125,0.16249999403953552,0.125],"min":[-0.125,0.03125,-0.125],"type":"VEC3"},{"bufferView":25,"componentType":5126,"count":96,"max":[1,1,1],"min":[-1,-1,-1],"type":"VEC3"},{"bufferView":26,"componentType":5126,"count":96,"max":[0,1],"min":[0,0.96875],"type":"VEC2"},{"bufferView":27,"componentType":5123,"count":144,"max":[95],"min":[0],"type":"SCALAR"},{"bufferView":28,"componentType":5126,"count":96,"max":[0.125,0.125,0.15625],"min":[-0.125,-0.125,0.125],"type":"VEC3"},{"bufferView":29,"componentType":5126,"count":96,"max":[1,1,1],"min":[-1,-1,-1],"type":"VEC3"},{"bufferView":30,"componentType":5126,"count":96,"max":[0,1],"min":[0,0.953125],"type":"VEC2"},{"bufferView":31,"componentType":5123,"count":144,"max":[95],"min":[0],"type":"SCALAR"},{"bufferView":32,"componentType":5126,"count":5,"max":[3],"min":[0],"type":"SCALAR"},{"bufferView":33,"componentType":5126,"count":5,"max":[0,0.7071067690849304,0,0.7071067690849304],"min":[0,-1,0,-1],"type":"VEC4"},{"bufferView":34,"componentType":5126,"count":5,"max":[3],"min":[0],"type":"SCALAR"},{"bufferView":35,"componentType":5126,"count":5,"max":[0.5,-1.4997597572211942e-32,0.5,1],"min":[-0.5,-1,-0.5,3.7493993930529855e-33],"type":"VEC4"},{"bufferView":36,"componentType":5126,"count":5,"max":[3],"min":[0],"type":"SCALAR"},{"bufferView":37,"componentType":5126,"count":5,"max":[0,0,1,0.7071067690849304],"min":[0,0,-0.7071067690849304,-1],"type":"VEC4"},{"bufferView":38,"componentType":5126,"count":5,"max":[3],"min":[0],"type":"SCALAR"},{"bufferView":39,"componentType":5126,"count":5,"max":[0.5,-1.4997597572211942e-32,0.5,1],"min":[-0.5,-1,-0.5,3.7493993930529855e-33],"type":"VEC4"},{"bufferView":40,"componentType":5126,"count":5,"max":[3],"min":[0],"type":"SCALAR"},{"bufferView":41,"componentType":5126,"count":5,"max":[0,0,1,0.7071067690849304],"min":[0,0,-0.7071067690849304,-1],"type":"VEC4"}],"materials":[{"pbrMetallicRoughness":{"metallicFactor":0,"roughnessFactor":1,"baseColorTexture":{"index":0}},"alphaMode":"MASK","alphaCutoff":0.05,"doubleSided":true},{"pbrMetallicRoughness":{"metallicFactor":0,"roughnessFactor":1,"baseColorTexture":{"index":1}},"alphaMode":"MASK","alphaCutoff":0.05,"doubleSided":true}],"textures":[{"sampler":0,"source":0,"name":"Tower.png"},{"sampler":1,"source":1,"name":"AsteroidSt.png"}],"samplers":[{"magFilter":9728,"minFilter":9728,"wrapS":33071,"wrapT":33071},{"magFilter":9728,"minFilter":9728,"wrapS":33071,"wrapT":33071}],"images":[{"mimeType":"image/png","uri":"data:image/png;base64,"},{"mimeType":"image/png","uri":"data:image/png;base64,"}],"meshes":[{"primitives":[{"mode":4,"attributes":{"POSITION":0,"NORMAL":1,"TEXCOORD_0":2},"indices":3,"material":0}]},{"primitives":[{"mode":4,"attributes":{"POSITION":4,"NORMAL":5,"TEXCOORD_0":6},"indices":7,"material":0}]},{"primitives":[{"mode":4,"attributes":{"POSITION":8,"NORMAL":9,"TEXCOORD_0":10},"indices":11,"material":1}]},{"primitives":[{"mode":4,"attributes":{"POSITION":12,"NORMAL":13,"TEXCOORD_0":14},"indices":15,"material":1}]},{"primitives":[{"mode":4,"attributes":{"POSITION":16,"NORMAL":17,"TEXCOORD_0":18},"indices":19,"material":1}]},{"primitives":[{"mode":4,"attributes":{"POSITION":20,"NORMAL":21,"TEXCOORD_0":22},"indices":23,"material":1}]},{"primitives":[{"mode":4,"attributes":{"POSITION":24,"NORMAL":25,"TEXCOORD_0":26},"indices":27,"material":0}]},{"primitives":[{"mode":4,"attributes":{"POSITION":28,"NORMAL":29,"TEXCOORD_0":30},"indices":31,"material":0}]}],"animations":[{"name":"Planet_Ring","samplers":[{"input":32,"output":33,"interpolation":"LINEAR"},{"input":34,"output":35,"interpolation":"LINEAR"},{"input":36,"output":37,"interpolation":"LINEAR"},{"input":38,"output":39,"interpolation":"LINEAR"},{"input":40,"output":41,"interpolation":"LINEAR"}],"channels":[{"sampler":0,"target":{"node":10,"path":"rotation"}},{"sampler":1,"target":{"node":5,"path":"rotation"}},{"sampler":2,"target":{"node":7,"path":"rotation"}},{"sampler":3,"target":{"node":9,"path":"rotation"}},{"sampler":4,"target":{"node":3,"path":"rotation"}}]}]}