{"asset":{"version":"2.0","generator":"Blockbench 4.7.0 glTF exporter"},"scenes":[{"nodes":[15],"name":"blockbench_export"}],"scene":0,"nodes":[{"name":"cube","mesh":0},{"name":"Platform","mesh":1},{"name":"Platform","mesh":2},{"rotation":[0,0,-2.1431029821212823e-17,1],"translation":[-0.015625,0.2567165500264261,0.014285818913039566],"name":"sphere","mesh":3},{"rotation":[0,0,-2.1431029821212823e-17,1],"translation":[-0.015625,0.2567165500264261,0.014285818913039566],"name":"sphere","mesh":4},{"rotation":[-0.7071067811865475,0,0,0.7071067811865476],"translation":[0,1.1102230246251565e-16,0],"name":"cone","mesh":5},{"rotation":[-0.2988362387301184,0.6408563820557891,-0.6408563820557894,0.2988362387301184],"translation":[0,1.1102230246251565e-16,0],"name":"cone","mesh":6},{"rotation":[0,-0.7071067811865475,0,0.7071067811865476],"translation":[0,1.1102230246251565e-16,0],"name":"cone","mesh":7},{"rotation":[0,-0.9238795325112867,0,0.38268343236508984],"translation":[0,1.1102230246251565e-16,0],"name":"cone","mesh":8},{"rotation":[0,0.9153114791194471,0,0.40274668985873724],"translation":[0,1.1102230246251565e-16,0],"name":"cone","mesh":9},{"rotation":[-0.640856370609102,0.29883623277136057,-0.2988362446888931,0.6408563935024685],"translation":[0,1.1102230246251565e-16,0],"name":"cone","mesh":10},{"translation":[-0.3125,0.009375000000000577,0],"name":"bone4","children":[5,6,7,8,9,10]},{"translation":[0,0.5,0],"name":"bone","children":[3,4,11]},{"rotation":[-0.7071067811865475,0,0,0.7071067811865476],"translation":[0,1.1102230246251565e-16,0],"name":"cone","mesh":11},{"translation":[0,0.4500000000000004,0],"name":"bone2","children":[13]},{"children":[0,1,2,12,14]}],"bufferViews":[{"buffer":0,"byteOffset":0,"byteLength":288,"target":34962,"byteStride":12},{"buffer":0,"byteOffset":288,"byteLength":288,"target":34962,"byteStride":12},{"buffer":0,"byteOffset":576,"byteLength":192,"target":34962,"byteStride":8},{"buffer":0,"byteOffset":768,"byteLength":72,"target":34963},{"buffer":0,"byteOffset":840,"byteLength":288,"target":34962,"byteStride":12},{"buffer":0,"byteOffset":1128,"byteLength":288,"target":34962,"byteStride":12},{"buffer":0,"byteOffset":1416,"byteLength":192,"target":34962,"byteStride":8},{"buffer":0,"byteOffset":1608,"byteLength":72,"target":34963},{"buffer":0,"byteOffset":1680,"byteLength":288,"target":34962,"byteStride":12},{"buffer":0,"byteOffset":1968,"byteLength":288,"target":34962,"byteStride":12},{"buffer":0,"byteOffset":2256,"byteLength":192,"target":34962,"byteStride":8},{"buffer":0,"byteOffset":2448,"byteLength":72,"target":34963},{"buffer":0,"byteOffset":2520,"byteLength":3168,"target":34962,"byteStride":12},{"buffer":0,"byteOffset":5688,"byteLength":3168,"target":34962,"byteStride":12},{"buffer":0,"byteOffset":8856,"byteLength":2112,"target":34962,"byteStride":8},{"buffer":0,"byteOffset":10968,"byteLength":720,"target":34963},{"buffer":0,"byteOffset":11688,"byteLength":3168,"target":34962,"byteStride":12},{"buffer":0,"byteOffset":14856,"byteLength":3168,"target":34962,"byteStride":12},{"buffer":0,"byteOffset":18024,"byteLength":2112,"target":34962,"byteStride":8},{"buffer":0,"byteOffset":20136,"byteLength":720,"target":34963},{"buffer":0,"byteOffset":20856,"byteLength":3456,"target":34962,"byteStride":12},{"buffer":0,"byteOffset":24312,"byteLength":3456,"target":34962,"byteStride":12},{"buffer":0,"byteOffset":27768,"byteLength":2304,"target":34962,"byteStride":8},{"buffer":0,"byteOffset":30072,"byteLength":576,"target":34963},{"buffer":0,"byteOffset":30648,"byteLength":3456,"target":34962,"byteStride":12},{"buffer":0,"byteOffset":34104,"byteLength":3456,"target":34962,"byteStride":12},{"buffer":0,"byteOffset":37560,"byteLength":2304,"target":34962,"byteStride":8},{"buffer":0,"byteOffset":39864,"byteLength":576,"target":34963},{"buffer":0,"byteOffset":40440,"byteLength":3456,"target":34962,"byteStride":12},{"buffer":0,"byteOffset":43896,"byteLength":3456,"target":34962,"byteStride":12},{"buffer":0,"byteOffset":47352,"byteLength":2304,"target":34962,"byteStride":8},{"buffer":0,"byteOffset":49656,"byteLength":576,"target":34963},{"buffer":0,"byteOffset":50232,"byteLength":3456,"target":34962,"byteStride":12},{"buffer":0,"byteOffset":53688,"byteLength":3456,"target":34962,"byteStride":12},{"buffer":0,"byteOffset":57144,"byteLength":2304,"target":34962,"byteStride":8},{"buffer":0,"byteOffset":59448,"byteLength":576,"target":34963},{"buffer":0,"byteOffset":60024,"byteLength":3456,"target":34962,"byteStride":12},{"buffer":0,"byteOffset":63480,"byteLength":3456,"target":34962,"byteStride":12},{"buffer":0,"byteOffset":66936,"byteLength":2304,"target":34962,"byteStride":8},{"buffer":0,"byteOffset":69240,"byteLength":576,"target":34963},{"buffer":0,"byteOffset":69816,"byteLength":3456,"target":34962,"byteStride":12},{"buffer":0,"byteOffset":73272,"byteLength":3456,"target":34962,"byteStride":12},{"buffer":0,"byteOffset":76728,"byteLength":2304,"target":34962,"byteStride":8},{"buffer":0,"byteOffset":79032,"byteLength":576,"target":34963},{"buffer":0,"byteOffset":79608,"byteLength":3456,"target":34962,"byteStride":12},{"buffer":0,"byteOffset":83064,"byteLength":3456,"target":34962,"byteStride":12},{"buffer":0,"byteOffset":86520,"byteLength":2304,"target":34962,"byteStride":8},{"buffer":0,"byteOffset":88824,"byteLength":576,"target":34963},{"buffer":0,"byteOffset":89400,"byteLength":20},{"buffer":0,"byteOffset":89420,"byteLength":80},{"buffer":0,"byteOffset":89500,"byteLength":20},{"buffer":0,"byteOffset":89520,"byteLength":80},{"buffer":0,"byteOffset":89600,"byteLength":12},{"buffer":0,"byteOffset":89612,"byteLength":36},{"buffer":0,"byteOffset":89648,"byteLength":12},{"buffer":0,"byteOffset":89660,"byteLength":36}],"buffers":[{"byteLength":89696,"uri":"data:application/octet-stream;base64,"}],"accessors":[{"bufferView":0,"componentType":5126,"count":24,"max":[0.078125,0.26875001192092896,0.078125],"min":[-0.078125,0,-0.078125],"type":"VEC3"},{"bufferView":1,"componentType":5126,"count":24,"max":[1,1,1],"min":[-1,-1,-1],"type":"VEC3"},{"bufferView":2,"componentType":5126,"count":24,"max":[0.4990234375,0.3740234375],"min":[0.0009765625,0.0009765625],"type":"VEC2"},{"bufferView":3,"componentType":5123,"count":36,"max":[23],"min":[0],"type":"SCALAR"},{"bufferView":4,"componentType":5126,"count":24,"max":[0.125,0.03125,0.12187500298023224],"min":[-0.125,0,-0.12812499701976776],"type":"VEC3"},{"bufferView":5,"componentType":5126,"count":24,"max":[1,1,1],"min":[-1,-1,-1],"type":"VEC3"},{"bufferView":6,"componentType":5126,"count":24,"max":[0.7490234375,0.3759765625],"min":[-0.2490234375,0.1259765625],"type":"VEC2"},{"bufferView":7,"componentType":5123,"count":36,"max":[23],"min":[0],"type":"SCALAR"},{"bufferView":8,"componentType":5126,"count":24,"max":[0.125,0.296875,0.12187500298023224],"min":[-0.125,0.265625,-0.12812499701976776],"type":"VEC3"},{"bufferView":9,"componentType":5126,"count":24,"max":[1,1,1],"min":[-1,-1,-1],"type":"VEC3"},{"bufferView":10,"componentType":5126,"count":24,"max":[0.7490234375,0.3759765625],"min":[-0.2490234375,0.1259765625],"type":"VEC2"},{"bufferView":11,"componentType":5123,"count":36,"max":[23],"min":[0],"type":"SCALAR"},{"bufferView":12,"componentType":5126,"count":264,"max":[0.140625,-0.125,0.109375],"min":[-0.109375,-0.375,-0.140625],"type":"VEC3"},{"bufferView":13,"componentType":5126,"count":264,"max":[0.9659258127212524,0.9659258127212524,0.9659258127212524],"min":[-0.9659258127212524,-0.9659258127212524,-0.9659258127212524],"type":"VEC3"},{"bufferView":14,"componentType":5126,"count":264,"max":[0.21522849798202515,0.2430202215909958],"min":[0.0016373773105442524,0],"type":"VEC2"},{"bufferView":15,"componentType":5123,"count":360,"max":[263],"min":[0],"type":"SCALAR"},{"bufferView":16,"componentType":5126,"count":264,"max":[-0.234375,-0.1875,0.046875],"min":[-0.359375,-0.3125,-0.078125],"type":"VEC3"},{"bufferView":17,"componentType":5126,"count":264,"max":[0.9659258127212524,0.9659258127212524,0.9659258127212524],"min":[-0.9659258127212524,-0.9659258127212524,-0.9659258127212524],"type":"VEC3"},{"bufferView":18,"componentType":5126,"count":264,"max":[0.4967544376850128,0.5],"min":[0.010343868285417557,0],"type":"VEC2"},{"bufferView":19,"componentType":5123,"count":360,"max":[263],"min":[0],"type":"SCALAR"},{"bufferView":20,"componentType":5126,"count":288,"max":[0.11874999850988388,0.125,0.012500000186264515],"min":[-0.11874999850988388,-0.125,-0.012500000186264515],"type":"VEC3"},{"bufferView":21,"componentType":5126,"count":288,"max":[1,1,0.9786534905433655],"min":[-1,-1,-0.9786534905433655],"type":"VEC3"},{"bufferView":22,"componentType":5126,"count":288,"max":[0.2678340971469879,0.21788126230239868],"min":[0.203125,0.078125],"type":"VEC2"},{"bufferView":23,"componentType":5123,"count":288,"max":[287],"min":[0],"type":"SCALAR"},{"bufferView":24,"componentType":5126,"count":288,"max":[0.11874999850988388,0.125,0.012500000186264515],"min":[-0.11874999850988388,-0.125,-0.012500000186264515],"type":"VEC3"},{"bufferView":25,"componentType":5126,"count":288,"max":[1,1,0.9786534905433655],"min":[-1,-1,-0.9786534905433655],"type":"VEC3"},{"bufferView":26,"componentType":5126,"count":288,"max":[0.2678340971469879,0.21788126230239868],"min":[0.203125,0.078125],"type":"VEC2"},{"bufferView":27,"componentType":5123,"count":288,"max":[287],"min":[0],"type":"SCALAR"},{"bufferView":28,"componentType":5126,"count":288,"max":[0.11874999850988388,0.125,0.012500000186264515],"min":[-0.11874999850988388,-0.125,-0.012500000186264515],"type":"VEC3"},{"bufferView":29,"componentType":5126,"count":288,"max":[1,1,0.9786534905433655],"min":[-1,-1,-0.9786534905433655],"type":"VEC3"},{"bufferView":30,"componentType":5126,"count":288,"max":[0.2678340971469879,0.21788126230239868],"min":[0.203125,0.078125],"type":"VEC2"},{"bufferView":31,"componentType":5123,"count":288,"max":[287],"min":[0],"type":"SCALAR"},{"bufferView":32,"componentType":5126,"count":288,"max":[0.11874999850988388,0.125,0.012500000186264515],"min":[-0.11874999850988388,-0.125,-0.012500000186264515],"type":"VEC3"},{"bufferView":33,"componentType":5126,"count":288,"max":[1,1,0.9786534905433655],"min":[-1,-1,-0.9786534905433655],"type":"VEC3"},{"bufferView":34,"componentType":5126,"count":288,"max":[0.2678340971469879,0.21788126230239868],"min":[0.203125,0.078125],"type":"VEC2"},{"bufferView":35,"componentType":5123,"count":288,"max":[287],"min":[0],"type":"SCALAR"},{"bufferView":36,"componentType":5126,"count":288,"max":[0.11874999850988388,0.125,0.012500000186264515],"min":[-0.11874999850988388,-0.125,-0.012500000186264515],"type":"VEC3"},{"bufferView":37,"componentType":5126,"count":288,"max":[1,1,0.9786534905433655],"min":[-1,-1,-0.9786534905433655],"type":"VEC3"},{"bufferView":38,"componentType":5126,"count":288,"max":[0.2678340971469879,0.21788126230239868],"min":[0.203125,0.078125],"type":"VEC2"},{"bufferView":39,"componentType":5123,"count":288,"max":[287],"min":[0],"type":"SCALAR"},{"bufferView":40,"componentType":5126,"count":288,"max":[0.11874999850988388,0.125,0.012500000186264515],"min":[-0.11874999850988388,-0.125,-0.012500000186264515],"type":"VEC3"},{"bufferView":41,"componentType":5126,"count":288,"max":[1,1,0.9786534905433655],"min":[-1,-1,-0.9786534905433655],"type":"VEC3"},{"bufferView":42,"componentType":5126,"count":288,"max":[0.2678340971469879,0.21788126230239868],"min":[0.203125,0.078125],"type":"VEC2"},{"bufferView":43,"componentType":5123,"count":288,"max":[287],"min":[0],"type":"SCALAR"},{"bufferView":44,"componentType":5126,"count":288,"max":[0.26249998807907104,0.26249998807907104,0.07500000298023224],"min":[-0.26249998807907104,-0.26249998807907104,0.05000000074505806],"type":"VEC3"},{"bufferView":45,"componentType":5126,"count":288,"max":[1,1,0.9950371980667114],"min":[-1,-1,-0.9950371980667114],"type":"VEC3"},{"bufferView":46,"componentType":5126,"count":288,"max":[0.2678340971469879,0.21788126230239868],"min":[0.203125,0.078125],"type":"VEC2"},{"bufferView":47,"componentType":5123,"count":288,"max":[287],"min":[0],"type":"SCALAR"},{"bufferView":48,"componentType":5126,"count":5,"max":[2],"min":[0],"type":"SCALAR"},{"bufferView":49,"componentType":5126,"count":5,"max":[0,0.8191520571708679,0,0.5735764503479004],"min":[0,-0.9848077297210693,0,-0.9848077297210693],"type":"VEC4"},{"bufferView":50,"componentType":5126,"count":5,"max":[2],"min":[0],"type":"SCALAR"},{"bufferView":51,"componentType":5126,"count":5,"max":[0,0.8191520571708679,0,0.5735764503479004],"min":[0,-0.9848077297210693,0,-0.9848077297210693],"type":"VEC4"},{"bufferView":52,"componentType":5126,"count":3,"max":[2],"min":[0],"type":"SCALAR"},{"bufferView":53,"componentType":5126,"count":3,"max":[1,1,1],"min":[0,0,0],"type":"VEC3"},{"bufferView":54,"componentType":5126,"count":3,"max":[2],"min":[0],"type":"SCALAR"},{"bufferView":55,"componentType":5126,"count":3,"max":[1,1,1],"min":[0,0,0],"type":"VEC3"}],"materials":[{"pbrMetallicRoughness":{"metallicFactor":0,"roughnessFactor":1,"baseColorTexture":{"index":0}},"alphaMode":"MASK","alphaCutoff":0.05,"doubleSided":true},{"pbrMetallicRoughness":{"metallicFactor":0,"roughnessFactor":1,"baseColorTexture":{"index":1}},"alphaMode":"MASK","alphaCutoff":0.05,"doubleSided":true},{"pbrMetallicRoughness":{"metallicFactor":0,"roughnessFactor":1,"baseColorTexture":{"index":2}},"alphaMode":"MASK","alphaCutoff":0.05,"doubleSided":true}],"textures":[{"sampler":0,"source":0,"name":"Frost.png"},{"sampler":1,"source":1,"name":"Pluto.png"},{"sampler":2,"source":2,"name":"Charon"}],"samplers":[{"magFilter":9728,"minFilter":9728,"wrapS":33071,"wrapT":33071},{"magFilter":9728,"minFilter":9728,"wrapS":33071,"wrapT":33071},{"magFilter":9728,"minFilter":9728,"wrapS":33071,"wrapT":33071}],"images":[{"mimeType":"image/png","uri":"data:image/png;base64,"},{"mimeType":"image/png","uri":"data:image/png;base64,"},{"mimeType":"image/png","uri":"data:image/png;base64,"}],"meshes":[{"primitives":[{"mode":4,"attributes":{"POSITION":0,"NORMAL":1,"TEXCOORD_0":2},"indices":3,"material":0}]},{"primitives":[{"mode":4,"attributes":{"POSITION":4,"NORMAL":5,"TEXCOORD_0":6},"indices":7,"material":0}]},{"primitives":[{"mode":4,"attributes":{"POSITION":8,"NORMAL":9,"TEXCOORD_0":10},"indices":11,"material":0}]},{"primitives":[{"mode":4,"attributes":{"POSITION":12,"NORMAL":13,"TEXCOORD_0":14},"indices":15,"material":1}]},{"primitives":[{"mode":4,"attributes":{"POSITION":16,"NORMAL":17,"TEXCOORD_0":18},"indices":19,"material":2}]},{"primitives":[{"mode":4,"attributes":{"POSITION":20,"NORMAL":21,"TEXCOORD_0":22},"indices":23,"material":0}]},{"primitives":[{"mode":4,"attributes":{"POSITION":24,"NORMAL":25,"TEXCOORD_0":26},"indices":27,"material":0}]},{"primitives":[{"mode":4,"attributes":{"POSITION":28,"NORMAL":29,"TEXCOORD_0":30},"indices":31,"material":0}]},{"primitives":[{"mode":4,"attributes":{"POSITION":32,"NORMAL":33,"TEXCOORD_0":34},"indices":35,"material":0}]},{"primitives":[{"mode":4,"attributes":{"POSITION":36,"NORMAL":37,"TEXCOORD_0":38},"indices":39,"material":0}]},{"primitives":[{"mode":4,"attributes":{"POSITION":40,"NORMAL":41,"TEXCOORD_0":42},"indices":43,"material":0}]},{"primitives":[{"mode":4,"attributes":{"POSITION":44,"NORMAL":45,"TEXCOORD_0":46},"indices":47,"material":0}]}],"animations":[{"name":"Rotate","samplers":[{"input":48,"output":49,"interpolation":"LINEAR"},{"input":50,"output":51,"interpolation":"LINEAR"},{"input":52,"output":53,"interpolation":"LINEAR"},{"input":54,"output":55,"interpolation":"LINEAR"}],"channels":[{"sampler":0,"target":{"node":12,"path":"rotation"}},{"sampler":1,"target":{"node":14,"path":"rotation"}},{"sampler":2,"target":{"node":14,"path":"scale"}},{"sampler":3,"target":{"node":11,"path":"scale"}}]}]}