{"asset":{"version":"2.0","generator":"Blockbench 4.6.5 glTF exporter"},"scenes":[{"nodes":[3],"name":"blockbench_export"}],"scene":0,"nodes":[{"name":"cube","mesh":0},{"rotation":[-0.0023749183589675603,0.10884096748385488,-0.021685224736196707,0.993819779732778],"name":"sphere","mesh":1},{"translation":[0,0.375,0],"name":"Ring","children":[1]},{"children":[0,2]}],"bufferViews":[{"buffer":0,"byteOffset":0,"byteLength":288,"target":34962,"byteStride":12},{"buffer":0,"byteOffset":288,"byteLength":288,"target":34962,"byteStride":12},{"buffer":0,"byteOffset":576,"byteLength":192,"target":34962,"byteStride":8},{"buffer":0,"byteOffset":768,"byteLength":72,"target":34963},{"buffer":0,"byteOffset":840,"byteLength":49680,"target":34962,"byteStride":12},{"buffer":0,"byteOffset":50520,"byteLength":49680,"target":34962,"byteStride":12},{"buffer":0,"byteOffset":100200,"byteLength":33120,"target":34962,"byteStride":8},{"buffer":0,"byteOffset":133320,"byteLength":11040,"target":34963},{"buffer":0,"byteOffset":144360,"byteLength":20},{"buffer":0,"byteOffset":144380,"byteLength":80}],"buffers":[{"byteLength":144460,"uri":"data:application/octet-stream;base64,"}],"accessors":[{"bufferView":0,"componentType":5126,"count":24,"max":[0.078125,0.25312501192092896,0.09375],"min":[-0.078125,0,-0.0625],"type":"VEC3"},{"bufferView":1,"componentType":5126,"count":24,"max":[1,1,1],"min":[-1,-1,-1],"type":"VEC3"},{"bufferView":2,"componentType":5126,"count":24,"max":[0.5992187261581421,0.749218761920929],"min":[0.20078125596046448,0.4507812559604645],"type":"VEC2"},{"bufferView":3,"componentType":5123,"count":36,"max":[23],"min":[0],"type":"SCALAR"},{"bufferView":4,"componentType":5126,"count":4140,"max":[0.46875,0.1146559938788414,0.4672205150127411],"min":[-0.46875,-0.018410978838801384,-0.4479950964450836],"type":"VEC3"},{"bufferView":5,"componentType":5126,"count":4140,"max":[0.9510565400123596,0.9999619126319885,1],"min":[-0.9510565400123596,-0.9999619126319885,-1],"type":"VEC3"},{"bufferView":6,"componentType":5126,"count":4140,"max":[0.019312499091029167,1],"min":[0,0.9806874990463257],"type":"VEC2"},{"bufferView":7,"componentType":5123,"count":5520,"max":[4139],"min":[0],"type":"SCALAR"},{"bufferView":8,"componentType":5126,"count":5,"max":[3],"min":[0],"type":"SCALAR"},{"bufferView":9,"componentType":5126,"count":5,"max":[0,0.7071067690849304,0,0.7071067690849304],"min":[0,-1,0,-1],"type":"VEC4"}],"materials":[{"pbrMetallicRoughness":{"metallicFactor":0,"roughnessFactor":1,"baseColorTexture":{"index":0}},"alphaMode":"MASK","alphaCutoff":0.05,"doubleSided":true},{"pbrMetallicRoughness":{"metallicFactor":0,"roughnessFactor":1,"baseColorTexture":{"index":1}},"alphaMode":"MASK","alphaCutoff":0.05,"doubleSided":true}],"textures":[{"sampler":0,"source":0,"name":"Tower.png"},{"sampler":1,"source":1,"name":"AsteroidSt.png"}],"samplers":[{"magFilter":9728,"minFilter":9728,"wrapS":33071,"wrapT":33071},{"magFilter":9728,"minFilter":9728,"wrapS":33071,"wrapT":33071}],"images":[{"mimeType":"image/png","uri":"data:image/png;base64,"},{"mimeType":"image/png","uri":"data:image/png;base64,"}],"meshes":[{"primitives":[{"mode":4,"attributes":{"POSITION":0,"NORMAL":1,"TEXCOORD_0":2},"indices":3,"material":0}]},{"primitives":[{"mode":4,"attributes":{"POSITION":4,"NORMAL":5,"TEXCOORD_0":6},"indices":7,"material":1}]}],"animations":[{"name":"Planet_Ring","samplers":[{"input":8,"output":9,"interpolation":"LINEAR"}],"channels":[{"sampler":0,"target":{"node":2,"path":"rotation"}}]}]}