{"asset":{"version":"2.0","generator":"Blockbench 4.6.5 glTF exporter"},"scenes":[{"nodes":[28],"name":"blockbench_export"}],"scene":0,"nodes":[{"name":"cube","mesh":0},{"name":"Platform","mesh":1},{"name":"Platform","mesh":2},{"rotation":[0,0,-2.1431029821212823e-17,1],"translation":[0.017660324662813,0.24109155002642613,0.12366081891303957],"name":"sphere","mesh":3},{"rotation":[-0.21643961393810288,0,0,0.9762960071199334],"translation":[0,0.375,0],"name":"Planet","children":[3]},{"translation":[0,-0.28125,0],"name":"cube","mesh":4},{"translation":[0,-0.28125,0],"name":"cube","mesh":5},{"translation":[0,-0.28125,0],"name":"cube","mesh":6},{"rotation":[-0.03532013309821238,-0.3849984361954423,-0.035320133098212365,0.9215645286809347],"name":"Cloud","children":[5,6,7]},{"translation":[0,-0.28125,0],"name":"cube","mesh":7},{"translation":[0,-0.28125,0],"name":"cube","mesh":8},{"translation":[0,-0.28125,0],"name":"cube","mesh":9},{"rotation":[0,-0.9469301294951057,0,0.3214394653031615],"name":"Cloud2","children":[9,10,11]},{"translation":[0,0.65625,-0.046875],"name":"Clouds","children":[8,12]},{"translation":[0,0.25,0],"name":"torus2","mesh":10},{"name":"torus","mesh":11},{"translation":[0,0.375,0],"name":"Ring","children":[14,15]},{"name":"cube","mesh":12},{"translation":[0,0,0.24999999999999994],"name":"cube","mesh":13},{"name":"cube","mesh":14},{"name":"cube","mesh":15},{"name":"Up","children":[17,18,19,20]},{"rotation":[-0.7071067811865475,0,0,0.7071067811865476],"name":"cube","mesh":16},{"rotation":[-0.7071067811865475,0,0,0.7071067811865476],"name":"cube","mesh":17},{"rotation":[-0.5000000000000022,-0.4999999999999976,-0.5000000000000023,0.4999999999999977],"name":"cube","mesh":18},{"rotation":[-0.5000000000000022,-0.4999999999999976,-0.5000000000000023,0.4999999999999977],"name":"cube","mesh":19},{"name":"Across","children":[22,23,24,25]},{"translation":[0,-3.469446951953614e-18,0.0125],"name":"Fence","children":[21,26]},{"children":[0,1,2,4,13,16,27]}],"bufferViews":[{"buffer":0,"byteOffset":0,"byteLength":288,"target":34962,"byteStride":12},{"buffer":0,"byteOffset":288,"byteLength":288,"target":34962,"byteStride":12},{"buffer":0,"byteOffset":576,"byteLength":192,"target":34962,"byteStride":8},{"buffer":0,"byteOffset":768,"byteLength":72,"target":34963},{"buffer":0,"byteOffset":840,"byteLength":288,"target":34962,"byteStride":12},{"buffer":0,"byteOffset":1128,"byteLength":288,"target":34962,"byteStride":12},{"buffer":0,"byteOffset":1416,"byteLength":192,"target":34962,"byteStride":8},{"buffer":0,"byteOffset":1608,"byteLength":72,"target":34963},{"buffer":0,"byteOffset":1680,"byteLength":288,"target":34962,"byteStride":12},{"buffer":0,"byteOffset":1968,"byteLength":288,"target":34962,"byteStride":12},{"buffer":0,"byteOffset":2256,"byteLength":192,"target":34962,"byteStride":8},{"buffer":0,"byteOffset":2448,"byteLength":72,"target":34963},{"buffer":0,"byteOffset":2520,"byteLength":3168,"target":34962,"byteStride":12},{"buffer":0,"byteOffset":5688,"byteLength":3168,"target":34962,"byteStride":12},{"buffer":0,"byteOffset":8856,"byteLength":2112,"target":34962,"byteStride":8},{"buffer":0,"byteOffset":10968,"byteLength":720,"target":34963},{"buffer":0,"byteOffset":11688,"byteLength":288,"target":34962,"byteStride":12},{"buffer":0,"byteOffset":11976,"byteLength":288,"target":34962,"byteStride":12},{"buffer":0,"byteOffset":12264,"byteLength":192,"target":34962,"byteStride":8},{"buffer":0,"byteOffset":12456,"byteLength":72,"target":34963},{"buffer":0,"byteOffset":12528,"byteLength":288,"target":34962,"byteStride":12},{"buffer":0,"byteOffset":12816,"byteLength":288,"target":34962,"byteStride":12},{"buffer":0,"byteOffset":13104,"byteLength":192,"target":34962,"byteStride":8},{"buffer":0,"byteOffset":13296,"byteLength":72,"target":34963},{"buffer":0,"byteOffset":13368,"byteLength":288,"target":34962,"byteStride":12},{"buffer":0,"byteOffset":13656,"byteLength":288,"target":34962,"byteStride":12},{"buffer":0,"byteOffset":13944,"byteLength":192,"target":34962,"byteStride":8},{"buffer":0,"byteOffset":14136,"byteLength":72,"target":34963},{"buffer":0,"byteOffset":14208,"byteLength":288,"target":34962,"byteStride":12},{"buffer":0,"byteOffset":14496,"byteLength":288,"target":34962,"byteStride":12},{"buffer":0,"byteOffset":14784,"byteLength":192,"target":34962,"byteStride":8},{"buffer":0,"byteOffset":14976,"byteLength":72,"target":34963},{"buffer":0,"byteOffset":15048,"byteLength":288,"target":34962,"byteStride":12},{"buffer":0,"byteOffset":15336,"byteLength":288,"target":34962,"byteStride":12},{"buffer":0,"byteOffset":15624,"byteLength":192,"target":34962,"byteStride":8},{"buffer":0,"byteOffset":15816,"byteLength":72,"target":34963},{"buffer":0,"byteOffset":15888,"byteLength":288,"target":34962,"byteStride":12},{"buffer":0,"byteOffset":16176,"byteLength":288,"target":34962,"byteStride":12},{"buffer":0,"byteOffset":16464,"byteLength":192,"target":34962,"byteStride":8},{"buffer":0,"byteOffset":16656,"byteLength":72,"target":34963},{"buffer":0,"byteOffset":16728,"byteLength":3456,"target":34962,"byteStride":12},{"buffer":0,"byteOffset":20184,"byteLength":3456,"target":34962,"byteStride":12},{"buffer":0,"byteOffset":23640,"byteLength":2304,"target":34962,"byteStride":8},{"buffer":0,"byteOffset":25944,"byteLength":864,"target":34963},{"buffer":0,"byteOffset":26808,"byteLength":4608,"target":34962,"byteStride":12},{"buffer":0,"byteOffset":31416,"byteLength":4608,"target":34962,"byteStride":12},{"buffer":0,"byteOffset":36024,"byteLength":3072,"target":34962,"byteStride":8},{"buffer":0,"byteOffset":39096,"byteLength":1152,"target":34963},{"buffer":0,"byteOffset":40248,"byteLength":288,"target":34962,"byteStride":12},{"buffer":0,"byteOffset":40536,"byteLength":288,"target":34962,"byteStride":12},{"buffer":0,"byteOffset":40824,"byteLength":192,"target":34962,"byteStride":8},{"buffer":0,"byteOffset":41016,"byteLength":72,"target":34963},{"buffer":0,"byteOffset":41088,"byteLength":288,"target":34962,"byteStride":12},{"buffer":0,"byteOffset":41376,"byteLength":288,"target":34962,"byteStride":12},{"buffer":0,"byteOffset":41664,"byteLength":192,"target":34962,"byteStride":8},{"buffer":0,"byteOffset":41856,"byteLength":72,"target":34963},{"buffer":0,"byteOffset":41928,"byteLength":288,"target":34962,"byteStride":12},{"buffer":0,"byteOffset":42216,"byteLength":288,"target":34962,"byteStride":12},{"buffer":0,"byteOffset":42504,"byteLength":192,"target":34962,"byteStride":8},{"buffer":0,"byteOffset":42696,"byteLength":72,"target":34963},{"buffer":0,"byteOffset":42768,"byteLength":288,"target":34962,"byteStride":12},{"buffer":0,"byteOffset":43056,"byteLength":288,"target":34962,"byteStride":12},{"buffer":0,"byteOffset":43344,"byteLength":192,"target":34962,"byteStride":8},{"buffer":0,"byteOffset":43536,"byteLength":72,"target":34963},{"buffer":0,"byteOffset":43608,"byteLength":288,"target":34962,"byteStride":12},{"buffer":0,"byteOffset":43896,"byteLength":288,"target":34962,"byteStride":12},{"buffer":0,"byteOffset":44184,"byteLength":192,"target":34962,"byteStride":8},{"buffer":0,"byteOffset":44376,"byteLength":72,"target":34963},{"buffer":0,"byteOffset":44448,"byteLength":288,"target":34962,"byteStride":12},{"buffer":0,"byteOffset":44736,"byteLength":288,"target":34962,"byteStride":12},{"buffer":0,"byteOffset":45024,"byteLength":192,"target":34962,"byteStride":8},{"buffer":0,"byteOffset":45216,"byteLength":72,"target":34963},{"buffer":0,"byteOffset":45288,"byteLength":288,"target":34962,"byteStride":12},{"buffer":0,"byteOffset":45576,"byteLength":288,"target":34962,"byteStride":12},{"buffer":0,"byteOffset":45864,"byteLength":192,"target":34962,"byteStride":8},{"buffer":0,"byteOffset":46056,"byteLength":72,"target":34963},{"buffer":0,"byteOffset":46128,"byteLength":288,"target":34962,"byteStride":12},{"buffer":0,"byteOffset":46416,"byteLength":288,"target":34962,"byteStride":12},{"buffer":0,"byteOffset":46704,"byteLength":192,"target":34962,"byteStride":8},{"buffer":0,"byteOffset":46896,"byteLength":72,"target":34963},{"buffer":0,"byteOffset":46968,"byteLength":24},{"buffer":0,"byteOffset":46992,"byteLength":96},{"buffer":0,"byteOffset":47088,"byteLength":24},{"buffer":0,"byteOffset":47112,"byteLength":96},{"buffer":0,"byteOffset":47208,"byteLength":24},{"buffer":0,"byteOffset":47232,"byteLength":96},{"buffer":0,"byteOffset":47328,"byteLength":24},{"buffer":0,"byteOffset":47352,"byteLength":96}],"buffers":[{"byteLength":47448,"uri":"data:application/octet-stream;base64,"}],"accessors":[{"bufferView":0,"componentType":5126,"count":24,"max":[0.078125,0.44062501192092896,0.09375],"min":[-0.078125,0,-0.0625],"type":"VEC3"},{"bufferView":1,"componentType":5126,"count":24,"max":[1,1,1],"min":[-1,-1,-1],"type":"VEC3"},{"bufferView":2,"componentType":5126,"count":24,"max":[0.7490234375,0.8115234375],"min":[0.2509765625,0.2509765625],"type":"VEC2"},{"bufferView":3,"componentType":5123,"count":36,"max":[23],"min":[0],"type":"SCALAR"},{"bufferView":4,"componentType":5126,"count":24,"max":[0.125,0.03125,0.13750000298023224],"min":[-0.125,0,-0.11249999701976776],"type":"VEC3"},{"bufferView":5,"componentType":5126,"count":24,"max":[1,1,1],"min":[-1,-1,-1],"type":"VEC3"},{"bufferView":6,"componentType":5126,"count":24,"max":[0.9990234375,0.9990234375],"min":[0.0009765625,0.7490234375],"type":"VEC2"},{"bufferView":7,"componentType":5123,"count":36,"max":[23],"min":[0],"type":"SCALAR"},{"bufferView":8,"componentType":5126,"count":24,"max":[0.125,0.46875,0.13750000298023224],"min":[-0.125,0.4375,-0.11249999701976776],"type":"VEC3"},{"bufferView":9,"componentType":5126,"count":24,"max":[1,1,1],"min":[-1,-1,-1],"type":"VEC3"},{"bufferView":10,"componentType":5126,"count":24,"max":[0.9990234375,0.9990234375],"min":[0.0009765625,0.7490234375],"type":"VEC2"},{"bufferView":11,"componentType":5123,"count":36,"max":[23],"min":[0],"type":"SCALAR"},{"bufferView":12,"componentType":5126,"count":264,"max":[0.109375,0.125,0.125],"min":[-0.140625,-0.125,-0.125],"type":"VEC3"},{"bufferView":13,"componentType":5126,"count":264,"max":[0.9659258127212524,0.9659258127212524,0.9659258127212524],"min":[-0.9659258127212524,-0.9659258127212524,-0.9659258127212524],"type":"VEC3"},{"bufferView":14,"componentType":5126,"count":264,"max":[0.6918314695358276,1],"min":[0,0.25],"type":"VEC2"},{"bufferView":15,"componentType":5123,"count":360,"max":[263],"min":[0],"type":"SCALAR"},{"bufferView":16,"componentType":5126,"count":24,"max":[0.125,0.453125,0.015625],"min":[0.03125,0.421875,-0.015625],"type":"VEC3"},{"bufferView":17,"componentType":5126,"count":24,"max":[1,1,1],"min":[-1,-1,-1],"type":"VEC3"},{"bufferView":18,"componentType":5126,"count":24,"max":[0.0625,1],"min":[0,0.9375],"type":"VEC2"},{"bufferView":19,"componentType":5123,"count":36,"max":[23],"min":[0],"type":"SCALAR"},{"bufferView":20,"componentType":5126,"count":24,"max":[0.09375,0.46875,0.015625],"min":[0.0625,0.4375,-0.015625],"type":"VEC3"},{"bufferView":21,"componentType":5126,"count":24,"max":[1,1,1],"min":[-1,-1,-1],"type":"VEC3"},{"bufferView":22,"componentType":5126,"count":24,"max":[0.0625,1],"min":[0,0.9375],"type":"VEC2"},{"bufferView":23,"componentType":5123,"count":36,"max":[23],"min":[0],"type":"SCALAR"},{"bufferView":24,"componentType":5126,"count":24,"max":[0.09375,0.453125,0.03125],"min":[0.0625,0.421875,-0.03125],"type":"VEC3"},{"bufferView":25,"componentType":5126,"count":24,"max":[1,1,1],"min":[-1,-1,-1],"type":"VEC3"},{"bufferView":26,"componentType":5126,"count":24,"max":[0.0625,1],"min":[0,0.9375],"type":"VEC2"},{"bufferView":27,"componentType":5123,"count":36,"max":[23],"min":[0],"type":"SCALAR"},{"bufferView":28,"componentType":5126,"count":24,"max":[0.125,0.453125,0.015625],"min":[0.03125,0.421875,-0.015625],"type":"VEC3"},{"bufferView":29,"componentType":5126,"count":24,"max":[1,1,1],"min":[-1,-1,-1],"type":"VEC3"},{"bufferView":30,"componentType":5126,"count":24,"max":[0.0625,1],"min":[0,0.9375],"type":"VEC2"},{"bufferView":31,"componentType":5123,"count":36,"max":[23],"min":[0],"type":"SCALAR"},{"bufferView":32,"componentType":5126,"count":24,"max":[0.09375,0.46875,0.015625],"min":[0.0625,0.4375,-0.015625],"type":"VEC3"},{"bufferView":33,"componentType":5126,"count":24,"max":[1,1,1],"min":[-1,-1,-1],"type":"VEC3"},{"bufferView":34,"componentType":5126,"count":24,"max":[0.0625,1],"min":[0,0.9375],"type":"VEC2"},{"bufferView":35,"componentType":5123,"count":36,"max":[23],"min":[0],"type":"SCALAR"},{"bufferView":36,"componentType":5126,"count":24,"max":[0.09375,0.453125,0.03125],"min":[0.0625,0.421875,-0.03125],"type":"VEC3"},{"bufferView":37,"componentType":5126,"count":24,"max":[1,1,1],"min":[-1,-1,-1],"type":"VEC3"},{"bufferView":38,"componentType":5126,"count":24,"max":[0.0625,1],"min":[0,0.9375],"type":"VEC2"},{"bufferView":39,"componentType":5123,"count":36,"max":[23],"min":[0],"type":"SCALAR"},{"bufferView":40,"componentType":5126,"count":288,"max":[0.6676883101463318,0.016727380454540253,0.6676883101463318],"min":[-0.6676883101463318,-0.016727380454540253,-0.6364383101463318],"type":"VEC3"},{"bufferView":41,"componentType":5126,"count":288,"max":[1,0.9878733158111572,1],"min":[-1,-0.9878733158111572,-1],"type":"VEC3"},{"bufferView":42,"componentType":5126,"count":288,"max":[0.59375,1],"min":[0,0.46875],"type":"VEC2"},{"bufferView":43,"componentType":5123,"count":432,"max":[287],"min":[0],"type":"SCALAR"},{"bufferView":44,"componentType":5126,"count":384,"max":[0.515625,0.270034521818161,0.515625],"min":[-0.515625,0.229965478181839,-0.484375],"type":"VEC3"},{"bufferView":45,"componentType":5126,"count":384,"max":[0.42463377118110657,0.9967778325080872,0.4354188144207001],"min":[-0.42463377118110657,-0.9967778325080872,-0.4354188144207001],"type":"VEC3"},{"bufferView":46,"componentType":5126,"count":384,"max":[0.33493751287460327,1],"min":[0,0.901437520980835],"type":"VEC2"},{"bufferView":47,"componentType":5123,"count":576,"max":[383],"min":[0],"type":"SCALAR"},{"bufferView":48,"componentType":5126,"count":24,"max":[-0.09375,0.16249999403953552,-0.09375],"min":[-0.125,0.03125,-0.125],"type":"VEC3"},{"bufferView":49,"componentType":5126,"count":24,"max":[1,1,1],"min":[-1,-1,-1],"type":"VEC3"},{"bufferView":50,"componentType":5126,"count":24,"max":[0.0009765625,1.0009765625],"min":[-0.0009765625,0.8759765625],"type":"VEC2"},{"bufferView":51,"componentType":5123,"count":36,"max":[23],"min":[0],"type":"SCALAR"},{"bufferView":52,"componentType":5126,"count":24,"max":[-0.09375,0.16249999403953552,-0.125],"min":[-0.125,0.03125,-0.15625],"type":"VEC3"},{"bufferView":53,"componentType":5126,"count":24,"max":[1,1,1],"min":[-1,-1,-1],"type":"VEC3"},{"bufferView":54,"componentType":5126,"count":24,"max":[0.0009765625,1.0009765625],"min":[-0.0009765625,0.8759765625],"type":"VEC2"},{"bufferView":55,"componentType":5123,"count":36,"max":[23],"min":[0],"type":"SCALAR"},{"bufferView":56,"componentType":5126,"count":24,"max":[0.125,0.16249999403953552,0.125],"min":[0.09375,0.03125,0.09375],"type":"VEC3"},{"bufferView":57,"componentType":5126,"count":24,"max":[1,1,1],"min":[-1,-1,-1],"type":"VEC3"},{"bufferView":58,"componentType":5126,"count":24,"max":[0.0009765625,1.0009765625],"min":[-0.0009765625,0.8759765625],"type":"VEC2"},{"bufferView":59,"componentType":5123,"count":36,"max":[23],"min":[0],"type":"SCALAR"},{"bufferView":60,"componentType":5126,"count":24,"max":[0.125,0.16249999403953552,-0.09375],"min":[0.09375,0.03125,-0.125],"type":"VEC3"},{"bufferView":61,"componentType":5126,"count":24,"max":[1,1,1],"min":[-1,-1,-1],"type":"VEC3"},{"bufferView":62,"componentType":5126,"count":24,"max":[0.0009765625,1.0009765625],"min":[-0.0009765625,0.8759765625],"type":"VEC2"},{"bufferView":63,"componentType":5123,"count":36,"max":[23],"min":[0],"type":"SCALAR"},{"bufferView":64,"componentType":5126,"count":24,"max":[-0.09375,0.10000000149011612,0.15625],"min":[-0.125,-0.09375,0.125],"type":"VEC3"},{"bufferView":65,"componentType":5126,"count":24,"max":[1,1,1],"min":[-1,-1,-1],"type":"VEC3"},{"bufferView":66,"componentType":5126,"count":24,"max":[0.0009765625,1.0009765625],"min":[-0.0009765625,0.8134765625],"type":"VEC2"},{"bufferView":67,"componentType":5123,"count":36,"max":[23],"min":[0],"type":"SCALAR"},{"bufferView":68,"componentType":5126,"count":24,"max":[0.125,0.10000000149011612,0.15625],"min":[0.09375,-0.09375,0.125],"type":"VEC3"},{"bufferView":69,"componentType":5126,"count":24,"max":[1,1,1],"min":[-1,-1,-1],"type":"VEC3"},{"bufferView":70,"componentType":5126,"count":24,"max":[0.0009765625,1.0009765625],"min":[-0.0009765625,0.8134765625],"type":"VEC2"},{"bufferView":71,"componentType":5123,"count":36,"max":[23],"min":[0],"type":"SCALAR"},{"bufferView":72,"componentType":5126,"count":24,"max":[-0.09375,0.10000000149011612,0.15625],"min":[-0.125,-0.09375,0.125],"type":"VEC3"},{"bufferView":73,"componentType":5126,"count":24,"max":[1,1,1],"min":[-1,-1,-1],"type":"VEC3"},{"bufferView":74,"componentType":5126,"count":24,"max":[0.0009765625,1.0009765625],"min":[-0.0009765625,0.8134765625],"type":"VEC2"},{"bufferView":75,"componentType":5123,"count":36,"max":[23],"min":[0],"type":"SCALAR"},{"bufferView":76,"componentType":5126,"count":24,"max":[0.125,0.10000000149011612,0.15625],"min":[0.09375,-0.09375,0.125],"type":"VEC3"},{"bufferView":77,"componentType":5126,"count":24,"max":[1,1,1],"min":[-1,-1,-1],"type":"VEC3"},{"bufferView":78,"componentType":5126,"count":24,"max":[0.0009765625,1.0009765625],"min":[-0.0009765625,0.8134765625],"type":"VEC2"},{"bufferView":79,"componentType":5123,"count":36,"max":[23],"min":[0],"type":"SCALAR"},{"bufferView":80,"componentType":5126,"count":6,"max":[2.5],"min":[0],"type":"SCALAR"},{"bufferView":81,"componentType":5126,"count":6,"max":[0.21315141022205353,0.9614638686180115,0.21315141022205353,0.5599803924560547],"min":[-0.12414466589689255,-0.9614638686180115,-0.21315141022205353,-0.9614638686180115],"type":"VEC4"},{"bufferView":82,"componentType":5126,"count":6,"max":[2.5],"min":[0],"type":"SCALAR"},{"bufferView":83,"componentType":5126,"count":6,"max":[0,1,0,0.7071067690849304],"min":[0,-1,0,-1],"type":"VEC4"},{"bufferView":84,"componentType":5126,"count":6,"max":[2.5],"min":[0],"type":"SCALAR"},{"bufferView":85,"componentType":5126,"count":6,"max":[0.3849984407424927,0.3849984407424927,0.921564519405365,0.6766196489334106],"min":[-0.3849984407424927,-0.29721009731292725,-0.921564519405365,-0.921564519405365],"type":"VEC4"},{"bufferView":86,"componentType":5126,"count":6,"max":[2.5],"min":[0],"type":"SCALAR"},{"bufferView":87,"componentType":5126,"count":6,"max":[0.9469301104545593,0.9469301104545593,0.3214394748210907,0.2272920310497284],"min":[-0.9469301104545593,-0.6695806980133057,-0.3214394748210907,-0.3214394748210907],"type":"VEC4"}],"materials":[{"pbrMetallicRoughness":{"metallicFactor":0,"roughnessFactor":1,"baseColorTexture":{"index":0}},"alphaMode":"MASK","alphaCutoff":0.05,"doubleSided":true},{"pbrMetallicRoughness":{"metallicFactor":0,"roughnessFactor":1,"baseColorTexture":{"index":1}},"alphaMode":"MASK","alphaCutoff":0.05,"doubleSided":true},{"pbrMetallicRoughness":{"metallicFactor":0,"roughnessFactor":1},"alphaMode":"MASK","alphaCutoff":0.05,"doubleSided":true},{"pbrMetallicRoughness":{"metallicFactor":0,"roughnessFactor":1,"baseColorTexture":{"index":2}},"alphaMode":"MASK","alphaCutoff":0.05,"doubleSided":true},{"pbrMetallicRoughness":{"metallicFactor":0,"roughnessFactor":1,"baseColorTexture":{"index":3}},"alphaMode":"MASK","alphaCutoff":0.05,"doubleSided":true}],"textures":[{"sampler":0,"source":0,"name":"TowerUpgLight.png"},{"sampler":1,"source":1,"name":"Saturn.png"},{"sampler":2,"source":2,"name":"Ring2Light.png"},{"sampler":3,"source":3,"name":"RingLight.png"}],"samplers":[{"magFilter":9728,"minFilter":9728,"wrapS":33071,"wrapT":33071},{"magFilter":9728,"minFilter":9728,"wrapS":33071,"wrapT":33071},{"magFilter":9728,"minFilter":9728,"wrapS":33071,"wrapT":33071},{"magFilter":9728,"minFilter":9728,"wrapS":33071,"wrapT":33071}],"images":[{"mimeType":"image/png","uri":"data:image/png;base64,"},{"mimeType":"image/png","uri":"data:image/png;base64,"},{"mimeType":"image/png","uri":"data:image/png;base64,"},{"mimeType":"image/png","uri":"data:image/png;base64,"}],"meshes":[{"primitives":[{"mode":4,"attributes":{"POSITION":0,"NORMAL":1,"TEXCOORD_0":2},"indices":3,"material":0}]},{"primitives":[{"mode":4,"attributes":{"POSITION":4,"NORMAL":5,"TEXCOORD_0":6},"indices":7,"material":0}]},{"primitives":[{"mode":4,"attributes":{"POSITION":8,"NORMAL":9,"TEXCOORD_0":10},"indices":11,"material":0}]},{"primitives":[{"mode":4,"attributes":{"POSITION":12,"NORMAL":13,"TEXCOORD_0":14},"indices":15,"material":1}]},{"primitives":[{"mode":4,"attributes":{"POSITION":16,"NORMAL":17,"TEXCOORD_0":18},"indices":19,"material":2}]},{"primitives":[{"mode":4,"attributes":{"POSITION":20,"NORMAL":21,"TEXCOORD_0":22},"indices":23,"material":2}]},{"primitives":[{"mode":4,"attributes":{"POSITION":24,"NORMAL":25,"TEXCOORD_0":26},"indices":27,"material":2}]},{"primitives":[{"mode":4,"attributes":{"POSITION":28,"NORMAL":29,"TEXCOORD_0":30},"indices":31,"material":2}]},{"primitives":[{"mode":4,"attributes":{"POSITION":32,"NORMAL":33,"TEXCOORD_0":34},"indices":35,"material":2}]},{"primitives":[{"mode":4,"attributes":{"POSITION":36,"NORMAL":37,"TEXCOORD_0":38},"indices":39,"material":2}]},{"primitives":[{"mode":4,"attributes":{"POSITION":40,"NORMAL":41,"TEXCOORD_0":42},"indices":43,"material":3}]},{"primitives":[{"mode":4,"attributes":{"POSITION":44,"NORMAL":45,"TEXCOORD_0":46},"indices":47,"material":4}]},{"primitives":[{"mode":4,"attributes":{"POSITION":48,"NORMAL":49,"TEXCOORD_0":50},"indices":51,"material":0}]},{"primitives":[{"mode":4,"attributes":{"POSITION":52,"NORMAL":53,"TEXCOORD_0":54},"indices":55,"material":0}]},{"primitives":[{"mode":4,"attributes":{"POSITION":56,"NORMAL":57,"TEXCOORD_0":58},"indices":59,"material":0}]},{"primitives":[{"mode":4,"attributes":{"POSITION":60,"NORMAL":61,"TEXCOORD_0":62},"indices":63,"material":0}]},{"primitives":[{"mode":4,"attributes":{"POSITION":64,"NORMAL":65,"TEXCOORD_0":66},"indices":67,"material":0}]},{"primitives":[{"mode":4,"attributes":{"POSITION":68,"NORMAL":69,"TEXCOORD_0":70},"indices":71,"material":0}]},{"primitives":[{"mode":4,"attributes":{"POSITION":72,"NORMAL":73,"TEXCOORD_0":74},"indices":75,"material":0}]},{"primitives":[{"mode":4,"attributes":{"POSITION":76,"NORMAL":77,"TEXCOORD_0":78},"indices":79,"material":0}]}],"animations":[{"name":"Planet_Ring","samplers":[{"input":80,"output":81,"interpolation":"LINEAR"},{"input":82,"output":83,"interpolation":"LINEAR"},{"input":84,"output":85,"interpolation":"LINEAR"},{"input":86,"output":87,"interpolation":"LINEAR"}],"channels":[{"sampler":0,"target":{"node":4,"path":"rotation"}},{"sampler":1,"target":{"node":16,"path":"rotation"}},{"sampler":2,"target":{"node":8,"path":"rotation"}},{"sampler":3,"target":{"node":12,"path":"rotation"}}]}]}