{"asset":{"version":"2.0","generator":"Blockbench 4.7.0 glTF exporter"},"scenes":[{"nodes":[10],"name":"blockbench_export"}],"scene":0,"nodes":[{"name":"cube","mesh":0},{"name":"Ceres","mesh":1},{"name":"sphere","mesh":2},{"rotation":[-0.011316978985776473,-0.5186498041734119,0.018649804173411916,0.8547084247986623],"name":"sphere","mesh":3},{"translation":[0,0.375,0],"name":"Ring","children":[1,2,3]},{"name":"Up"},{"rotation":[-0.7071067811865475,0,0,0.7071067811865476],"translation":[0,-0.031249999999999997,0],"name":"cube","mesh":4},{"name":"Across","children":[6]},{"translation":[0,3.469446951953614e-18,-0.0125],"name":"Platform","mesh":5},{"translation":[0,-3.469446951953614e-18,0.0125],"name":"Fence","children":[5,7,8]},{"children":[0,4,9]}],"bufferViews":[{"buffer":0,"byteOffset":0,"byteLength":288,"target":34962,"byteStride":12},{"buffer":0,"byteOffset":288,"byteLength":288,"target":34962,"byteStride":12},{"buffer":0,"byteOffset":576,"byteLength":192,"target":34962,"byteStride":8},{"buffer":0,"byteOffset":768,"byteLength":72,"target":34963},{"buffer":0,"byteOffset":840,"byteLength":3168,"target":34962,"byteStride":12},{"buffer":0,"byteOffset":4008,"byteLength":3168,"target":34962,"byteStride":12},{"buffer":0,"byteOffset":7176,"byteLength":2112,"target":34962,"byteStride":8},{"buffer":0,"byteOffset":9288,"byteLength":720,"target":34963},{"buffer":0,"byteOffset":10008,"byteLength":102528,"target":34962,"byteStride":12},{"buffer":0,"byteOffset":112536,"byteLength":102528,"target":34962,"byteStride":12},{"buffer":0,"byteOffset":215064,"byteLength":68352,"target":34962,"byteStride":8},{"buffer":0,"byteOffset":283416,"byteLength":22800,"target":34963},{"buffer":0,"byteOffset":306216,"byteLength":49680,"target":34962,"byteStride":12},{"buffer":0,"byteOffset":355896,"byteLength":49680,"target":34962,"byteStride":12},{"buffer":0,"byteOffset":405576,"byteLength":33120,"target":34962,"byteStride":8},{"buffer":0,"byteOffset":438696,"byteLength":11040,"target":34963},{"buffer":0,"byteOffset":449736,"byteLength":2304,"target":34962,"byteStride":12},{"buffer":0,"byteOffset":452040,"byteLength":2304,"target":34962,"byteStride":12},{"buffer":0,"byteOffset":454344,"byteLength":1536,"target":34962,"byteStride":8},{"buffer":0,"byteOffset":455880,"byteLength":576,"target":34963},{"buffer":0,"byteOffset":456456,"byteLength":288,"target":34962,"byteStride":12},{"buffer":0,"byteOffset":456744,"byteLength":288,"target":34962,"byteStride":12},{"buffer":0,"byteOffset":457032,"byteLength":192,"target":34962,"byteStride":8},{"buffer":0,"byteOffset":457224,"byteLength":72,"target":34963},{"buffer":0,"byteOffset":457296,"byteLength":20},{"buffer":0,"byteOffset":457316,"byteLength":80}],"buffers":[{"byteLength":457396,"uri":"data:application/octet-stream;base64,"}],"accessors":[{"bufferView":0,"componentType":5126,"count":24,"max":[0.078125,0.28437501192092896,0.09375],"min":[-0.078125,0.03125,-0.0625],"type":"VEC3"},{"bufferView":1,"componentType":5126,"count":24,"max":[1,1,1],"min":[-1,-1,-1],"type":"VEC3"},{"bufferView":2,"componentType":5126,"count":24,"max":[0.3862152099609375,0.3539886474609375],"min":[0.1294097900390625,0.1616363525390625],"type":"VEC2"},{"bufferView":3,"componentType":5123,"count":36,"max":[23],"min":[0],"type":"SCALAR"},{"bufferView":4,"componentType":5126,"count":264,"max":[-0.078125,0.15625,0],"min":[-0.265625,-0.03125,-0.1875],"type":"VEC3"},{"bufferView":5,"componentType":5126,"count":264,"max":[0.9659258127212524,0.9659258127212524,0.9659258127212524],"min":[-0.9659258127212524,-0.9659258127212524,-0.9659258127212524],"type":"VEC3"},{"bufferView":6,"componentType":5126,"count":264,"max":[0.006279687397181988,0.0060656070709228516],"min":[0,0],"type":"VEC2"},{"bufferView":7,"componentType":5123,"count":360,"max":[263],"min":[0],"type":"SCALAR"},{"bufferView":8,"componentType":5126,"count":8544,"max":[0.451876163482666,0.14288382232189178,0.4777282178401947],"min":[-0.4662264287471771,-0.018410978838801384,-0.4695724844932556],"type":"VEC3"},{"bufferView":9,"componentType":5126,"count":8544,"max":[0.9848077297210693,0.999957799911499,0.9985997080802917],"min":[-0.9848077297210693,-0.999957799911499,-0.9985997080802917],"type":"VEC3"},{"bufferView":10,"componentType":5126,"count":8544,"max":[0.828125,0.828125],"min":[0,0],"type":"VEC2"},{"bufferView":11,"componentType":5123,"count":11400,"max":[8543],"min":[0],"type":"SCALAR"},{"bufferView":12,"componentType":5126,"count":4140,"max":[0.46875,0.130281001329422,0.4672205150127411],"min":[-0.46875,-0.002785978140309453,-0.4479950964450836],"type":"VEC3"},{"bufferView":13,"componentType":5126,"count":4140,"max":[0.9510565400123596,0.9999619126319885,1],"min":[-0.9510565400123596,-0.9999619126319885,-1],"type":"VEC3"},{"bufferView":14,"componentType":5126,"count":4140,"max":[0.019312499091029167,0.019312500953674316],"min":[0,0],"type":"VEC2"},{"bufferView":15,"componentType":5123,"count":5520,"max":[4139],"min":[0],"type":"SCALAR"},{"bufferView":16,"componentType":5126,"count":192,"max":[0.125,0.125,0.16249999403953552],"min":[-0.125,-0.1250000149011612,0.03125],"type":"VEC3"},{"bufferView":17,"componentType":5126,"count":192,"max":[1,1,1],"min":[-1,-1,-1],"type":"VEC3"},{"bufferView":18,"componentType":5126,"count":192,"max":[0,0.1875],"min":[0,0],"type":"VEC2"},{"bufferView":19,"componentType":5123,"count":288,"max":[191],"min":[0],"type":"SCALAR"},{"bufferView":20,"componentType":5126,"count":24,"max":[0.125,0.03125,0.13750000298023224],"min":[-0.125,0,-0.11249999701976776],"type":"VEC3"},{"bufferView":21,"componentType":5126,"count":24,"max":[1,1,1],"min":[-1,-1,-1],"type":"VEC3"},{"bufferView":22,"componentType":5126,"count":24,"max":[0.9990234375,0.2666015625],"min":[0.0009765625,0.0166015625],"type":"VEC2"},{"bufferView":23,"componentType":5123,"count":36,"max":[23],"min":[0],"type":"SCALAR"},{"bufferView":24,"componentType":5126,"count":5,"max":[3],"min":[0],"type":"SCALAR"},{"bufferView":25,"componentType":5126,"count":5,"max":[0,0.7071067690849304,0,0.7071067690849304],"min":[0,-1,0,-1],"type":"VEC4"}],"materials":[{"pbrMetallicRoughness":{"metallicFactor":0,"roughnessFactor":1,"baseColorTexture":{"index":0}},"alphaMode":"MASK","alphaCutoff":0.05,"doubleSided":true},{"pbrMetallicRoughness":{"metallicFactor":0,"roughnessFactor":1,"baseColorTexture":{"index":1}},"alphaMode":"MASK","alphaCutoff":0.05,"doubleSided":true},{"pbrMetallicRoughness":{"metallicFactor":0,"roughnessFactor":1,"baseColorTexture":{"index":2}},"alphaMode":"MASK","alphaCutoff":0.05,"doubleSided":true},{"pbrMetallicRoughness":{"metallicFactor":0,"roughnessFactor":1},"alphaMode":"MASK","alphaCutoff":0.05,"doubleSided":true},{"pbrMetallicRoughness":{"metallicFactor":0,"roughnessFactor":1,"baseColorTexture":{"index":3}},"alphaMode":"MASK","alphaCutoff":0.05,"doubleSided":true}],"textures":[{"sampler":0,"source":0,"name":"LunarTower.png"},{"sampler":1,"source":1,"name":"Ceres.png"},{"sampler":2,"source":2,"name":"Asteroid.png"},{"sampler":3,"source":3,"name":"LunTPl.png"}],"samplers":[{"magFilter":9728,"minFilter":9728,"wrapS":33071,"wrapT":33071},{"magFilter":9728,"minFilter":9728,"wrapS":33071,"wrapT":33071},{"magFilter":9728,"minFilter":9728,"wrapS":33071,"wrapT":33071},{"magFilter":9728,"minFilter":9728,"wrapS":33071,"wrapT":33071}],"images":[{"mimeType":"image/png","uri":"data:image/png;base64,"},{"mimeType":"image/png","uri":"data:image/png;base64,"},{"mimeType":"image/png","uri":"data:image/png;base64,"},{"mimeType":"image/png","uri":"data:image/png;base64,"}],"meshes":[{"primitives":[{"mode":4,"attributes":{"POSITION":0,"NORMAL":1,"TEXCOORD_0":2},"indices":3,"material":0}]},{"primitives":[{"mode":4,"attributes":{"POSITION":4,"NORMAL":5,"TEXCOORD_0":6},"indices":7,"material":1}]},{"primitives":[{"mode":4,"attributes":{"POSITION":8,"NORMAL":9,"TEXCOORD_0":10},"indices":11,"material":2}]},{"primitives":[{"mode":4,"attributes":{"POSITION":12,"NORMAL":13,"TEXCOORD_0":14},"indices":15,"material":3}]},{"primitives":[{"mode":4,"attributes":{"POSITION":16,"NORMAL":17,"TEXCOORD_0":18},"indices":19,"material":4}]},{"primitives":[{"mode":4,"attributes":{"POSITION":20,"NORMAL":21,"TEXCOORD_0":22},"indices":23,"material":4}]}],"animations":[{"name":"Planet_Ring","samplers":[{"input":24,"output":25,"interpolation":"LINEAR"}],"channels":[{"sampler":0,"target":{"node":4,"path":"rotation"}}]}]}