{"asset":{"version":"2.0","generator":"Blockbench 4.6.5 glTF exporter"},"scenes":[{"nodes":[9],"name":"blockbench_export"}],"scene":0,"nodes":[{"name":"cube","mesh":0},{"name":"Ceres","mesh":1},{"name":"sphere","mesh":2},{"translation":[0,0.375,0],"name":"Ring","children":[1,2]},{"name":"Up"},{"rotation":[-0.7071067811865475,0,0,0.7071067811865476],"translation":[0,-0.031249999999999997,0],"name":"cube","mesh":3},{"name":"Across","children":[5]},{"translation":[0,3.469446951953614e-18,-0.0125],"name":"Platform","mesh":4},{"translation":[0,-3.469446951953614e-18,0.0125],"name":"Fence","children":[4,6,7]},{"children":[0,3,8]}],"bufferViews":[{"buffer":0,"byteOffset":0,"byteLength":288,"target":34962,"byteStride":12},{"buffer":0,"byteOffset":288,"byteLength":288,"target":34962,"byteStride":12},{"buffer":0,"byteOffset":576,"byteLength":192,"target":34962,"byteStride":8},{"buffer":0,"byteOffset":768,"byteLength":72,"target":34963},{"buffer":0,"byteOffset":840,"byteLength":3168,"target":34962,"byteStride":12},{"buffer":0,"byteOffset":4008,"byteLength":3168,"target":34962,"byteStride":12},{"buffer":0,"byteOffset":7176,"byteLength":2112,"target":34962,"byteStride":8},{"buffer":0,"byteOffset":9288,"byteLength":720,"target":34963},{"buffer":0,"byteOffset":10008,"byteLength":102528,"target":34962,"byteStride":12},{"buffer":0,"byteOffset":112536,"byteLength":102528,"target":34962,"byteStride":12},{"buffer":0,"byteOffset":215064,"byteLength":68352,"target":34962,"byteStride":8},{"buffer":0,"byteOffset":283416,"byteLength":22800,"target":34963},{"buffer":0,"byteOffset":306216,"byteLength":2304,"target":34962,"byteStride":12},{"buffer":0,"byteOffset":308520,"byteLength":2304,"target":34962,"byteStride":12},{"buffer":0,"byteOffset":310824,"byteLength":1536,"target":34962,"byteStride":8},{"buffer":0,"byteOffset":312360,"byteLength":576,"target":34963},{"buffer":0,"byteOffset":312936,"byteLength":288,"target":34962,"byteStride":12},{"buffer":0,"byteOffset":313224,"byteLength":288,"target":34962,"byteStride":12},{"buffer":0,"byteOffset":313512,"byteLength":192,"target":34962,"byteStride":8},{"buffer":0,"byteOffset":313704,"byteLength":72,"target":34963},{"buffer":0,"byteOffset":313776,"byteLength":20},{"buffer":0,"byteOffset":313796,"byteLength":80}],"buffers":[{"byteLength":313876,"uri":"data:application/octet-stream;base64,"}],"accessors":[{"bufferView":0,"componentType":5126,"count":24,"max":[0.078125,0.28437501192092896,0.09375],"min":[-0.078125,0.03125,-0.0625],"type":"VEC3"},{"bufferView":1,"componentType":5126,"count":24,"max":[1,1,1],"min":[-1,-1,-1],"type":"VEC3"},{"bufferView":2,"componentType":5126,"count":24,"max":[0.3862152099609375,0.8383636474609375],"min":[0.1294097900390625,0.6460113525390625],"type":"VEC2"},{"bufferView":3,"componentType":5123,"count":36,"max":[23],"min":[0],"type":"SCALAR"},{"bufferView":4,"componentType":5126,"count":264,"max":[-0.078125,0.15625,0],"min":[-0.265625,-0.03125,-0.1875],"type":"VEC3"},{"bufferView":5,"componentType":5126,"count":264,"max":[0.9659258127212524,0.9659258127212524,0.9659258127212524],"min":[-0.9659258127212524,-0.9659258127212524,-0.9659258127212524],"type":"VEC3"},{"bufferView":6,"componentType":5126,"count":264,"max":[0.006279687397181988,1],"min":[0,0.9939343929290771],"type":"VEC2"},{"bufferView":7,"componentType":5123,"count":360,"max":[263],"min":[0],"type":"SCALAR"},{"bufferView":8,"componentType":5126,"count":8544,"max":[0.451876163482666,0.14288382232189178,0.4777282178401947],"min":[-0.4662264287471771,-0.018410978838801384,-0.4695724844932556],"type":"VEC3"},{"bufferView":9,"componentType":5126,"count":8544,"max":[0.9848077297210693,0.999957799911499,0.9985997080802917],"min":[-0.9848077297210693,-0.999957799911499,-0.9985997080802917],"type":"VEC3"},{"bufferView":10,"componentType":5126,"count":8544,"max":[0.828125,1],"min":[0,0.171875],"type":"VEC2"},{"bufferView":11,"componentType":5123,"count":11400,"max":[8543],"min":[0],"type":"SCALAR"},{"bufferView":12,"componentType":5126,"count":192,"max":[0.125,0.125,0.16249999403953552],"min":[-0.125,-0.1250000149011612,0.03125],"type":"VEC3"},{"bufferView":13,"componentType":5126,"count":192,"max":[1,1,1],"min":[-1,-1,-1],"type":"VEC3"},{"bufferView":14,"componentType":5126,"count":192,"max":[0,1],"min":[0,0.8125],"type":"VEC2"},{"bufferView":15,"componentType":5123,"count":288,"max":[191],"min":[0],"type":"SCALAR"},{"bufferView":16,"componentType":5126,"count":24,"max":[0.125,0.03125,0.13750000298023224],"min":[-0.125,0,-0.11249999701976776],"type":"VEC3"},{"bufferView":17,"componentType":5126,"count":24,"max":[1,1,1],"min":[-1,-1,-1],"type":"VEC3"},{"bufferView":18,"componentType":5126,"count":24,"max":[0.9990234375,0.9833984375],"min":[0.0009765625,0.7333984375],"type":"VEC2"},{"bufferView":19,"componentType":5123,"count":36,"max":[23],"min":[0],"type":"SCALAR"},{"bufferView":20,"componentType":5126,"count":5,"max":[3],"min":[0],"type":"SCALAR"},{"bufferView":21,"componentType":5126,"count":5,"max":[0,0.7071067690849304,0,0.7071067690849304],"min":[0,-1,0,-1],"type":"VEC4"}],"materials":[{"pbrMetallicRoughness":{"metallicFactor":0,"roughnessFactor":1,"baseColorTexture":{"index":0}},"alphaMode":"MASK","alphaCutoff":0.05,"doubleSided":true},{"pbrMetallicRoughness":{"metallicFactor":0,"roughnessFactor":1,"baseColorTexture":{"index":1}},"alphaMode":"MASK","alphaCutoff":0.05,"doubleSided":true},{"pbrMetallicRoughness":{"metallicFactor":0,"roughnessFactor":1,"baseColorTexture":{"index":2}},"alphaMode":"MASK","alphaCutoff":0.05,"doubleSided":true},{"pbrMetallicRoughness":{"metallicFactor":0,"roughnessFactor":1,"baseColorTexture":{"index":3}},"alphaMode":"MASK","alphaCutoff":0.05,"doubleSided":true}],"textures":[{"sampler":0,"source":0,"name":"LunarTower.png"},{"sampler":1,"source":1,"name":"Ceres.png"},{"sampler":2,"source":2,"name":"Asteroid.png"},{"sampler":3,"source":3,"name":"LunTPl.png"}],"samplers":[{"magFilter":9728,"minFilter":9728,"wrapS":33071,"wrapT":33071},{"magFilter":9728,"minFilter":9728,"wrapS":33071,"wrapT":33071},{"magFilter":9728,"minFilter":9728,"wrapS":33071,"wrapT":33071},{"magFilter":9728,"minFilter":9728,"wrapS":33071,"wrapT":33071}],"images":[{"mimeType":"image/png","uri":"data:image/png;base64,"},{"mimeType":"image/png","uri":"data:image/png;base64,"},{"mimeType":"image/png","uri":"data:image/png;base64,"},{"mimeType":"image/png","uri":"data:image/png;base64,"}],"meshes":[{"primitives":[{"mode":4,"attributes":{"POSITION":0,"NORMAL":1,"TEXCOORD_0":2},"indices":3,"material":0}]},{"primitives":[{"mode":4,"attributes":{"POSITION":4,"NORMAL":5,"TEXCOORD_0":6},"indices":7,"material":1}]},{"primitives":[{"mode":4,"attributes":{"POSITION":8,"NORMAL":9,"TEXCOORD_0":10},"indices":11,"material":2}]},{"primitives":[{"mode":4,"attributes":{"POSITION":12,"NORMAL":13,"TEXCOORD_0":14},"indices":15,"material":3}]},{"primitives":[{"mode":4,"attributes":{"POSITION":16,"NORMAL":17,"TEXCOORD_0":18},"indices":19,"material":3}]}],"animations":[{"name":"Planet_Ring","samplers":[{"input":20,"output":21,"interpolation":"LINEAR"}],"channels":[{"sampler":0,"target":{"node":3,"path":"rotation"}}]}]}