{"asset":{"version":"2.0","generator":"Blockbench 4.7.0 glTF exporter"},"scenes":[{"nodes":[6],"name":"blockbench_export"}],"scene":0,"nodes":[{"name":"cube","mesh":0},{"rotation":[0,0,-2.1431029821212823e-17,1],"translation":[-0.015625,0.6942165500264261,0.014285818913039566],"name":"sphere","mesh":1},{"name":"Star","children":[1]},{"rotation":[0,0,-1,6.123233995736766e-17],"translation":[0,0.015625,0],"name":"cube","mesh":2},{"translation":[0,0.015625,0],"name":"cube","mesh":3},{"translation":[0,0.4375,0],"name":"Flare","children":[3,4]},{"children":[0,2,5]}],"bufferViews":[{"buffer":0,"byteOffset":0,"byteLength":288,"target":34962,"byteStride":12},{"buffer":0,"byteOffset":288,"byteLength":288,"target":34962,"byteStride":12},{"buffer":0,"byteOffset":576,"byteLength":192,"target":34962,"byteStride":8},{"buffer":0,"byteOffset":768,"byteLength":72,"target":34963},{"buffer":0,"byteOffset":840,"byteLength":3168,"target":34962,"byteStride":12},{"buffer":0,"byteOffset":4008,"byteLength":3168,"target":34962,"byteStride":12},{"buffer":0,"byteOffset":7176,"byteLength":2112,"target":34962,"byteStride":8},{"buffer":0,"byteOffset":9288,"byteLength":720,"target":34963},{"buffer":0,"byteOffset":10008,"byteLength":864,"target":34962,"byteStride":12},{"buffer":0,"byteOffset":10872,"byteLength":864,"target":34962,"byteStride":12},{"buffer":0,"byteOffset":11736,"byteLength":576,"target":34962,"byteStride":8},{"buffer":0,"byteOffset":12312,"byteLength":216,"target":34963},{"buffer":0,"byteOffset":12528,"byteLength":864,"target":34962,"byteStride":12},{"buffer":0,"byteOffset":13392,"byteLength":864,"target":34962,"byteStride":12},{"buffer":0,"byteOffset":14256,"byteLength":576,"target":34962,"byteStride":8},{"buffer":0,"byteOffset":14832,"byteLength":216,"target":34963},{"buffer":0,"byteOffset":15048,"byteLength":20},{"buffer":0,"byteOffset":15068,"byteLength":80},{"buffer":0,"byteOffset":15148,"byteLength":20},{"buffer":0,"byteOffset":15168,"byteLength":80},{"buffer":0,"byteOffset":15248,"byteLength":20},{"buffer":0,"byteOffset":15268,"byteLength":80},{"buffer":0,"byteOffset":15348,"byteLength":20},{"buffer":0,"byteOffset":15368,"byteLength":60}],"buffers":[{"byteLength":15428,"uri":"data:application/octet-stream;base64,"}],"accessors":[{"bufferView":0,"componentType":5126,"count":24,"max":[0.078125,0.26875001192092896,0.078125],"min":[-0.078125,0,-0.078125],"type":"VEC3"},{"bufferView":1,"componentType":5126,"count":24,"max":[1,1,1],"min":[-1,-1,-1],"type":"VEC3"},{"bufferView":2,"componentType":5126,"count":24,"max":[0.4990234375,0.3740234375],"min":[0.0009765625,0.0009765625],"type":"VEC2"},{"bufferView":3,"componentType":5123,"count":36,"max":[23],"min":[0],"type":"SCALAR"},{"bufferView":4,"componentType":5126,"count":264,"max":[0.140625,-0.125,0.109375],"min":[-0.109375,-0.375,-0.140625],"type":"VEC3"},{"bufferView":5,"componentType":5126,"count":264,"max":[0.9659258127212524,0.9659258127212524,0.9659258127212524],"min":[-0.9659258127212524,-0.9659258127212524,-0.9659258127212524],"type":"VEC3"},{"bufferView":6,"componentType":5126,"count":264,"max":[0.1729578673839569,0.17295938730239868],"min":[0,0],"type":"VEC2"},{"bufferView":7,"componentType":5123,"count":360,"max":[263],"min":[0],"type":"SCALAR"},{"bufferView":8,"componentType":5126,"count":72,"max":[0.19374999403953552,0.02187499962747097,0.08225157111883163],"min":[0.12016561627388,0.015625,-0.08225157111883163],"type":"VEC3"},{"bufferView":9,"componentType":5126,"count":72,"max":[0.8914243578910828,1,0.7199954986572266],"min":[-0.9343876242637634,-1,-0.7199954986572266],"type":"VEC3"},{"bufferView":10,"componentType":5126,"count":72,"max":[0.5869125127792358,0.625],"min":[0,0],"type":"VEC2"},{"bufferView":11,"componentType":5123,"count":108,"max":[71],"min":[0],"type":"SCALAR"},{"bufferView":12,"componentType":5126,"count":72,"max":[0.19374999403953552,-0.00937500037252903,0.08225157111883163],"min":[0.12016561627388,-0.015625,-0.08225157111883163],"type":"VEC3"},{"bufferView":13,"componentType":5126,"count":72,"max":[0.8914243578910828,1,0.7199954986572266],"min":[-0.9343876242637634,-1,-0.7199954986572266],"type":"VEC3"},{"bufferView":14,"componentType":5126,"count":72,"max":[0.5869125127792358,0.625],"min":[0,0],"type":"VEC2"},{"bufferView":15,"componentType":5123,"count":108,"max":[71],"min":[0],"type":"SCALAR"},{"bufferView":16,"componentType":5126,"count":5,"max":[2],"min":[0],"type":"SCALAR"},{"bufferView":17,"componentType":5126,"count":5,"max":[0,0.8191520571708679,0,0.5735764503479004],"min":[0,-0.9848077297210693,0,-0.9848077297210693],"type":"VEC4"},{"bufferView":18,"componentType":5126,"count":5,"max":[2],"min":[0],"type":"SCALAR"},{"bufferView":19,"componentType":5126,"count":5,"max":[0,0.8191520571708679,0,0.5735764503479004],"min":[0,-0.9848077297210693,0,-0.9848077297210693],"type":"VEC4"},{"bufferView":20,"componentType":5126,"count":5,"max":[2],"min":[0],"type":"SCALAR"},{"bufferView":21,"componentType":5126,"count":5,"max":[0,0.7071067690849304,8.659560603426554e-17,0.7071067690849304],"min":[-0.7071067690849304,-0.7071067690849304,-0.7071067690849304,-0.7071067690849304],"type":"VEC4"},{"bufferView":22,"componentType":5126,"count":5,"max":[2],"min":[0],"type":"SCALAR"},{"bufferView":23,"componentType":5126,"count":5,"max":[1.5,1.5,1.5],"min":[0,0,0],"type":"VEC3"}],"materials":[{"pbrMetallicRoughness":{"metallicFactor":0,"roughnessFactor":1,"baseColorTexture":{"index":0}},"alphaMode":"MASK","alphaCutoff":0.05,"doubleSided":true},{"pbrMetallicRoughness":{"metallicFactor":0,"roughnessFactor":1,"baseColorTexture":{"index":1}},"alphaMode":"MASK","alphaCutoff":0.05,"doubleSided":true},{"pbrMetallicRoughness":{"metallicFactor":0,"roughnessFactor":1,"baseColorTexture":{"index":2}},"alphaMode":"MASK","alphaCutoff":0.05,"doubleSided":true}],"textures":[{"sampler":0,"source":0,"name":"Solar.png"},{"sampler":1,"source":1,"name":"AvgSt.png"},{"sampler":2,"source":2,"name":"Boomerang.png"}],"samplers":[{"magFilter":9728,"minFilter":9728,"wrapS":33071,"wrapT":33071},{"magFilter":9728,"minFilter":9728,"wrapS":33071,"wrapT":33071},{"magFilter":9728,"minFilter":9728,"wrapS":33071,"wrapT":33071}],"images":[{"mimeType":"image/png","uri":"data:image/png;base64,"},{"mimeType":"image/png","uri":"data:image/png;base64,"},{"mimeType":"image/png","uri":"data:image/png;base64,"}],"meshes":[{"primitives":[{"mode":4,"attributes":{"POSITION":0,"NORMAL":1,"TEXCOORD_0":2},"indices":3,"material":0}]},{"primitives":[{"mode":4,"attributes":{"POSITION":4,"NORMAL":5,"TEXCOORD_0":6},"indices":7,"material":1}]},{"primitives":[{"mode":4,"attributes":{"POSITION":8,"NORMAL":9,"TEXCOORD_0":10},"indices":11,"material":2}]},{"primitives":[{"mode":4,"attributes":{"POSITION":12,"NORMAL":13,"TEXCOORD_0":14},"indices":15,"material":2}]}],"animations":[{"name":"Star","samplers":[{"input":16,"output":17,"interpolation":"LINEAR"}],"channels":[{"sampler":0,"target":{"node":2,"path":"rotation"}}]},{"name":"Flare","samplers":[{"input":18,"output":19,"interpolation":"LINEAR"},{"input":20,"output":21,"interpolation":"LINEAR"},{"input":22,"output":23,"interpolation":"LINEAR"}],"channels":[{"sampler":0,"target":{"node":2,"path":"rotation"}},{"sampler":1,"target":{"node":5,"path":"rotation"}},{"sampler":2,"target":{"node":5,"path":"scale"}}]}]}