{"asset":{"version":"2.0","generator":"Blockbench 4.7.0 glTF exporter"},"scenes":[{"nodes":[11],"name":"blockbench_export"}],"scene":0,"nodes":[{"name":"Platform","mesh":0},{"translation":[0,-0.015625000000000003,-0.0031249999999999993],"name":"cube","mesh":1},{"rotation":[-0.7071067811865475,0,0,0.7071067811865476],"translation":[0,-0.015625000000000003,-0.0031249999999999993],"name":"cube","mesh":2},{"name":"cube","mesh":3},{"name":"Platform","mesh":4},{"name":"platform","children":[0,1,2,3,4]},{"rotation":[0,0,0.2798290140309921,0.9600498543859287],"name":"sphere","mesh":5},{"rotation":[0,0,-0.4809887689193883,0.8767267557075074],"name":"cone","mesh":6},{"rotation":[0,0,0.8746197071393957,0.4848096202463371],"name":"cone","mesh":7},{"rotation":[-0.4999999999310461,0.500000000068954,-0.49999999993104616,0.500000000068954],"translation":[0,0.025000000000000133,0],"name":"torus","mesh":8},{"translation":[0,0.7874999999999999,0],"name":"Star","children":[6,7,8,9]},{"children":[5,10]}],"bufferViews":[{"buffer":0,"byteOffset":0,"byteLength":288,"target":34962,"byteStride":12},{"buffer":0,"byteOffset":288,"byteLength":288,"target":34962,"byteStride":12},{"buffer":0,"byteOffset":576,"byteLength":192,"target":34962,"byteStride":8},{"buffer":0,"byteOffset":768,"byteLength":72,"target":34963},{"buffer":0,"byteOffset":840,"byteLength":1152,"target":34962,"byteStride":12},{"buffer":0,"byteOffset":1992,"byteLength":1152,"target":34962,"byteStride":12},{"buffer":0,"byteOffset":3144,"byteLength":768,"target":34962,"byteStride":8},{"buffer":0,"byteOffset":3912,"byteLength":288,"target":34963},{"buffer":0,"byteOffset":4200,"byteLength":1152,"target":34962,"byteStride":12},{"buffer":0,"byteOffset":5352,"byteLength":1152,"target":34962,"byteStride":12},{"buffer":0,"byteOffset":6504,"byteLength":768,"target":34962,"byteStride":8},{"buffer":0,"byteOffset":7272,"byteLength":288,"target":34963},{"buffer":0,"byteOffset":7560,"byteLength":288,"target":34962,"byteStride":12},{"buffer":0,"byteOffset":7848,"byteLength":288,"target":34962,"byteStride":12},{"buffer":0,"byteOffset":8136,"byteLength":192,"target":34962,"byteStride":8},{"buffer":0,"byteOffset":8328,"byteLength":72,"target":34963},{"buffer":0,"byteOffset":8400,"byteLength":288,"target":34962,"byteStride":12},{"buffer":0,"byteOffset":8688,"byteLength":288,"target":34962,"byteStride":12},{"buffer":0,"byteOffset":8976,"byteLength":192,"target":34962,"byteStride":8},{"buffer":0,"byteOffset":9168,"byteLength":72,"target":34963},{"buffer":0,"byteOffset":9240,"byteLength":2160,"target":34962,"byteStride":12},{"buffer":0,"byteOffset":11400,"byteLength":2160,"target":34962,"byteStride":12},{"buffer":0,"byteOffset":13560,"byteLength":1440,"target":34962,"byteStride":8},{"buffer":0,"byteOffset":15000,"byteLength":480,"target":34963},{"buffer":0,"byteOffset":15480,"byteLength":720,"target":34962,"byteStride":12},{"buffer":0,"byteOffset":16200,"byteLength":720,"target":34962,"byteStride":12},{"buffer":0,"byteOffset":16920,"byteLength":480,"target":34962,"byteStride":8},{"buffer":0,"byteOffset":17400,"byteLength":120,"target":34963},{"buffer":0,"byteOffset":17520,"byteLength":720,"target":34962,"byteStride":12},{"buffer":0,"byteOffset":18240,"byteLength":720,"target":34962,"byteStride":12},{"buffer":0,"byteOffset":18960,"byteLength":480,"target":34962,"byteStride":8},{"buffer":0,"byteOffset":19440,"byteLength":120,"target":34963},{"buffer":0,"byteOffset":19560,"byteLength":4704,"target":34962,"byteStride":12},{"buffer":0,"byteOffset":24264,"byteLength":4704,"target":34962,"byteStride":12},{"buffer":0,"byteOffset":28968,"byteLength":3136,"target":34962,"byteStride":8},{"buffer":0,"byteOffset":32104,"byteLength":1176,"target":34963},{"buffer":0,"byteOffset":33280,"byteLength":36},{"buffer":0,"byteOffset":33316,"byteLength":144}],"buffers":[{"byteLength":33460,"uri":"data:application/octet-stream;base64,"}],"accessors":[{"bufferView":0,"componentType":5126,"count":24,"max":[0.125,0.328125,0.12187500298023224],"min":[-0.125,0.296875,-0.12812499701976776],"type":"VEC3"},{"bufferView":1,"componentType":5126,"count":24,"max":[1,1,1],"min":[-1,-1,-1],"type":"VEC3"},{"bufferView":2,"componentType":5126,"count":24,"max":[0.7490234375,0.3759765625],"min":[-0.2490234375,0.1259765625],"type":"VEC2"},{"bufferView":3,"componentType":5123,"count":36,"max":[23],"min":[0],"type":"SCALAR"},{"bufferView":4,"componentType":5126,"count":96,"max":[0.125,0.16249999403953552,0.125],"min":[-0.125,0.03125,-0.125],"type":"VEC3"},{"bufferView":5,"componentType":5126,"count":96,"max":[1,1,1],"min":[-1,-1,-1],"type":"VEC3"},{"bufferView":6,"componentType":5126,"count":96,"max":[0.421875,0.3515625],"min":[0,0],"type":"VEC2"},{"bufferView":7,"componentType":5123,"count":144,"max":[95],"min":[0],"type":"SCALAR"},{"bufferView":8,"componentType":5126,"count":96,"max":[0.125,0.125,0.15625],"min":[-0.125,-0.125,0.125],"type":"VEC3"},{"bufferView":9,"componentType":5126,"count":96,"max":[1,1,1],"min":[-1,-1,-1],"type":"VEC3"},{"bufferView":10,"componentType":5126,"count":96,"max":[0,0.3671875],"min":[0,0],"type":"VEC2"},{"bufferView":11,"componentType":5123,"count":144,"max":[95],"min":[0],"type":"SCALAR"},{"bufferView":12,"componentType":5126,"count":24,"max":[0.078125,0.30000001192092896,0.078125],"min":[-0.078125,0.03125,-0.078125],"type":"VEC3"},{"bufferView":13,"componentType":5126,"count":24,"max":[1,1,1],"min":[-1,-1,-1],"type":"VEC3"},{"bufferView":14,"componentType":5126,"count":24,"max":[0.4990234375,0.3740234375],"min":[0.0009765625,0.0009765625],"type":"VEC2"},{"bufferView":15,"componentType":5123,"count":36,"max":[23],"min":[0],"type":"SCALAR"},{"bufferView":16,"componentType":5126,"count":24,"max":[0.125,0.03125,0.12187500298023224],"min":[-0.125,0,-0.12812499701976776],"type":"VEC3"},{"bufferView":17,"componentType":5126,"count":24,"max":[1,1,1],"min":[-1,-1,-1],"type":"VEC3"},{"bufferView":18,"componentType":5126,"count":24,"max":[0.7490234375,0.3759765625],"min":[-0.2490234375,0.1259765625],"type":"VEC2"},{"bufferView":19,"componentType":5123,"count":36,"max":[23],"min":[0],"type":"SCALAR"},{"bufferView":20,"componentType":5126,"count":180,"max":[0.15625,0.15625,0.15166154503822327],"min":[-0.15625,-0.15625,-0.15166154503822327],"type":"VEC3"},{"bufferView":21,"componentType":5126,"count":180,"max":[0.952875018119812,0.952875018119812,1],"min":[-0.952875018119812,-0.952875018119812,-1],"type":"VEC3"},{"bufferView":22,"componentType":5126,"count":180,"max":[0.6875,0.6783812642097473],"min":[0,0],"type":"VEC2"},{"bufferView":23,"componentType":5123,"count":240,"max":[179],"min":[0],"type":"SCALAR"},{"bufferView":24,"componentType":5126,"count":60,"max":[0.06589916348457336,-0.05000000074505806,0.14374999701976776],"min":[-0.0783991664648056,-0.625,-0.14374999701976776],"type":"VEC3"},{"bufferView":25,"componentType":5126,"count":60,"max":[0.9806751012802124,0.24253562092781067,0.9701424837112427],"min":[-0.9806751012802124,-1,-0.9701424837112427],"type":"VEC3"},{"bufferView":26,"componentType":5126,"count":60,"max":[0.19715149700641632,0.4759874939918518],"min":[0,0],"type":"VEC2"},{"bufferView":27,"componentType":5123,"count":60,"max":[59],"min":[0],"type":"SCALAR"},{"bufferView":28,"componentType":5126,"count":60,"max":[0.08467058837413788,-0.04865867644548416,0.14374999701976776],"min":[-0.059627749025821686,-0.6236586570739746,-0.14374999701976776],"type":"VEC3"},{"bufferView":29,"componentType":5126,"count":60,"max":[0.9806751012802124,0.24253562092781067,0.9701424837112427],"min":[-0.9806751012802124,-1,-0.9701424837112427],"type":"VEC3"},{"bufferView":30,"componentType":5126,"count":60,"max":[0.7410147786140442,0.9373997449874878],"min":[0.0023018617648631334,0],"type":"VEC2"},{"bufferView":31,"componentType":5123,"count":60,"max":[59],"min":[0],"type":"SCALAR"},{"bufferView":32,"componentType":5126,"count":392,"max":[0.4675314724445343,0.017494404688477516,0.4367164969444275],"min":[-0.4315780997276306,-0.005938590504229069,-0.4367164969444275],"type":"VEC3"},{"bufferView":33,"componentType":5126,"count":392,"max":[0.869080662727356,0.9773750305175781,0.8922102451324463],"min":[-0.869080662727356,-1,-0.8922102451324463],"type":"VEC3"},{"bufferView":34,"componentType":5126,"count":392,"max":[0.5013250112533569,0.23090624809265137],"min":[0.0078125,0.1328125],"type":"VEC2"},{"bufferView":35,"componentType":5123,"count":588,"max":[391],"min":[0],"type":"SCALAR"},{"bufferView":36,"componentType":5126,"count":9,"max":[2],"min":[0],"type":"SCALAR"},{"bufferView":37,"componentType":5126,"count":9,"max":[0,0.9848077297210693,0,0.9848077297210693],"min":[0,-0.9848077297210693,0,-0.9848077297210693],"type":"VEC4"}],"materials":[{"pbrMetallicRoughness":{"metallicFactor":0,"roughnessFactor":1,"baseColorTexture":{"index":0}},"alphaMode":"MASK","alphaCutoff":0.05,"doubleSided":true},{"pbrMetallicRoughness":{"metallicFactor":0,"roughnessFactor":1,"baseColorTexture":{"index":1}},"alphaMode":"MASK","alphaCutoff":0.05,"doubleSided":true},{"pbrMetallicRoughness":{"metallicFactor":0,"roughnessFactor":1,"baseColorTexture":{"index":2}},"alphaMode":"MASK","alphaCutoff":0.05,"doubleSided":true}],"textures":[{"sampler":0,"source":0,"name":"Frost.png"},{"sampler":1,"source":1,"name":"NtStar.png"},{"sampler":2,"source":2,"name":"Ice"}],"samplers":[{"magFilter":9728,"minFilter":9728,"wrapS":33071,"wrapT":33071},{"magFilter":9728,"minFilter":9728,"wrapS":33071,"wrapT":33071},{"magFilter":9728,"minFilter":9728,"wrapS":33071,"wrapT":33071}],"images":[{"mimeType":"image/png","uri":"data:image/png;base64,"},{"mimeType":"image/png","uri":"data:image/png;base64,"},{"mimeType":"image/png","uri":"data:image/png;base64,"}],"meshes":[{"primitives":[{"mode":4,"attributes":{"POSITION":0,"NORMAL":1,"TEXCOORD_0":2},"indices":3,"material":0}]},{"primitives":[{"mode":4,"attributes":{"POSITION":4,"NORMAL":5,"TEXCOORD_0":6},"indices":7,"material":0}]},{"primitives":[{"mode":4,"attributes":{"POSITION":8,"NORMAL":9,"TEXCOORD_0":10},"indices":11,"material":0}]},{"primitives":[{"mode":4,"attributes":{"POSITION":12,"NORMAL":13,"TEXCOORD_0":14},"indices":15,"material":0}]},{"primitives":[{"mode":4,"attributes":{"POSITION":16,"NORMAL":17,"TEXCOORD_0":18},"indices":19,"material":0}]},{"primitives":[{"mode":4,"attributes":{"POSITION":20,"NORMAL":21,"TEXCOORD_0":22},"indices":23,"material":1}]},{"primitives":[{"mode":4,"attributes":{"POSITION":24,"NORMAL":25,"TEXCOORD_0":26},"indices":27,"material":2}]},{"primitives":[{"mode":4,"attributes":{"POSITION":28,"NORMAL":29,"TEXCOORD_0":30},"indices":31,"material":2}]},{"primitives":[{"mode":4,"attributes":{"POSITION":32,"NORMAL":33,"TEXCOORD_0":34},"indices":35,"material":0}]}],"animations":[{"name":"Rotate","samplers":[{"input":36,"output":37,"interpolation":"LINEAR"}],"channels":[{"sampler":0,"target":{"node":10,"path":"rotation"}}]}]}